<svg width="306" height="325" viewBox="0 0 306 325" fill="none" xmlns="http://www.w3.org/2000/svg">
<path d="M14.3556 54.4225C9.6856 41.6551 7.2556 26.5009 11.3556 13.1952L7.2956 17.3087C19.5156 15.2773 31.9956 13.9976 43.7956 10.0871C47.2356 8.93936 49.5256 0.783288 44.3856 0.752817C31.7656 0.661404 19.2156 3.59677 6.7956 5.62817C4.3556 6.0243 2.7056 9.15266 2.2956 11.3263C-0.8944 28.0955 -0.2244 44.4178 7.4956 59.8463C9.8456 64.5186 15.6656 58.0892 14.3256 54.4225H14.3556Z" fill="#37DBFF"/>
<path d="M292.985 264.614C292.315 280.865 294.455 297.482 296.415 313.632L300.775 306.755C287.945 309.223 275.125 311.234 262.895 315.968C259.895 317.146 257.325 325.028 262.325 324.845C275.585 324.357 288.325 320.833 301.255 317.837C303.835 317.227 306.015 313.54 305.615 310.96C303.095 294.648 301.965 278.102 299.115 261.861C298.265 256.996 293.115 261.689 292.985 264.614Z" fill="#37DBFF"/>
</svg>
