<svg width="379" height="218" viewBox="0 0 379 218" fill="none" xmlns="http://www.w3.org/2000/svg">
<path d="M58.2974 2.5645C40.3475 0.5331 23.0275 -0.035686 5.04749 2.12776C3.7143 2.3129 2.50166 3.00996 1.65903 4.07553C0.816407 5.1411 0.40788 6.49415 0.517492 7.85633C2.64749 22.0254 1.82747 35.9506 2.46747 50.1806C2.68747 54.9239 7.67747 52.6488 8.46747 49.3884C11.8575 34.874 10.1875 19.1306 7.87747 4.56544L3.49747 11.4316C21.1675 9.12595 39.4975 7.79539 57.2974 8.58764C60.2274 8.71968 61.5874 2.98094 58.2974 2.59497V2.5645Z" fill="#37DBFF"/>
<path d="M368.06 155.55C366.767 171.624 367.052 187.789 368.91 203.806L373.37 196.777C362.71 198.646 352.03 200.434 341.37 202.262C330.71 204.09 319.71 205.705 309.44 209.595C306.72 210.611 304.7 217 308.95 217.182C319.66 217.64 330.37 215.456 340.88 213.668C351.88 211.809 362.88 209.9 373.88 208.092C376.63 207.645 378.62 203.582 378.35 201.063C376.622 185.615 375.748 170.081 375.73 154.534C375.73 148.846 368.45 150.877 368.09 155.55H368.06Z" fill="#37DBFF"/>
</svg>
