<svg width="383" height="243" viewBox="0 0 383 243" fill="none" xmlns="http://www.w3.org/2000/svg">
<path d="M382.001 52.653C383.233 36.298 382.182 19.8469 378.88 3.79486C378.279 0.855659 374.617 -0.120052 372.202 0.301555C364.058 1.7479 355.818 2.55332 347.553 2.71073C339.804 2.85528 331.949 1.50614 324.259 2.55413C320.502 3.03597 320.726 7.37249 324.059 8.57708C340.134 14.2146 360.249 10.9863 376.572 7.72184L369.906 4.22853C373.359 19.7161 375.027 35.564 374.876 51.4485C374.876 55.0622 381.694 56.7848 382.001 52.653Z" fill="#37DBFF"/>
<path d="M69.6567 218.887C65.0126 218.675 14.2731 217.421 14.2693 217.946C15.756 220.159 16.4155 220.276 16.2477 218.295L16.613 215.576C16.9568 212.978 17.3444 210.371 17.7488 207.778C18.4627 203.241 19.2872 198.716 20.2223 194.203C22.1113 185.159 24.88 176.312 26.561 167.232C27.4252 162.504 19.95 157.914 17.6185 163.063C12.9459 173.358 10.7749 185.081 8.70557 196.221C7.74861 201.471 6.95137 206.743 6.31385 212.037C5.80567 216.358 5.13878 220.887 8.43927 224.309C11.5918 227.585 15.7164 227.53 19.9241 227.435L36.5592 227.167C48.2526 226.977 59.9358 226.526 71.6087 225.812C76.7636 225.501 73.3998 219.023 69.6162 218.845L69.6567 218.887Z" fill="#37DBFF"/>
</svg>
