<svg width="321" height="258" viewBox="0 0 321 258" fill="none" xmlns="http://www.w3.org/2000/svg">
<path d="M42.5867 1.21087L19.7267 0.499882C13.9567 0.317056 6.64673 -1.26744 2.72673 4.15641C-0.853266 9.00131 0.806737 15.5932 1.43674 21.0577C2.29674 28.4418 2.27674 36.8214 4.79674 43.8399C6.28673 47.9941 11.3267 45.5158 11.5867 41.8796C11.9767 36.3135 10.9867 30.8998 10.2367 25.3947L9.07673 16.8628C8.93673 15.7659 7.48673 10.4436 8.21673 9.58026C8.94673 8.71691 13.3667 9.25523 14.4367 9.22476L23.0967 8.97084L41.3667 8.43251C44.8567 8.33094 46.5867 1.3226 42.5867 1.20072V1.21087Z" fill="#37DBFF"/>
<path d="M319.632 194.368L319.532 192.032C319.762 189.106 317.172 187.969 315.362 190.356C311.362 195.668 310.992 204.89 310.412 211.361C309.751 219.042 309.684 226.765 310.212 234.458C310.342 236.367 311.392 240.552 310.002 242.004C308.612 243.457 301.622 243.345 299.502 243.609C292.152 244.513 284.582 244.99 277.502 247.144C273.502 248.352 271.262 257.189 276.842 257.463C285.952 257.92 295.422 255.797 304.442 254.568C311.772 253.553 317.712 250.709 319.332 242.634C320.902 234.864 318.572 226.007 318.552 218.105C318.552 213.321 318.742 208.517 319.142 203.743C319.492 199.507 320.822 194.652 319.492 190.539L315.082 194.033L315.812 196.064C316.512 198.857 319.812 196.45 319.632 194.347V194.368Z" fill="#37DBFF"/>
</svg>
