<svg width="355" height="292" viewBox="0 0 355 292" fill="none" xmlns="http://www.w3.org/2000/svg">
<path fill-rule="evenodd" clip-rule="evenodd" d="M0.551674 141.786C-0.769329 100.602 0.282591 59.3719 3.7017 18.3192L3.6717 18.2983C3.8517 15.5648 8.10169 13.4886 7.85169 17.1089C7.17169 26.6449 6.59169 36.1913 6.25169 45.7482C4.75138 84.3532 5.29887 123.015 7.89167 161.557C9.29834 180.998 11.1717 200.372 13.5117 219.681C13.6812 221.083 13.8431 222.516 14.0074 223.972C15.6945 238.913 17.6388 256.133 30.7517 264.69C42.3617 272.243 57.3917 271.784 70.5417 270.95C80.9156 270.291 91.2862 269.535 101.657 268.779C109.531 268.205 117.406 267.631 125.282 267.1C149.201 265.46 173.122 263.85 197.046 262.272C201.88 253.425 207.183 244.859 212.932 236.614L212.951 236.583C216.632 231.366 221.271 237.209 218.202 241.799C214.705 247.039 211.384 252.4 208.244 257.872C209.083 256.857 209.949 255.743 210.847 254.588C214.873 249.409 219.531 243.418 225.172 241.924C231.772 240.172 235.932 245.785 236.632 252.045C236.913 254.619 236.739 257.221 236.123 259.722C236.653 259.688 237.183 259.654 237.714 259.62C243.653 253.611 249.918 247.957 256.482 242.686C258.272 241.257 260.882 240.506 262.212 243.051C264.635 247.689 266.463 252.61 267.671 257.687L281.461 256.798C284.141 253.85 286.688 250.767 289.092 247.558C292.162 243.469 297.722 245.169 296.452 250.824L295.311 255.906C297.547 255.777 299.935 255.718 302.408 255.656C315.641 255.328 331.305 254.939 339.012 243.427C346.212 232.67 345.872 217.552 345.452 205.033C345.005 192.091 344.477 179.144 343.95 166.199C343.687 159.744 343.425 153.289 343.172 146.836C342.412 127.569 341.622 108.306 340.802 89.0461C340.67 85.9557 340.631 82.7079 340.591 79.3768C340.419 65.2206 340.23 49.5616 332.872 38.1006C325.072 26.0085 310.072 21.6787 297.072 19.4042C280.98 16.5946 264.52 15.2859 248.254 13.9926C247.366 13.922 246.478 13.8515 245.592 13.7807C171.564 7.82621 97.137 10.1837 23.5917 20.8127C17.7017 21.6787 18.7917 11.4019 23.5217 10.7238C32.935 9.36049 42.355 8.13632 51.7817 7.05127C129.44 -1.95256 207.85 -1.26257 285.352 9.10661C285.768 9.16227 286.186 9.21787 286.604 9.27357C300.385 11.1081 315.054 13.061 326.992 20.9692C339.842 29.4827 345.032 43.3172 346.532 58.5915C347.863 72.2315 348.343 85.9918 348.822 99.7195C349.034 105.795 349.246 111.865 349.532 117.915C350.057 128.942 350.625 139.97 351.193 150.997C351.685 160.554 352.177 170.112 352.642 179.669C352.776 182.323 352.958 185.138 353.148 188.068C354.865 214.602 357.194 250.582 330.052 262.092C322.906 265.124 315.11 265.606 307.479 266.077C306.811 266.119 306.146 266.16 305.482 266.203L292.823 266.994L289.452 282.019C288.012 288.425 279.242 289.103 280.932 281.623L284.092 267.539L283.372 267.584C278.056 273.011 272.31 277.977 266.192 282.426C263.612 284.294 260.622 281.758 260.822 278.806C261.079 275.538 261.029 272.269 260.681 269.042L239.17 270.443C236.006 273.753 232.939 277.164 229.972 280.673C229.56 281.214 229.009 281.622 228.384 281.85C227.759 282.077 227.084 282.115 226.439 281.959C225.794 281.803 225.205 281.459 224.74 280.967C224.275 280.476 223.953 279.856 223.812 279.181C223.256 276.411 223.344 273.883 223.804 271.444L216.822 271.899C213.393 272.119 209.964 272.338 206.535 272.557C203.711 275.895 200.91 279.254 198.112 282.61C196.006 285.134 193.902 287.657 191.792 290.167C188.102 294.539 184.382 288.54 186.102 284.607C187.73 280.874 189.437 277.181 191.222 273.531C159.929 275.514 128.635 277.457 97.3417 279.359C93.7759 279.576 90.1725 279.855 86.5479 280.136C73.238 281.167 59.6423 282.22 46.5717 280.277C32.4017 278.159 19.5217 271.211 13.4517 257.053C10.1817 249.499 8.88169 241.257 7.82169 233.056C6.54836 223.179 5.41503 213.292 4.4217 203.394C2.3917 182.924 1.22167 162.34 0.551674 141.786ZM216.551 260.992C220.225 260.753 223.899 260.514 227.574 260.275C228.316 258.26 229.063 255.419 227.682 253.537C225.792 250.939 223.312 253.589 221.792 255.237C220.025 257.135 218.28 259.055 216.551 260.992ZM251.218 258.749L258.355 258.288C257.872 256.824 257.323 255.381 256.71 253.964C254.854 255.528 253.023 257.123 251.218 258.749ZM269.28 268.481C269.281 268.487 269.281 268.493 269.281 268.498C269.289 268.492 269.296 268.486 269.303 268.48L269.28 268.481Z" fill="#37DBFF"/>
</svg>
