<svg width="371" height="313" viewBox="0 0 371 313" fill="none" xmlns="http://www.w3.org/2000/svg">
<path fill-rule="evenodd" clip-rule="evenodd" d="M215.994 13.9426C211.323 16.899 209.813 23.145 211.36 28.1778C198.525 28.2135 185.691 28.3585 172.863 28.5035C167.248 28.5669 161.636 28.6304 156.025 28.6846L93.2645 29.2897C90.1399 29.3187 86.9659 29.2912 83.7648 29.2634C69.673 29.1413 55.0565 29.0145 41.8145 33.6821C7.8245 45.6699 2.43451 90.5329 1.99451 122.709C1.71451 143.043 3.99451 163.315 6.77451 183.41C7.01299 185.127 7.24904 186.847 7.48537 188.569L7.48567 188.571C9.64745 204.324 11.8328 220.249 16.1145 235.513C18.0504 242.399 20.4815 249.243 23.6483 255.655C18.2146 262.163 13.1794 269.109 8.47413 276.205C5.89989 279.743 3.53724 283.46 1.40436 287.335C0.104359 289.735 -0.965641 293.533 1.40436 295.682C3.53436 297.675 6.76436 296.172 8.07436 293.887C8.41211 293.298 8.75229 292.711 9.09475 292.126C14.2043 283.66 20.5121 276.079 27.7852 269.631C25.4775 276.323 23.1656 283.011 20.8444 289.693C19.5444 293.418 21.4644 300.575 26.4244 297.205C31.8377 293.525 37.1286 289.656 42.2883 285.605L35.9944 303.684C34.7144 307.367 36.8043 315.714 41.9243 311.666C44.6496 309.512 47.3818 307.367 50.114 305.221C53.8457 302.29 57.5777 299.359 61.293 296.407C63.5392 301.406 70.7383 297.543 71.1472 291.711C74.3208 292.381 77.5274 292.901 80.7345 293.303C94.7795 295.064 109.071 295.277 123.283 295.489C127.852 295.557 132.413 295.625 136.955 295.744L198.475 297.382L259.995 299.01C263.987 299.115 268.03 299.309 272.098 299.504H272.098H272.099C285.797 300.16 299.779 300.83 313.095 298.175C328.315 295.129 340.665 285.488 346.565 270.35C352.875 254.168 351.415 236.703 349.495 219.79L349.427 219.194L349.427 219.194C348.228 208.639 347.009 197.91 348.294 187.312C349.484 177.431 352.295 167.864 355.475 158.505C356.419 155.713 357.389 152.927 358.358 150.141L358.36 150.137C363.547 135.233 368.733 120.333 370.115 104.388C371.595 87.4342 368.204 70.4802 357.424 57.3238C347.995 45.816 334.174 38.8466 320.625 34.0264C320.248 33.8923 319.871 33.7597 319.494 33.6285C322.678 30.1352 325.39 26.0941 327.564 22.4457C330.934 16.7909 325.734 9.72752 321.214 16.1857C321.145 16.2846 321.076 16.3838 321.006 16.4833L320.781 16.8051C317.385 21.6629 313.605 27.0705 307.764 28.6013C306.749 28.8684 305.602 29.0432 304.455 29.0373C303.062 28.6564 301.668 28.2831 300.272 27.9146C300.042 27.7619 299.822 27.5913 299.614 27.4015C299.009 26.7746 298.526 26.0304 298.194 25.2105C298.129 25.0868 298.08 24.9672 298.045 24.8529C298.644 23.8416 299.213 22.8405 299.754 21.8614C300.974 19.66 301.884 16.6448 300.554 14.266C300.291 13.7775 299.933 13.3519 299.503 13.0165C299.072 12.6811 298.579 12.4433 298.056 12.3185C297.532 12.1937 296.989 12.1846 296.462 12.2918C295.935 12.399 295.435 12.6202 294.994 12.941C292.035 15.1984 289.965 18.5152 288.934 22.1197C286.547 26.0697 283.751 29.7938 280.184 32.1267C280.62 30.9738 280.445 29.6718 279.135 29.6132V29.6027C274.278 29.342 269.42 29.1245 264.561 28.9445C265 28.4489 265.421 27.9546 265.824 27.4641C271.564 20.4738 274.154 11.3029 270.594 2.61201C269.264 -0.643173 265.594 1.45392 264.274 3.27974C259.124 10.3222 253.894 18.022 253.794 27.2763L253.794 27.3009C253.189 27.7405 252.581 28.1603 251.977 28.558C246.281 28.4174 240.585 28.3212 234.888 28.2596C234.816 28.0298 234.752 27.791 234.696 27.543C238.007 22.3341 239.985 15.6104 241.064 10.3639C242.014 5.72114 237.344 3.80141 234.784 7.57826C231.12 12.9579 227.508 18.9847 226.774 25.542C224.606 26.8647 221.594 27.4781 219.374 25.993C218.244 25.2314 215.744 21.9762 217.584 20.6407C220.364 18.6062 220.124 11.3447 216.034 13.9321L215.994 13.9426ZM69.5432 280.736C68.4327 279.165 66.6992 278.268 64.7693 279.344C63.7553 279.012 62.7468 278.658 61.7445 278.279C59.7657 277.529 57.8561 276.68 56.0162 275.738C56.4822 274.373 56.9483 273.008 57.4143 271.644C59.2043 266.427 55.6343 260.104 50.4143 264.799C48.8714 266.191 47.3139 267.565 45.7421 268.92C43.6339 267.152 41.656 265.227 39.8098 263.156C40.4518 261.291 41.0934 259.425 41.7343 257.559C42.7444 254.601 41.8294 249.75 38.9988 249.322L39.3044 248.92C41.8043 245.612 38.9743 239.53 35.1544 243.234L35.1244 243.254C33.3853 244.933 31.6835 246.666 30.0175 248.444C29.9998 248.408 29.9821 248.372 29.9645 248.336C23.4245 234.95 20.3945 219.957 17.9645 205.267C14.9645 187.082 12.1445 168.751 10.4945 150.388C8.69451 131.139 8.30451 111.545 11.3645 92.4004C13.9145 76.4167 18.3045 57.6055 31.7445 47.6731C44.0269 38.607 60.1552 38.447 74.7036 38.3028C75.3404 38.2965 75.9742 38.2902 76.6045 38.2832L134.405 37.6259C137.29 37.5928 140.176 37.5603 143.062 37.5277L143.065 37.5276H143.066C171.514 37.2065 199.962 36.8854 228.4 36.1096C231.184 41.8858 237.02 44.9058 243.684 43.208C247.79 42.162 252 39.8422 255.852 36.9697C257.587 40.5831 260.418 43.5265 264.344 45.0129C274.907 49.0068 283.625 43.5503 290.382 35.7417C291.806 38.0903 293.945 40.0324 296.864 41.2256C300.098 42.5455 303.17 42.7774 306.059 42.2227C329.472 49.0126 354.495 59.9995 360.275 86.7664C364.841 108.026 357.666 128.408 350.503 148.751C345.747 162.263 340.996 175.758 339.695 189.482C338.666 200.306 339.923 210.961 341.181 221.631L341.182 221.631C342.065 229.124 342.95 236.623 343.044 244.194C343.224 259.144 339.505 275.431 326.115 283.245C314.188 290.2 299.376 289.641 285.803 289.129C283.819 289.054 281.862 288.981 279.945 288.931L223.375 287.471C184.995 286.469 146.618 285.492 108.245 284.539L107.585 284.523C94.9261 284.227 81.9019 283.923 69.5432 280.736ZM36.151 273.789C36.4973 274.146 36.8484 274.498 37.2045 274.846C37.42 275.057 37.6367 275.265 37.8548 275.472C36.8174 276.301 35.7743 277.123 34.7256 277.937C35.2004 276.554 35.6755 275.172 36.151 273.789ZM52.6552 285.576C53.5193 285.993 54.3921 286.392 55.2728 286.773C53.8823 287.883 52.4936 288.996 51.1059 290.109C51.6224 288.598 52.1388 287.087 52.6552 285.576ZM271.404 34.5796C270.93 34.5605 270.462 34.515 270.003 34.4436C272.007 34.3205 274.009 34.19 276.011 34.0521C274.586 34.455 273.055 34.6464 271.404 34.5796Z" fill="#37DBFF"/>
</svg>
