<svg width="413" height="301" viewBox="0 0 413 301" fill="none" xmlns="http://www.w3.org/2000/svg">
<path fill-rule="evenodd" clip-rule="evenodd" d="M304.059 20.1811C307.982 13.2675 313.223 6.99242 318.552 1.91178V1.94308C322.412 -1.72942 324.552 4.94786 321.652 7.85873C317.912 11.5623 314.62 15.7194 311.845 20.2363C314.227 20.2565 316.609 20.2796 318.992 20.3058L319.002 20.358C320.712 20.3779 321.199 21.892 320.905 23.4845C322.901 23.3427 324.908 23.7717 326.632 24.938C330.273 27.417 331.253 30.6681 330.652 34.0757C332.616 31.7049 334.77 29.6322 336.742 28.0471C340.762 24.8128 344.392 29.08 342.392 33.5663C340.223 38.3126 336.874 42.3062 332.864 45.1528C332.853 45.2683 332.845 45.3847 332.842 45.5019C332.712 49.9047 336.992 50.6351 340.192 49.9882C343.88 49.2525 347.083 47.0283 350.303 44.792C353.02 42.9053 355.749 41.0101 358.792 39.9931C364.119 38.2145 363.85 46.171 361.658 49.3665C361.89 49.3525 362.118 49.6808 362.342 50.3534C363.198 50.9951 364.171 51.4462 365.202 51.6784C367.264 52.0041 369.367 51.9263 371.402 51.4489C375.497 50.7343 379.516 49.6057 383.402 48.0789C391.585 44.952 399.165 40.3193 405.782 34.4009C411.812 29.0174 415.002 39.0437 410.492 43.3944C399.442 54.0572 385.742 61.4648 370.742 63.6766C369.74 63.8235 368.702 63.9397 367.653 64.0024C366.765 71.2509 365.806 78.4866 364.842 85.7224C359.629 124.789 356.913 164.175 356.712 203.618C356.678 209.586 356.861 215.598 357.045 221.621C357.401 233.31 357.759 245.041 356.532 256.567C354.952 271.393 348.492 285.092 335.252 292.04C322.98 298.475 308.787 299.065 295.231 299.628C293.951 299.682 292.678 299.734 291.412 299.792C272.742 300.637 254.042 300.971 235.352 300.908C197.272 300.797 159.302 298.843 121.442 295.045C102.835 293.167 84.2784 290.872 65.7718 288.159C56.4417 286.782 47.0817 285.352 37.7717 283.704C30.6417 282.442 23.2618 280.689 18.3418 274.7C13.8138 269.195 12.1054 261.831 10.5079 254.944L10.4317 254.616C8.27838 245.344 6.46176 236.01 4.98176 226.613C2.05254 208.096 0.411557 189.382 0.0717289 170.618C-0.578271 134.3 3.13172 96.2287 13.5617 61.465C17.8917 47.0358 25.8017 35.0689 39.8917 29.8523C52.1456 25.3163 66.0071 25.0815 79.2424 24.8574C82.4461 24.8031 85.6131 24.7495 88.7118 24.6356C160.467 22.0013 232.258 19.7684 304.059 20.1811ZM300.423 27.7906C297.156 27.9187 293.889 28.0494 290.622 28.1829C234.839 30.4102 178.973 31.5264 123.139 32.642C106.786 32.9688 90.436 33.2955 74.0918 33.65C72.3369 33.6882 70.5315 33.7033 68.6924 33.7186C55.482 33.8286 40.5361 33.953 30.1518 42.7999C19.665 51.7341 16.7691 68.4897 14.3728 82.3541C14.0659 84.13 13.7672 85.8584 13.4617 87.5169C7.0228 122.986 5.37009 159.22 8.55171 195.167C10.1266 213.094 12.9508 230.878 17.0017 248.377C17.1536 249.048 17.3038 249.733 17.4562 250.427C18.8992 257.008 20.5357 264.47 25.5918 268.962C30.6919 273.508 38.4492 274.44 45.3738 275.272C47.03 275.471 48.6386 275.664 50.1518 275.9C85.1918 281.336 120.462 285.238 155.802 287.596C191.142 289.953 226.562 290.997 261.972 290.423C264.435 290.383 266.903 290.35 269.376 290.317C283.894 290.123 298.557 289.926 312.972 288.42C326.712 286.98 341.332 282.567 346.882 267.96C351.1 256.902 350.454 243.989 349.841 231.749C349.658 228.087 349.478 224.485 349.432 221.01C349.192 202.62 349.492 184.251 350.332 165.902C351.889 131.79 354.436 97.0067 360.973 63.4378C358.252 62.6858 355.83 61.1549 354.202 58.3661C353.476 57.1326 352.951 55.7951 352.637 54.407C351.825 54.8946 351.004 55.4045 350.177 55.9185C342.945 60.4125 335.194 65.2287 328.112 58.3035C325.273 55.5274 324.101 52.4061 324.059 49.2138C322.429 49.609 320.76 49.8318 319.076 49.8653C317.702 50.8959 316.391 51.718 315.262 52.2627C310.352 54.6414 304.652 54.704 300.792 50.2699C297.372 46.3366 297.182 40.4 298.182 35.4547C298.688 32.863 299.451 30.3008 300.423 27.7906ZM319.419 39.3324C317.98 39.2807 316.552 39.0655 315.182 38.6873C315.541 37.0128 316.118 35.4133 317.242 34.4531C319.342 32.6586 323.102 33.4098 321.442 36.7067C321.017 37.5557 320.309 38.4621 319.419 39.3324ZM306.708 42.478C306.388 42.1762 306.097 41.8158 305.842 41.3912C303.549 37.5957 305.973 31.6345 307.949 27.5006C309.645 27.4364 311.341 27.3728 313.037 27.3101C309.193 31.2495 307.733 37.0039 306.722 42.4032C306.717 42.4281 306.713 42.453 306.708 42.478Z" fill="#37DBFF"/>
</svg>
