<svg width="294" height="297" viewBox="0 0 294 297" fill="none" xmlns="http://www.w3.org/2000/svg">
<path opacity="0.08" fill-rule="evenodd" clip-rule="evenodd" d="M216.377 104.452C226.115 97.4278 233.79 87.9551 238.599 77.0259C248.09 60.8397 249.373 36.001 219.762 36.3762C206.886 37.4585 194.398 41.414 183.237 47.946C172.075 54.478 162.529 63.4169 155.314 74.0921C152.846 78.7203 151.66 83.9055 151.878 89.1149C152.096 94.3243 153.71 99.3701 156.555 103.734C159.399 108.098 163.372 111.622 168.064 113.946C172.756 116.269 177.998 117.307 183.253 116.953C195.2 115.794 206.64 111.477 216.377 104.452ZM227.118 126.614C238.604 122.355 251.026 121.283 263.065 123.51C282.144 124.604 304.238 137.862 287.297 162.872C279.111 173.246 268.677 181.633 256.782 187.402C244.887 193.171 231.84 196.172 218.622 196.179C213.273 195.611 208.174 193.631 203.848 190.442C199.522 187.252 196.127 182.969 194.01 178.032C191.894 173.095 191.132 167.682 191.805 162.351C192.477 157.019 194.559 151.96 197.836 147.695C205.514 138.157 215.633 130.872 227.118 126.614ZM248.89 223.847C238.575 217.687 226.654 214.408 214.397 214.358C202.14 214.309 190.006 217.492 179.287 223.567C174.61 226.322 170.742 230.221 168.083 234.861C165.423 239.501 164.07 244.712 164.164 249.956C164.257 255.2 165.793 260.285 168.613 264.684C171.433 269.083 175.434 272.637 180.202 274.977C192.474 279.369 205.676 281.02 218.848 279.807C232.02 278.595 244.83 274.551 256.345 267.97C281.682 250.887 266.005 231.313 248.89 223.847ZM53.4992 97.1332C73.8362 109.814 96.5714 118.099 120.247 121.456C129.677 122.334 138.782 125.41 146.834 130.44C154.887 135.471 161.665 142.316 166.629 150.43C175.499 170.191 165.587 187.28 156.234 203.407C152.769 209.382 149.38 215.224 147.051 221.022C144.851 226.5 143.379 233.922 141.782 241.977L141.782 241.977L141.782 241.978L141.782 241.979C137.128 265.453 131.409 294.296 103.488 296.051C81.0186 297.462 75.2151 274.678 68.6547 248.923C64.2654 231.69 59.5373 213.128 49.2523 199.592C36.5235 182.839 30.9871 175.433 26.2239 169.062C21.386 162.59 17.3458 157.186 7.37729 144.139C-12.4057 118.246 9.58072 74.2742 53.4992 97.1332ZM142.308 34.6903C142.191 46.8447 138.783 58.7691 132.44 69.2148C126.097 79.6605 117.053 88.2429 106.254 94.0633C101.445 96.4731 96.0845 97.5713 90.726 97.2444C85.3675 96.9175 80.2047 95.1774 75.7702 92.2037C71.3358 89.2301 67.7903 85.1304 65.4994 80.3277C63.2086 75.5249 62.2553 70.193 62.738 64.882C65.2132 52.064 70.5812 39.9475 78.4384 29.4438C86.2956 18.9402 96.4375 10.3226 108.101 4.23926C136.041 -7.84191 144.777 15.921 142.308 34.6903Z" fill="#0E0E0E"/>
</svg>
