<svg width="344" height="361" viewBox="0 0 344 361" fill="none" xmlns="http://www.w3.org/2000/svg">
<path opacity="0.43" fill-rule="evenodd" clip-rule="evenodd" d="M253.17 126.791C264.544 118.23 273.509 106.686 279.127 93.3661C290.213 73.6398 291.713 43.3687 257.123 43.8259C242.083 45.1449 227.496 49.9655 214.458 57.9262C201.42 65.8868 190.269 76.7807 181.842 89.7907C178.959 95.4312 177.573 101.75 177.828 108.099C178.083 114.448 179.968 120.597 183.291 125.916C186.613 131.234 191.254 135.529 196.734 138.361C202.215 141.192 208.339 142.457 214.477 142.026C228.432 140.614 241.796 135.352 253.17 126.791ZM265.716 153.799C279.133 148.61 293.643 147.302 307.706 150.017C329.992 151.351 355.8 167.508 336.011 197.988C326.449 210.631 314.262 220.852 300.367 227.883C286.472 234.914 271.231 238.571 255.792 238.58C249.543 237.888 243.587 235.474 238.534 231.587C233.481 227.7 229.515 222.48 227.042 216.463C224.57 210.447 223.681 203.85 224.466 197.353C225.251 190.855 227.683 184.69 231.511 179.492C240.48 167.868 252.3 158.989 265.716 153.799ZM291.147 272.299C279.098 264.791 265.174 260.795 250.856 260.735C236.539 260.675 222.366 264.554 209.845 271.958C204.381 275.315 199.863 280.067 196.756 285.721C193.65 291.376 192.07 297.728 192.179 304.118C192.288 310.509 194.082 316.706 197.376 322.067C200.67 327.429 205.344 331.76 210.913 334.612C225.248 339.965 240.67 341.976 256.056 340.499C271.442 339.021 286.405 334.093 299.856 326.072C329.452 305.253 311.14 281.397 291.147 272.299ZM62.9112 117.871C86.6669 133.326 113.224 143.423 140.88 147.514C151.895 148.583 162.53 152.333 171.936 158.463C181.343 164.594 189.26 172.936 195.058 182.824C205.419 206.908 193.842 227.735 182.916 247.388C178.868 254.67 174.91 261.79 172.19 268.856C169.62 275.533 167.901 284.578 166.035 294.394L166.035 294.394L166.035 294.396L166.035 294.396C160.598 323.004 153.918 358.156 121.303 360.294C95.0565 362.015 88.2775 334.248 80.6143 302.859C75.4872 281.858 69.9642 259.236 57.9503 242.739C43.0818 222.322 36.6146 213.297 31.0508 205.531C25.3996 197.644 20.6803 191.058 9.03596 175.157C-14.0727 143.602 11.6098 90.0128 62.9112 117.871ZM166.649 41.7713C166.513 56.584 162.532 71.1165 155.122 83.8468C147.713 96.577 137.148 107.037 124.534 114.13C118.916 117.067 112.655 118.405 106.396 118.007C100.137 117.608 94.1059 115.488 88.926 111.864C83.7462 108.24 79.6046 103.243 76.9286 97.3902C74.2527 91.537 73.1392 85.039 73.703 78.5663C76.5943 62.9448 82.8647 48.1784 92.0427 35.3774C101.221 22.5764 113.067 12.0741 126.692 4.66025C159.328 -10.0632 169.533 18.897 166.649 41.7713Z" fill="white" fill-opacity="0.1"/>
</svg>
