<svg width="403" height="423" viewBox="0 0 403 423" fill="none" xmlns="http://www.w3.org/2000/svg">
<path opacity="0.43" fill-rule="evenodd" clip-rule="evenodd" d="M296.095 146.273C309.265 136.039 319.564 122.357 325.914 106.66C338.556 83.3598 339.795 47.8928 299.309 49.07C281.723 50.8933 264.728 56.8076 249.6 66.3693C234.472 75.9309 221.603 88.8916 211.958 104.279C208.679 110.936 207.165 118.36 207.572 125.788C207.978 133.216 210.29 140.38 214.271 146.544C218.252 152.709 223.757 157.652 230.222 160.865C236.686 164.078 243.877 165.445 251.056 164.827C267.369 162.914 282.925 156.506 296.095 146.273ZM311.244 177.659C326.862 171.334 343.827 169.535 360.337 172.452C386.451 173.599 416.94 192.037 394.293 228.087C383.314 243.066 369.22 255.258 353.073 263.747C336.925 272.237 319.145 276.801 301.07 277.098C293.743 276.404 286.729 273.688 280.747 269.232C274.765 264.775 270.033 258.737 267.036 251.739C264.039 244.741 262.885 237.035 263.694 229.413C264.502 221.791 267.244 214.529 271.637 208.372C281.938 194.598 295.626 183.984 311.244 177.659ZM343.037 315.917C328.802 307.352 312.432 302.931 295.67 303.127C278.907 303.322 262.38 308.126 247.848 317.027C241.509 321.058 236.3 326.705 232.76 333.383C229.22 340.061 227.478 347.526 227.714 355.005C227.951 362.485 230.157 369.707 234.105 375.923C238.053 382.138 243.598 387.122 250.167 390.357C267.04 396.358 285.129 398.426 303.117 396.411C321.105 394.396 338.538 388.349 354.149 378.709C388.442 353.787 366.598 326.198 343.037 315.917ZM73.2025 139.361C101.277 157.013 132.54 168.341 164.987 172.617C177.902 173.665 190.416 177.857 201.533 184.859C212.649 191.862 222.061 201.481 229.017 212.951C241.558 240.953 228.359 265.551 215.903 288.762C211.288 297.362 206.775 305.772 203.712 314.094C200.816 321.958 198.958 332.58 196.942 344.106L196.941 344.107L196.941 344.108L196.941 344.109C191.064 377.702 183.843 418.979 145.696 422.087C114.998 424.589 106.588 392.207 97.0817 355.601C90.7212 331.11 83.8697 304.728 69.5235 285.638C51.7685 262.012 44.0434 251.565 37.3973 242.578C30.6469 233.449 25.0095 225.826 11.1062 207.427C-16.4855 170.913 12.6679 107.698 73.2025 139.361ZM193.353 48.3436C193.447 65.6877 189.034 82.7751 180.576 97.8162C172.119 112.857 159.929 125.299 145.282 133.837C138.756 137.38 131.448 139.063 124.113 138.712C116.779 138.362 109.682 135.991 103.556 131.845C97.4304 127.698 92.4965 121.926 89.264 115.123C86.0314 108.32 84.617 100.733 85.1667 93.1452C88.2853 74.8031 95.3745 57.3993 105.901 42.2426C116.428 27.0859 130.118 14.5707 145.942 5.63835C183.899 -12.2044 196.34 21.5105 193.353 48.3436Z" fill="white" fill-opacity="0.19"/>
</svg>
