<svg width="44" height="44" viewBox="0 0 44 44" fill="none" xmlns="http://www.w3.org/2000/svg">
<path d="M9.26735 24.5859C9.04502 24.5752 8.84868 24.5234 8.68011 24.4325C8.45874 24.3132 8.29794 24.1335 8.19137 23.9192C7.98175 23.4979 7.98136 22.9456 8.11065 22.4129C8.24107 21.8756 8.51032 21.3275 8.87997 20.8986C9.24887 20.4705 9.73216 20.1456 10.2914 20.0932L9.26735 24.5859ZM9.26735 24.5859V24.6017L9.47985 24.5884L19.6349 23.9525M9.26735 24.5859L19.6349 23.9525M19.6349 23.9525C19.6349 23.9525 19.6349 23.9525 19.6349 23.9525C20.3294 23.9091 21.0316 23.8763 21.739 23.8433L21.7498 23.8428C24.3187 23.7228 26.9571 23.5996 29.4444 22.9508C29.8971 22.8328 30.2885 22.5148 30.5847 22.1213C30.882 21.7264 31.0953 21.2403 31.1855 20.7577C31.2752 20.2774 31.246 19.7802 31.0309 19.3779C30.8103 18.9654 30.4078 18.6793 29.8136 18.6111L29.8131 18.6111C27.3674 18.3375 24.8216 18.6329 22.3596 18.9187L22.3477 18.9201C21.5803 19.0092 20.8207 19.0973 20.072 19.1677L20.0718 19.1677L10.2916 20.0932L19.6349 23.9525ZM13.726 33.2898C13.3255 33.2899 12.9534 33.4859 12.6535 33.762C12.3522 34.0394 12.1076 34.4115 11.9597 34.8002C11.8125 35.1871 11.7541 35.6093 11.8508 35.9824C11.9505 36.3665 12.2118 36.6831 12.6629 36.837L12.6943 36.8477H12.7006C15.3016 37.682 18.0259 38.0837 20.7614 38.0363C23.4254 38.0363 26.3401 38.0065 28.6513 36.4087L28.6519 36.4083C28.8691 36.257 29.0912 35.9998 29.2785 35.7047C29.4674 35.4071 29.6309 35.0555 29.7219 34.7032C29.8122 34.3539 29.8364 33.9837 29.7212 33.6626C29.6016 33.3292 29.3402 33.0737 28.918 32.9553C27.2226 32.4722 25.486 32.7289 23.805 32.9774L23.7845 32.9805C23.0648 33.0869 22.3548 33.1917 21.6508 33.242M13.726 33.2898C14.5957 33.2855 15.4641 33.2991 16.3297 33.3126H16.3324L16.3324 33.3127C18.112 33.3405 19.8801 33.3681 21.6508 33.242M13.726 33.2898C13.7258 33.2898 13.7257 33.2898 13.7255 33.2898L13.7265 33.4898V33.2898C13.7263 33.2898 13.7262 33.2898 13.726 33.2898ZM21.6508 33.242L21.665 33.4415L21.6508 33.242C21.6508 33.242 21.6508 33.242 21.6508 33.242ZM5.81984 12.3841V12.4129L5.95461 12.4594C7.9634 13.1525 10.2445 13.0524 12.3581 12.9596L12.3698 12.9591L12.3786 12.9587C12.8147 12.9396 13.2443 12.9208 13.6647 12.9089C16.4297 12.8446 19.1917 12.7788 21.9508 12.7115C23.9643 12.6643 25.9802 12.5911 27.9953 12.518C28.6021 12.496 29.2089 12.474 29.8156 12.4527C30.0911 12.4433 30.3678 12.4355 30.6437 12.4278L30.665 12.4272C33.0872 12.359 35.5423 12.2899 37.7864 11.1142L37.7866 11.1141C38.3767 10.8041 38.7845 10.1229 38.8918 9.44753C38.9997 8.76794 38.8096 8.02641 38.1124 7.65914L38.1123 7.65909C36.2214 6.66452 34.0221 6.80092 31.9813 6.92749L31.9536 6.9292L31.9536 6.9292L31.9533 6.92922L31.9533 6.92922C31.578 6.95249 31.2079 6.97544 30.8434 6.99155L30.8431 6.99156C30.1566 7.02299 29.4703 7.05362 28.7841 7.08424C26.6939 7.17752 24.6044 7.27077 22.5146 7.38641L22.5146 7.38641L14.6162 7.82501L14.6161 7.82501C14.1509 7.85104 13.6748 7.87026 13.191 7.88977L13.191 7.88977L13.1907 7.88978L13.1907 7.88979L13.1729 7.8905C10.9911 7.97852 8.64875 8.07301 6.62638 8.84664C6.3297 8.95978 6.0375 9.20255 5.79312 9.49437C5.54655 9.78881 5.33512 10.1492 5.20803 10.5183C5.0818 10.8849 5.0325 11.279 5.13695 11.6298C5.23351 11.9542 5.45573 12.2209 5.81984 12.3841Z" fill="#0E0E0E" stroke="#0E0E0E" stroke-width="0.4"/>
</svg>
