<svg width="44" height="44" viewBox="0 0 44 44" fill="none" xmlns="http://www.w3.org/2000/svg">
<mask id="path-1-outside-1" maskUnits="userSpaceOnUse" x="7.84375" y="6.88794" width="29" height="29" fill="black">
<rect fill="white" x="7.84375" y="6.88794" width="29" height="29"/>
<path fill-rule="evenodd" clip-rule="evenodd" d="M32.6749 8.00528C30.6977 8.96485 29.0973 10.7128 27.5832 12.3665C27.273 12.7053 26.9661 13.0405 26.6606 13.3638C25.1782 14.9172 23.6976 16.4699 22.2188 18.022L18.5415 14.7332C18.1743 14.4051 17.8044 14.064 17.4299 13.7187L17.4299 13.7187C15.7304 12.1515 13.9373 10.4981 11.8853 9.58514C10.8432 9.12012 8.22554 9.92531 8.97748 11.4838L8.96109 11.5002C9.92066 13.4774 11.6686 15.0777 13.3223 16.5918C13.6611 16.902 13.9963 17.209 14.3196 17.5144C15.7872 18.9149 17.2541 20.3138 18.7206 21.7111C17.9076 22.5785 17.0977 23.4497 16.2877 24.321C15.8525 24.7891 15.4172 25.2573 14.9815 25.7249C14.7829 25.9375 14.5823 26.1498 14.3827 26.361C12.6201 28.2262 10.8731 30.0748 10.0961 32.5775C9.7291 33.7641 10.8165 35.5552 12.1717 35.1378C14.2661 34.4912 15.7676 32.7903 17.2059 31.1609L17.2062 31.1607L17.2063 31.1605C17.4679 30.8641 17.7275 30.5701 17.9882 30.2852C18.4758 29.7506 18.9637 29.2168 19.4516 28.6832C20.4765 27.5621 21.5008 26.4417 22.5194 25.3161C23.4354 26.1755 24.356 27.0313 25.2768 27.8873C25.7449 28.3226 26.2131 28.7578 26.6807 29.1936C26.8933 29.3922 27.1056 29.5928 27.3168 29.7923C29.182 31.555 31.0306 33.302 33.5333 34.079C34.7199 34.4459 36.5111 33.3585 36.0936 32.0033C35.447 29.909 33.7461 28.4075 32.1167 26.9691L32.1165 26.9689C31.82 26.7072 31.5259 26.4476 31.241 26.1869C30.7064 25.6993 30.1727 25.2113 29.639 24.7235C28.4317 23.6197 27.2251 22.5167 26.012 21.4207L29.4418 17.5857C29.7699 17.2185 30.111 16.8486 30.4563 16.4741L30.4564 16.4741C32.0235 14.7745 33.677 12.9815 34.5899 10.9294C35.0549 9.88739 34.2497 7.26973 32.6913 8.02167L32.6749 8.00528Z"/>
</mask>
<path fill-rule="evenodd" clip-rule="evenodd" d="M32.6749 8.00528C30.6977 8.96485 29.0973 10.7128 27.5832 12.3665C27.273 12.7053 26.9661 13.0405 26.6606 13.3638C25.1782 14.9172 23.6976 16.4699 22.2188 18.022L18.5415 14.7332C18.1743 14.4051 17.8044 14.064 17.4299 13.7187L17.4299 13.7187C15.7304 12.1515 13.9373 10.4981 11.8853 9.58514C10.8432 9.12012 8.22554 9.92531 8.97748 11.4838L8.96109 11.5002C9.92066 13.4774 11.6686 15.0777 13.3223 16.5918C13.6611 16.902 13.9963 17.209 14.3196 17.5144C15.7872 18.9149 17.2541 20.3138 18.7206 21.7111C17.9076 22.5785 17.0977 23.4497 16.2877 24.321C15.8525 24.7891 15.4172 25.2573 14.9815 25.7249C14.7829 25.9375 14.5823 26.1498 14.3827 26.361C12.6201 28.2262 10.8731 30.0748 10.0961 32.5775C9.7291 33.7641 10.8165 35.5552 12.1717 35.1378C14.2661 34.4912 15.7676 32.7903 17.2059 31.1609L17.2062 31.1607L17.2063 31.1605C17.4679 30.8641 17.7275 30.5701 17.9882 30.2852C18.4758 29.7506 18.9637 29.2168 19.4516 28.6832C20.4765 27.5621 21.5008 26.4417 22.5194 25.3161C23.4354 26.1755 24.356 27.0313 25.2768 27.8873C25.7449 28.3226 26.2131 28.7578 26.6807 29.1936C26.8933 29.3922 27.1056 29.5928 27.3168 29.7923C29.182 31.555 31.0306 33.302 33.5333 34.079C34.7199 34.4459 36.5111 33.3585 36.0936 32.0033C35.447 29.909 33.7461 28.4075 32.1167 26.9691L32.1165 26.9689C31.82 26.7072 31.5259 26.4476 31.241 26.1869C30.7064 25.6993 30.1727 25.2113 29.639 24.7235C28.4317 23.6197 27.2251 22.5167 26.012 21.4207L29.4418 17.5857C29.7699 17.2185 30.111 16.8486 30.4563 16.4741L30.4564 16.4741C32.0235 14.7745 33.677 12.9815 34.5899 10.9294C35.0549 9.88739 34.2497 7.26973 32.6913 8.02167L32.6749 8.00528Z" fill="#0E0E0E"/>
<path d="M27.5832 12.3665L27.8782 12.6366L27.8782 12.6366L27.5832 12.3665ZM32.6749 8.00528L32.9577 7.72244L32.7564 7.52111L32.5002 7.64542L32.6749 8.00528ZM26.6606 13.3638L26.95 13.64L26.9513 13.6385L26.6606 13.3638ZM22.2188 18.022L21.9521 18.3202L22.241 18.5785L22.5084 18.2979L22.2188 18.022ZM18.5415 14.7332L18.8082 14.4351L18.808 14.435L18.5415 14.7332ZM17.4299 13.7187L17.1566 14.0108L17.1587 14.0127L17.4299 13.7187ZM17.4299 13.7187L17.7032 13.4266L17.7011 13.4246L17.4299 13.7187ZM11.8853 9.58514L11.7223 9.95042L11.7227 9.95061L11.8853 9.58514ZM8.97748 11.4838L9.26033 11.7666L9.46117 11.5658L9.33774 11.31L8.97748 11.4838ZM8.96109 11.5002L8.67825 11.2173L8.47692 11.4187L8.60123 11.6748L8.96109 11.5002ZM13.3223 16.5918L13.5924 16.2968L13.5924 16.2968L13.3223 16.5918ZM14.3196 17.5144L14.5958 17.2251L14.5943 17.2237L14.3196 17.5144ZM18.7206 21.7111L19.0124 21.9847L19.2837 21.6952L18.9965 21.4216L18.7206 21.7111ZM16.2877 24.321L15.9947 24.0486H15.9947L16.2877 24.321ZM14.9815 25.7249L15.2738 25.998L15.2741 25.9976L14.9815 25.7249ZM14.3827 26.361L14.092 26.0862L14.092 26.0862L14.3827 26.361ZM10.0961 32.5775L9.71404 32.4589L9.71391 32.4593L10.0961 32.5775ZM12.1717 35.1378L12.2895 35.52L12.2897 35.52L12.1717 35.1378ZM17.2059 31.1609L16.9062 30.8961L16.9061 30.8962L17.2059 31.1609ZM17.2062 31.1607L17.5059 31.4255L17.5072 31.4241L17.2062 31.1607ZM17.2063 31.1605L16.9064 30.8958L16.9053 30.8971L17.2063 31.1605ZM17.9882 30.2852L18.2833 30.5552L18.2837 30.5547L17.9882 30.2852ZM19.4516 28.6832L19.1563 28.4133H19.1563L19.4516 28.6832ZM22.5194 25.3161L22.793 25.0243L22.496 24.7457L22.2228 25.0477L22.5194 25.3161ZM25.2768 27.8873L25.0044 28.1803L25.2768 27.8873ZM26.6807 29.1936L26.9538 28.9013L26.9534 28.9009L26.6807 29.1936ZM27.3168 29.7923L27.042 30.0831L27.042 30.0831L27.3168 29.7923ZM33.5333 34.079L33.4147 34.461L33.4151 34.4611L33.5333 34.079ZM36.0936 32.0033L36.4758 31.8856L36.4758 31.8854L36.0936 32.0033ZM32.1167 26.9691L31.8513 27.2683L31.852 27.269L32.1167 26.9691ZM32.1165 26.9689L32.3819 26.6697L32.3812 26.669L32.1165 26.9689ZM31.241 26.1869L31.511 25.8917L31.5105 25.8913L31.241 26.1869ZM29.639 24.7235L29.3691 25.0187H29.3691L29.639 24.7235ZM26.012 21.4207L25.7138 21.154L25.4485 21.4507L25.7438 21.7175L26.012 21.4207ZM29.4418 17.5857L29.7399 17.8524L29.7401 17.8522L29.4418 17.5857ZM30.4563 16.4741L30.7504 16.7453L30.7532 16.7422L30.4563 16.4741ZM30.4564 16.4741L30.1623 16.2029L30.1595 16.206L30.4564 16.4741ZM34.5899 10.9294L34.2246 10.7664L34.2244 10.7669L34.5899 10.9294ZM32.6913 8.02167L32.4084 8.30452L32.6093 8.50536L32.8651 8.38193L32.6913 8.02167ZM27.8782 12.6366C29.404 10.9701 30.9536 9.28527 32.8495 8.36514L32.5002 7.64542C30.4418 8.64442 28.7906 10.4554 27.2882 12.0964L27.8782 12.6366ZM26.9513 13.6385C27.2593 13.3126 27.5684 12.975 27.8782 12.6366L27.2882 12.0964C26.9776 12.4356 26.6728 12.7685 26.3698 13.0891L26.9513 13.6385ZM22.5084 18.2979C23.9871 16.7459 25.4676 15.1932 26.95 13.64L26.3712 13.0877C24.8887 14.6411 23.4081 16.1939 21.9292 17.7461L22.5084 18.2979ZM18.2749 15.0314L21.9521 18.3202L22.4854 17.7239L18.8082 14.4351L18.2749 15.0314ZM17.1587 14.0127C17.5328 14.3577 17.9051 14.701 18.275 15.0315L18.808 14.435C18.4436 14.1093 18.076 13.7703 17.7011 13.4246L17.1587 14.0127ZM17.1566 14.0108L17.1566 14.0108L17.7032 13.4266L17.7032 13.4266L17.1566 14.0108ZM11.7227 9.95061C13.7035 10.8319 15.4482 12.4354 17.1587 14.0127L17.7011 13.4246C16.0125 11.8676 14.1711 10.1643 12.0479 9.21968L11.7227 9.95061ZM9.33774 11.31C9.20193 11.0285 9.22902 10.822 9.31963 10.655C9.42179 10.4668 9.63181 10.283 9.93444 10.1349C10.2323 9.98916 10.5858 9.89526 10.9217 9.86483C11.2643 9.83379 11.5472 9.87231 11.7223 9.95042L12.0483 9.21986C11.7023 9.06546 11.2672 9.03025 10.8495 9.0681C10.4249 9.10656 9.97558 9.22416 9.58281 9.41636C9.19475 9.60625 8.82622 9.88697 8.61649 10.2735C8.3952 10.6813 8.37707 11.1599 8.61722 11.6576L9.33774 11.31ZM9.24394 11.783L9.26033 11.7666L8.69464 11.2009L8.67825 11.2173L9.24394 11.783ZM13.5924 16.2968C11.9259 14.771 10.2411 13.2215 9.32095 11.3255L8.60123 11.6748C9.60023 13.7333 11.4112 15.3844 13.0522 16.8869L13.5924 16.2968ZM14.5943 17.2237C14.2684 16.9157 13.9308 16.6066 13.5924 16.2968L13.0522 16.8869C13.3914 17.1974 13.7243 17.5023 14.0449 17.8052L14.5943 17.2237ZM18.9965 21.4216C17.5301 20.0243 16.0632 18.6255 14.5958 17.2251L14.0435 17.8038C15.5111 19.2044 16.9781 20.6034 18.4446 22.0007L18.9965 21.4216ZM16.5806 24.5933C17.3908 23.7219 18.2001 22.8513 19.0124 21.9847L18.4287 21.4376C17.6151 22.3056 16.8047 23.1774 15.9947 24.0486L16.5806 24.5933ZM15.2741 25.9976C15.7101 25.5298 16.1455 25.0614 16.5806 24.5933L15.9947 24.0486C15.5595 24.5168 15.1244 24.9848 14.6888 25.4522L15.2741 25.9976ZM14.6734 26.6357C14.8729 26.4246 15.0742 26.2115 15.2738 25.998L14.6892 25.4519C14.4915 25.6635 14.2917 25.8749 14.092 26.0862L14.6734 26.6357ZM10.4781 32.6961C11.2231 30.2964 12.8999 28.5124 14.6734 26.6357L14.092 26.0862C12.3402 27.9399 10.523 29.8533 9.71404 32.4589L10.4781 32.6961ZM12.0539 34.7555C11.5965 34.8964 11.1465 34.6846 10.8116 34.224C10.4719 33.7566 10.3404 33.1413 10.4782 32.6956L9.71391 32.4593C9.48479 33.2002 9.7135 34.0738 10.1645 34.6943C10.6204 35.3215 11.3917 35.7966 12.2895 35.52L12.0539 34.7555ZM16.9061 30.8962C15.4515 32.544 14.0219 34.148 12.0537 34.7556L12.2897 35.52C14.5102 34.8345 16.0836 33.0367 17.5058 31.4256L16.9061 30.8962ZM16.9064 30.8958L16.9062 30.8961L17.5057 31.4257L17.5059 31.4255L16.9064 30.8958ZM16.9053 30.8971L16.9051 30.8973L17.5072 31.4241L17.5073 31.4239L16.9053 30.8971ZM17.6931 30.0152C17.4296 30.3031 17.1676 30.5999 16.9064 30.8958L17.5062 31.4252C17.7683 31.1283 18.0254 30.837 18.2833 30.5552L17.6931 30.0152ZM19.1563 28.4133C18.6685 28.9469 18.1804 29.4809 17.6926 30.0156L18.2837 30.5547C18.7711 30.0204 19.2589 29.4868 19.7468 28.9531L19.1563 28.4133ZM22.2228 25.0477C21.205 26.1725 20.1814 27.2921 19.1563 28.4133L19.7468 28.9531C20.7716 27.8322 21.7966 26.711 22.816 25.5845L22.2228 25.0477ZM25.5491 27.5944C24.6283 26.7383 23.7084 25.883 22.793 25.0243L22.2457 25.6078C23.1625 26.4679 24.0838 27.3244 25.0044 28.1803L25.5491 27.5944ZM26.9534 28.9009C26.4856 28.465 26.0172 28.0296 25.5491 27.5944L25.0044 28.1803C25.4726 28.6155 25.9406 29.0506 26.408 29.4862L26.9534 28.9009ZM27.5915 29.5016C27.3805 29.3022 27.1674 29.1008 26.9538 28.9013L26.4077 29.4859C26.6193 29.6836 26.8307 29.8833 27.042 30.0831L27.5915 29.5016ZM33.6519 33.697C31.2522 32.9519 29.4683 31.2751 27.5915 29.5016L27.042 30.0831C28.8957 31.8348 30.8091 33.652 33.4147 34.461L33.6519 33.697ZM35.7113 32.1211C35.8522 32.5785 35.6405 33.0285 35.1798 33.3634C34.7124 33.7031 34.0972 33.8347 33.6515 33.6968L33.4151 34.4611C34.156 34.6902 35.0297 34.4615 35.6501 34.0105C36.2773 33.5546 36.7524 32.7833 36.4758 31.8856L35.7113 32.1211ZM31.852 27.269C33.4998 28.7236 35.1038 30.1531 35.7114 32.1213L36.4758 31.8854C35.7903 29.6648 33.9925 28.0914 32.3814 26.6692L31.852 27.269ZM31.851 27.2681L31.8513 27.2683L32.3822 26.6699L32.3819 26.6697L31.851 27.2681ZM30.971 26.482C31.259 26.7455 31.5558 27.0075 31.8518 27.2687L32.3812 26.669C32.0843 26.4069 31.7929 26.1497 31.511 25.8917L30.971 26.482ZM29.3691 25.0187C29.9027 25.5065 30.4367 25.9946 30.9714 26.4824L31.5105 25.8913C30.9762 25.4039 30.4426 24.9161 29.9089 24.4282L29.3691 25.0187ZM25.7438 21.7175C26.956 22.8125 28.1616 23.9148 29.3691 25.0187L29.9089 24.4282C28.7017 23.3246 27.4943 22.2208 26.2801 21.1239L25.7438 21.7175ZM29.1436 17.319L25.7138 21.154L26.3101 21.6873L29.7399 17.8524L29.1436 17.319ZM30.1623 16.2029C29.8174 16.577 29.4741 16.9493 29.1435 17.3192L29.7401 17.8522C30.0657 17.4878 30.4047 17.1202 30.7504 16.7453L30.1623 16.2029ZM30.1595 16.206L30.1595 16.206L30.7532 16.7422L30.7532 16.7422L30.1595 16.206ZM34.2244 10.7669C33.3432 12.7477 31.7396 14.4924 30.1623 16.2029L30.7504 16.7452C32.3074 15.0567 34.0108 13.2153 34.9554 11.092L34.2244 10.7669ZM32.8651 8.38193C33.1466 8.24612 33.353 8.27321 33.52 8.36382C33.7083 8.46598 33.892 8.676 34.0401 8.97863C34.1859 9.27653 34.2798 9.63002 34.3102 9.96584C34.3412 10.3085 34.3027 10.5914 34.2246 10.7664L34.9552 11.0925C35.1096 10.7465 35.1448 10.3114 35.1069 9.89366C35.0685 9.46909 34.9509 9.01977 34.7587 8.627C34.5688 8.23894 34.2881 7.87041 33.9016 7.66068C33.4938 7.43939 33.0152 7.42126 32.5174 7.66141L32.8651 8.38193ZM32.392 8.28813L32.4084 8.30452L32.9741 7.73883L32.9577 7.72244L32.392 8.28813Z" fill="#0E0E0E" mask="url(#path-1-outside-1)"/>
</svg>
