<svg width="49" height="49" viewBox="0 0 49 49" fill="none" xmlns="http://www.w3.org/2000/svg">
<mask id="path-1-outside-1" maskUnits="userSpaceOnUse" x="4.2998" y="2.38" width="40" height="45" fill="black">
<rect fill="white" x="4.2998" y="2.38" width="40" height="45"/>
<path fill-rule="evenodd" clip-rule="evenodd" d="M12.044 13.3285C13.6642 12.8901 15.3362 12.8245 17.0091 12.7885C16.2706 10.7092 16.2747 8.43505 16.9185 6.30423C17.0458 5.88625 17.3435 5.27688 17.8662 5.20428C22.0309 4.61764 26.2085 4.14393 30.399 3.78315C30.6452 3.76241 30.8916 3.74136 31.1382 3.72029C32.7481 3.58275 34.3641 3.44469 35.978 3.38937C37.4369 3.33877 38.9322 3.47296 40.1639 4.29572C42.4072 5.79465 42.54 8.76013 42.6485 11.184C42.6535 11.2966 42.6585 11.408 42.6637 11.518C42.7749 13.9223 42.8684 16.3295 42.962 18.7373L42.9621 18.7387C43.1553 23.7105 43.3486 28.6849 43.6977 33.6423C43.7202 34.1001 43.5646 34.5494 43.2617 34.9017C42.9588 35.2539 42.5306 35.4835 42.0615 35.5452C40.9955 35.6474 39.9244 35.7088 38.854 35.7702C38.4959 35.7908 38.1378 35.8113 37.7801 35.8334C37.4934 35.851 37.2068 35.8758 36.9205 35.9006C36.6221 35.9265 36.3239 35.9523 36.0259 35.97C36.0274 36.0693 36.0289 36.1687 36.0305 36.2681L36.0306 36.272L36.0306 36.2756C36.0536 37.7481 36.0768 39.2283 35.9598 40.6863C35.8189 42.4529 35.2849 44.2304 33.8009 45.3787C32.417 46.4501 30.6285 46.6195 28.9173 46.5733C27.3157 46.5279 25.7129 46.4232 24.1113 46.3186C23.3837 46.2711 22.6563 46.2236 21.9294 46.1817C21.0818 46.1313 20.2337 46.0838 19.3855 46.0363L19.3843 46.0362C17.8611 45.9508 16.3371 45.8654 14.8165 45.7637C13.028 45.6449 11.2168 45.3655 9.83061 44.1776C8.5262 43.0578 7.8399 41.4101 7.35131 39.8284C6.75304 37.8157 6.30197 35.7647 6.00145 33.6907C5.3447 29.4427 5.01519 24.9571 5.61285 20.6827C6.12189 17.0529 8.36939 14.3228 12.044 13.3285ZM33.8236 36.3174C33.8457 34.6502 33.8728 32.6069 33.8986 30.6548C33.9532 26.7376 34.0024 22.8195 34.0463 18.9008C34.0478 18.7729 34.0501 18.6424 34.0525 18.51C34.0763 17.178 34.1036 15.6489 33.2623 14.5604C32.2775 13.2892 30.4835 13.357 28.9907 13.4134C28.9232 13.416 28.8563 13.4185 28.7901 13.4209C27.5038 13.4696 26.2192 13.5478 24.9374 13.6551C24.8918 13.7574 24.8363 13.8559 24.7714 13.9491C24.5619 14.25 24.2637 14.483 23.9155 14.6176C21.8402 15.4513 19.6596 15.5029 17.4739 15.5546C15.8183 15.5938 14.1597 15.6331 12.5417 16.0124C11.0441 16.3599 9.47382 17.0067 8.68981 18.3706C7.8587 19.8169 7.84111 21.6721 7.82544 23.3256C7.82375 23.5032 7.82209 23.6784 7.81945 23.8506C7.75607 27.6042 8.11805 31.3532 8.89888 35.0304C8.94307 35.24 8.98699 35.456 9.03183 35.6766C9.58884 38.416 10.2891 41.86 13.4439 42.6113C14.7213 42.9176 16.1014 42.9678 17.4495 43.0169C17.9502 43.0352 18.447 43.0532 18.932 43.0842L25.0063 43.4714C25.5582 43.5059 26.1131 43.5515 26.6693 43.5973C27.9593 43.7034 29.257 43.8101 30.5399 43.7794C32.167 43.7376 33.3714 43.247 33.6578 41.5971C33.8719 40.3625 33.852 39.0652 33.8325 37.7914C33.8248 37.2949 33.8173 36.8017 33.8236 36.3174ZM37.4901 32.6903C37 32.7053 36.5024 32.7206 36.0121 32.7655V20.5485C36.0121 20.2605 36.0154 19.9606 36.0188 19.6525C36.0569 16.2365 36.1063 11.8118 31.7329 11.265C29.8592 11.031 27.8309 11.2876 25.9118 11.5303C25.5035 11.582 25.1 11.633 24.7041 11.6786C22.7505 11.9037 20.8073 12.1984 18.8755 12.5549C18.3646 10.8443 18.2263 9.12645 18.5725 7.39518C22.7692 6.85271 26.9787 6.43479 31.2012 6.14143C31.6589 6.10953 32.1297 6.06498 32.6072 6.01979C34.1712 5.8718 35.8081 5.71691 37.2983 5.97644C39.1163 6.28883 39.9662 7.56697 40.2526 9.23888C40.4748 10.536 40.4836 11.8817 40.4923 13.2131C40.4956 13.7195 40.4989 14.2244 40.5139 14.7232L40.7048 21.2591C40.7462 22.6756 40.7976 24.0929 40.8491 25.5106C40.9337 27.8396 41.0183 30.1699 41.0583 32.4979C40.5427 32.525 40.0273 32.5566 39.512 32.5883C39.1569 32.6101 38.801 32.632 38.4459 32.6523C38.1336 32.6705 37.8132 32.6803 37.4901 32.6903ZM14.8638 24.0406C13.7795 24.0875 12.6334 24.137 11.6282 23.7956V23.7846C10.8374 23.514 11.4578 22.3657 11.9736 22.1721C12.9885 21.7899 14.1682 21.743 15.2864 21.6986C15.5327 21.6889 15.7761 21.6792 16.0141 21.6661L20.0387 21.4461C21.1029 21.3881 22.1671 21.3414 23.2322 21.2946C23.5819 21.2792 23.9316 21.2639 24.2815 21.2481C24.4683 21.24 24.6579 21.2284 24.849 21.2167C25.899 21.1526 26.9952 21.0857 27.9334 21.5715C28.5401 21.8861 28.2992 22.8518 27.7675 23.1268C26.6449 23.7057 25.4141 23.7399 24.1724 23.7743C24.0318 23.7782 23.8904 23.7821 23.7497 23.7868C23.4405 23.7975 23.1312 23.8085 22.822 23.8196C21.7951 23.8562 20.7685 23.8929 19.7433 23.9166C18.3374 23.9503 16.9299 23.9833 15.521 24.0156C15.3058 24.0216 15.086 24.031 14.8638 24.0406ZM13.3849 29.8739L18.5593 29.5549C18.9142 29.5331 19.2728 29.5166 19.6331 29.5C20.9459 29.4397 22.2813 29.3783 23.5384 29.0555C24.3451 28.8487 24.8314 27.1988 23.7406 27.0756C22.506 26.9396 21.2185 27.0867 19.9598 27.2306C19.5689 27.2752 19.1808 27.3195 18.798 27.355L13.8144 27.8192C12.8122 27.9116 12.235 29.9421 13.3849 29.8717V29.8739ZM19.1388 36.6187C17.7505 36.6425 16.3679 36.441 15.0483 36.0226H15.0461C14.2598 35.7586 14.8734 34.4386 15.5551 34.4386C15.9974 34.4365 16.4393 34.4433 16.8809 34.4501C17.7871 34.4641 18.6926 34.478 19.6002 34.4144C19.9634 34.3889 20.329 34.3357 20.6951 34.2824C21.5589 34.1567 22.4252 34.0306 23.268 34.267C24.0111 34.4716 23.4839 35.5584 23.1021 35.8202C21.9545 36.6011 20.5023 36.6187 19.1388 36.6187Z"/>
</mask>
<path fill-rule="evenodd" clip-rule="evenodd" d="M12.044 13.3285C13.6642 12.8901 15.3362 12.8245 17.0091 12.7885C16.2706 10.7092 16.2747 8.43505 16.9185 6.30423C17.0458 5.88625 17.3435 5.27688 17.8662 5.20428C22.0309 4.61764 26.2085 4.14393 30.399 3.78315C30.6452 3.76241 30.8916 3.74136 31.1382 3.72029C32.7481 3.58275 34.3641 3.44469 35.978 3.38937C37.4369 3.33877 38.9322 3.47296 40.1639 4.29572C42.4072 5.79465 42.54 8.76013 42.6485 11.184C42.6535 11.2966 42.6585 11.408 42.6637 11.518C42.7749 13.9223 42.8684 16.3295 42.962 18.7373L42.9621 18.7387C43.1553 23.7105 43.3486 28.6849 43.6977 33.6423C43.7202 34.1001 43.5646 34.5494 43.2617 34.9017C42.9588 35.2539 42.5306 35.4835 42.0615 35.5452C40.9955 35.6474 39.9244 35.7088 38.854 35.7702C38.4959 35.7908 38.1378 35.8113 37.7801 35.8334C37.4934 35.851 37.2068 35.8758 36.9205 35.9006C36.6221 35.9265 36.3239 35.9523 36.0259 35.97C36.0274 36.0693 36.0289 36.1687 36.0305 36.2681L36.0306 36.272L36.0306 36.2756C36.0536 37.7481 36.0768 39.2283 35.9598 40.6863C35.8189 42.4529 35.2849 44.2304 33.8009 45.3787C32.417 46.4501 30.6285 46.6195 28.9173 46.5733C27.3157 46.5279 25.7129 46.4232 24.1113 46.3186C23.3837 46.2711 22.6563 46.2236 21.9294 46.1817C21.0818 46.1313 20.2337 46.0838 19.3855 46.0363L19.3843 46.0362C17.8611 45.9508 16.3371 45.8654 14.8165 45.7637C13.028 45.6449 11.2168 45.3655 9.83061 44.1776C8.5262 43.0578 7.8399 41.4101 7.35131 39.8284C6.75304 37.8157 6.30197 35.7647 6.00145 33.6907C5.3447 29.4427 5.01519 24.9571 5.61285 20.6827C6.12189 17.0529 8.36939 14.3228 12.044 13.3285ZM33.8236 36.3174C33.8457 34.6502 33.8728 32.6069 33.8986 30.6548C33.9532 26.7376 34.0024 22.8195 34.0463 18.9008C34.0478 18.7729 34.0501 18.6424 34.0525 18.51C34.0763 17.178 34.1036 15.6489 33.2623 14.5604C32.2775 13.2892 30.4835 13.357 28.9907 13.4134C28.9232 13.416 28.8563 13.4185 28.7901 13.4209C27.5038 13.4696 26.2192 13.5478 24.9374 13.6551C24.8918 13.7574 24.8363 13.8559 24.7714 13.9491C24.5619 14.25 24.2637 14.483 23.9155 14.6176C21.8402 15.4513 19.6596 15.5029 17.4739 15.5546C15.8183 15.5938 14.1597 15.6331 12.5417 16.0124C11.0441 16.3599 9.47382 17.0067 8.68981 18.3706C7.8587 19.8169 7.84111 21.6721 7.82544 23.3256C7.82375 23.5032 7.82209 23.6784 7.81945 23.8506C7.75607 27.6042 8.11805 31.3532 8.89888 35.0304C8.94307 35.24 8.98699 35.456 9.03183 35.6766C9.58884 38.416 10.2891 41.86 13.4439 42.6113C14.7213 42.9176 16.1014 42.9678 17.4495 43.0169C17.9502 43.0352 18.447 43.0532 18.932 43.0842L25.0063 43.4714C25.5582 43.5059 26.1131 43.5515 26.6693 43.5973C27.9593 43.7034 29.257 43.8101 30.5399 43.7794C32.167 43.7376 33.3714 43.247 33.6578 41.5971C33.8719 40.3625 33.852 39.0652 33.8325 37.7914C33.8248 37.2949 33.8173 36.8017 33.8236 36.3174ZM37.4901 32.6903C37 32.7053 36.5024 32.7206 36.0121 32.7655V20.5485C36.0121 20.2605 36.0154 19.9606 36.0188 19.6525C36.0569 16.2365 36.1063 11.8118 31.7329 11.265C29.8592 11.031 27.8309 11.2876 25.9118 11.5303C25.5035 11.582 25.1 11.633 24.7041 11.6786C22.7505 11.9037 20.8073 12.1984 18.8755 12.5549C18.3646 10.8443 18.2263 9.12645 18.5725 7.39518C22.7692 6.85271 26.9787 6.43479 31.2012 6.14143C31.6589 6.10953 32.1297 6.06498 32.6072 6.01979C34.1712 5.8718 35.8081 5.71691 37.2983 5.97644C39.1163 6.28883 39.9662 7.56697 40.2526 9.23888C40.4748 10.536 40.4836 11.8817 40.4923 13.2131C40.4956 13.7195 40.4989 14.2244 40.5139 14.7232L40.7048 21.2591C40.7462 22.6756 40.7976 24.0929 40.8491 25.5106C40.9337 27.8396 41.0183 30.1699 41.0583 32.4979C40.5427 32.525 40.0273 32.5566 39.512 32.5883C39.1569 32.6101 38.801 32.632 38.4459 32.6523C38.1336 32.6705 37.8132 32.6803 37.4901 32.6903ZM14.8638 24.0406C13.7795 24.0875 12.6334 24.137 11.6282 23.7956V23.7846C10.8374 23.514 11.4578 22.3657 11.9736 22.1721C12.9885 21.7899 14.1682 21.743 15.2864 21.6986C15.5327 21.6889 15.7761 21.6792 16.0141 21.6661L20.0387 21.4461C21.1029 21.3881 22.1671 21.3414 23.2322 21.2946C23.5819 21.2792 23.9316 21.2639 24.2815 21.2481C24.4683 21.24 24.6579 21.2284 24.849 21.2167C25.899 21.1526 26.9952 21.0857 27.9334 21.5715C28.5401 21.8861 28.2992 22.8518 27.7675 23.1268C26.6449 23.7057 25.4141 23.7399 24.1724 23.7743C24.0318 23.7782 23.8904 23.7821 23.7497 23.7868C23.4405 23.7975 23.1312 23.8085 22.822 23.8196C21.7951 23.8562 20.7685 23.8929 19.7433 23.9166C18.3374 23.9503 16.9299 23.9833 15.521 24.0156C15.3058 24.0216 15.086 24.031 14.8638 24.0406ZM13.3849 29.8739L18.5593 29.5549C18.9142 29.5331 19.2728 29.5166 19.6331 29.5C20.9459 29.4397 22.2813 29.3783 23.5384 29.0555C24.3451 28.8487 24.8314 27.1988 23.7406 27.0756C22.506 26.9396 21.2185 27.0867 19.9598 27.2306C19.5689 27.2752 19.1808 27.3195 18.798 27.355L13.8144 27.8192C12.8122 27.9116 12.235 29.9421 13.3849 29.8717V29.8739ZM19.1388 36.6187C17.7505 36.6425 16.3679 36.441 15.0483 36.0226H15.0461C14.2598 35.7586 14.8734 34.4386 15.5551 34.4386C15.9974 34.4365 16.4393 34.4433 16.8809 34.4501C17.7871 34.4641 18.6926 34.478 19.6002 34.4144C19.9634 34.3889 20.329 34.3357 20.6951 34.2824C21.5589 34.1567 22.4252 34.0306 23.268 34.267C24.0111 34.4716 23.4839 35.5584 23.1021 35.8202C21.9545 36.6011 20.5023 36.6187 19.1388 36.6187Z" fill="#37DBFF"/>
<path fill-rule="evenodd" clip-rule="evenodd" d="M12.044 13.3285C13.6642 12.8901 15.3362 12.8245 17.0091 12.7885C16.2706 10.7092 16.2747 8.43505 16.9185 6.30423C17.0458 5.88625 17.3435 5.27688 17.8662 5.20428C22.0309 4.61764 26.2085 4.14393 30.399 3.78315C30.6452 3.76241 30.8916 3.74136 31.1382 3.72029C32.7481 3.58275 34.3641 3.44469 35.978 3.38937C37.4369 3.33877 38.9322 3.47296 40.1639 4.29572C42.4072 5.79465 42.54 8.76013 42.6485 11.184C42.6535 11.2966 42.6585 11.408 42.6637 11.518C42.7749 13.9223 42.8684 16.3295 42.962 18.7373L42.9621 18.7387C43.1553 23.7105 43.3486 28.6849 43.6977 33.6423C43.7202 34.1001 43.5646 34.5494 43.2617 34.9017C42.9588 35.2539 42.5306 35.4835 42.0615 35.5452C40.9955 35.6474 39.9244 35.7088 38.854 35.7702C38.4959 35.7908 38.1378 35.8113 37.7801 35.8334C37.4934 35.851 37.2068 35.8758 36.9205 35.9006C36.6221 35.9265 36.3239 35.9523 36.0259 35.97C36.0274 36.0693 36.0289 36.1687 36.0305 36.2681L36.0306 36.272L36.0306 36.2756C36.0536 37.7481 36.0768 39.2283 35.9598 40.6863C35.8189 42.4529 35.2849 44.2304 33.8009 45.3787C32.417 46.4501 30.6285 46.6195 28.9173 46.5733C27.3157 46.5279 25.7129 46.4232 24.1113 46.3186C23.3837 46.2711 22.6563 46.2236 21.9294 46.1817C21.0818 46.1313 20.2337 46.0838 19.3855 46.0363L19.3843 46.0362C17.8611 45.9508 16.3371 45.8654 14.8165 45.7637C13.028 45.6449 11.2168 45.3655 9.83061 44.1776C8.5262 43.0578 7.8399 41.4101 7.35131 39.8284C6.75304 37.8157 6.30197 35.7647 6.00145 33.6907C5.3447 29.4427 5.01519 24.9571 5.61285 20.6827C6.12189 17.0529 8.36939 14.3228 12.044 13.3285ZM33.8236 36.3174C33.8457 34.6502 33.8728 32.6069 33.8986 30.6548C33.9532 26.7376 34.0024 22.8195 34.0463 18.9008C34.0478 18.7729 34.0501 18.6424 34.0525 18.51C34.0763 17.178 34.1036 15.6489 33.2623 14.5604C32.2775 13.2892 30.4835 13.357 28.9907 13.4134C28.9232 13.416 28.8563 13.4185 28.7901 13.4209C27.5038 13.4696 26.2192 13.5478 24.9374 13.6551C24.8918 13.7574 24.8363 13.8559 24.7714 13.9491C24.5619 14.25 24.2637 14.483 23.9155 14.6176C21.8402 15.4513 19.6596 15.5029 17.4739 15.5546C15.8183 15.5938 14.1597 15.6331 12.5417 16.0124C11.0441 16.3599 9.47382 17.0067 8.68981 18.3706C7.8587 19.8169 7.84111 21.6721 7.82544 23.3256C7.82375 23.5032 7.82209 23.6784 7.81945 23.8506C7.75607 27.6042 8.11805 31.3532 8.89888 35.0304C8.94307 35.24 8.98699 35.456 9.03183 35.6766C9.58884 38.416 10.2891 41.86 13.4439 42.6113C14.7213 42.9176 16.1014 42.9678 17.4495 43.0169C17.9502 43.0352 18.447 43.0532 18.932 43.0842L25.0063 43.4714C25.5582 43.5059 26.1131 43.5515 26.6693 43.5973C27.9593 43.7034 29.257 43.8101 30.5399 43.7794C32.167 43.7376 33.3714 43.247 33.6578 41.5971C33.8719 40.3625 33.852 39.0652 33.8325 37.7914C33.8248 37.2949 33.8173 36.8017 33.8236 36.3174ZM37.4901 32.6903C37 32.7053 36.5024 32.7206 36.0121 32.7655V20.5485C36.0121 20.2605 36.0154 19.9606 36.0188 19.6525C36.0569 16.2365 36.1063 11.8118 31.7329 11.265C29.8592 11.031 27.8309 11.2876 25.9118 11.5303C25.5035 11.582 25.1 11.633 24.7041 11.6786C22.7505 11.9037 20.8073 12.1984 18.8755 12.5549C18.3646 10.8443 18.2263 9.12645 18.5725 7.39518C22.7692 6.85271 26.9787 6.43479 31.2012 6.14143C31.6589 6.10953 32.1297 6.06498 32.6072 6.01979C34.1712 5.8718 35.8081 5.71691 37.2983 5.97644C39.1163 6.28883 39.9662 7.56697 40.2526 9.23888C40.4748 10.536 40.4836 11.8817 40.4923 13.2131C40.4956 13.7195 40.4989 14.2244 40.5139 14.7232L40.7048 21.2591C40.7462 22.6756 40.7976 24.0929 40.8491 25.5106C40.9337 27.8396 41.0183 30.1699 41.0583 32.4979C40.5427 32.525 40.0273 32.5566 39.512 32.5883C39.1569 32.6101 38.801 32.632 38.4459 32.6523C38.1336 32.6705 37.8132 32.6803 37.4901 32.6903ZM14.8638 24.0406C13.7795 24.0875 12.6334 24.137 11.6282 23.7956V23.7846C10.8374 23.514 11.4578 22.3657 11.9736 22.1721C12.9885 21.7899 14.1682 21.743 15.2864 21.6986C15.5327 21.6889 15.7761 21.6792 16.0141 21.6661L20.0387 21.4461C21.1029 21.3881 22.1671 21.3414 23.2322 21.2946C23.5819 21.2792 23.9316 21.2639 24.2815 21.2481C24.4683 21.24 24.6579 21.2284 24.849 21.2167C25.899 21.1526 26.9952 21.0857 27.9334 21.5715C28.5401 21.8861 28.2992 22.8518 27.7675 23.1268C26.6449 23.7057 25.4141 23.7399 24.1724 23.7743C24.0318 23.7782 23.8904 23.7821 23.7497 23.7868C23.4405 23.7975 23.1312 23.8085 22.822 23.8196C21.7951 23.8562 20.7685 23.8929 19.7433 23.9166C18.3374 23.9503 16.9299 23.9833 15.521 24.0156C15.3058 24.0216 15.086 24.031 14.8638 24.0406ZM13.3849 29.8739L18.5593 29.5549C18.9142 29.5331 19.2728 29.5166 19.6331 29.5C20.9459 29.4397 22.2813 29.3783 23.5384 29.0555C24.3451 28.8487 24.8314 27.1988 23.7406 27.0756C22.506 26.9396 21.2185 27.0867 19.9598 27.2306C19.5689 27.2752 19.1808 27.3195 18.798 27.355L13.8144 27.8192C12.8122 27.9116 12.235 29.9421 13.3849 29.8717V29.8739ZM19.1388 36.6187C17.7505 36.6425 16.3679 36.441 15.0483 36.0226H15.0461C14.2598 35.7586 14.8734 34.4386 15.5551 34.4386C15.9974 34.4365 16.4393 34.4433 16.8809 34.4501C17.7871 34.4641 18.6926 34.478 19.6002 34.4144C19.9634 34.3889 20.329 34.3357 20.6951 34.2824C21.5589 34.1567 22.4252 34.0306 23.268 34.267C24.0111 34.4716 23.4839 35.5584 23.1021 35.8202C21.9545 36.6011 20.5023 36.6187 19.1388 36.6187Z" stroke="#37DBFF" stroke-width="0.8" mask="url(#path-1-outside-1)"/>
</svg>
