<svg width="752" height="698" viewBox="0 0 752 698" fill="none" xmlns="http://www.w3.org/2000/svg">
<path d="M559 246.412C559 385.709 463.052 552.174 321.092 552.174C179.133 552.174 0 330.398 0 191.1C0 51.8026 209.911 9.23584 351.871 9.23584C493.83 9.23584 559 107.114 559 246.412Z" fill="#37DBFF"/>
<path d="M151.255 450.135C87.9251 404.358 35.9451 335.809 20.8351 254.433C12.9551 211.998 18.1751 168.787 40.8351 132.378C61.0951 99.8763 91.1151 75.3163 123.685 58.1339C167.685 34.8941 216.405 24.4824 263.945 12.6975C269.275 11.3774 270.625 -0.535295 263.865 0.827372C181.925 17.2433 92.3251 41.058 39.5251 115.802C14.5251 151.136 3.65506 194.337 7.89506 238.293C12.1351 282.25 28.7451 325.206 51.8951 361.86C76.4251 400.706 109.175 434.177 148.195 456.033C150.715 457.449 153.435 451.774 151.195 450.146L151.255 450.135Z" fill="#0E0E0E"/>
<path d="M80.8955 315.273C63.3755 290.533 62.1455 256.615 72.8955 228.499C84.4555 198.191 107.445 174.653 130.895 154.404C180.715 111.321 238.896 80.5649 298.086 54.9723C314.936 47.6906 331.925 40.7495 348.965 33.9787C366.005 27.208 383.206 21.0973 399.445 12.6871C402.736 10.9731 403.445 2.52031 398.445 3.73394C382.105 7.73677 366.205 14.3159 350.495 20.4692C334.495 26.7183 318.585 33.1484 302.805 39.9404C271.465 53.4393 240.535 68.1518 210.805 85.281C181.369 102.019 153.45 121.62 127.405 143.833C102.406 165.359 78.7255 190.504 66.1355 222.612C53.6555 254.39 54.0355 294.269 76.4855 320.948C78.8355 323.737 82.7255 317.754 80.9755 315.305L80.8955 315.273Z" fill="#0E0E0E"/>
<path d="M117.285 304.362C114.175 247.705 163.485 215.203 193.785 177.069C196.375 173.812 193.425 167.69 189.705 171.363C154.935 205.675 102.025 248.535 113.025 306.31C113.655 309.664 117.425 306.747 117.285 304.362Z" fill="#0E0E0E"/>
<path d="M707.385 246.8C703.466 240.834 698.382 231.617 693.001 221.843C682.712 203.182 671.053 182.034 657.91 165.071C649.766 154.606 641.928 146.853 634.028 141.492C625.322 135.599 617.285 133.167 610.398 132.515C608.244 130.712 606.227 128.973 604.248 127.266C596.006 120.15 587.505 112.775 573.365 104.958C538.806 85.8144 487.398 75.0509 446.69 102.294C444.513 103.751 442.641 105.119 441.027 106.375C438.828 105.466 436.461 104.459 434.467 103.59C429.071 101.271 423.493 98.8723 418.249 97.0045C412.732 95.0402 406.94 95.0161 398.279 96.916C394.539 97.7131 390.852 98.7728 387.244 100.088C373.287 105.578 346.559 120.496 334.253 140.912C306.642 137.217 273.468 135.277 254.937 156.763C247.616 165.24 240.028 180.504 245.424 205.066C246.576 210.008 248.259 214.794 250.439 219.332C251.839 222.351 249.762 232.068 248.384 238.5C247.791 241.285 247.174 244.175 246.634 247.13C242.189 270.806 245.591 296.326 256.2 319.013C257.677 322.163 259.27 325.217 260.98 328.174C252.432 329.164 243.982 330.945 235.728 333.496L231.733 334.679C211.42 340.765 197.615 346.658 177.166 377.161C163.018 398.294 160.111 420.779 169.22 438.739C178.597 457.256 198.833 467.431 224.777 466.626C225.106 466.626 225.434 466.61 225.758 466.578C249.861 464.775 258.871 459.542 266.695 453.882C267.228 453.488 267.966 452.957 268.156 452.844C268.461 452.715 270.592 451.878 278.21 451.548C288.301 471.32 307.434 487.413 327.951 491.921C332.624 492.951 346.848 496.075 352.526 506.822C362.366 525.459 349.481 563.015 341.833 585.443C340.889 588.181 340.006 590.789 339.192 593.22C335.904 603.09 334.55 612.461 335.166 621.091C336.171 635.22 342.563 647.295 353.165 655.096L353.401 655.273C366.08 664.644 381.019 670.151 449.444 654.742C450.013 656.068 450.648 657.36 451.347 658.614C454.006 663.501 457.745 667.633 462.243 670.657C466.742 673.681 471.866 675.507 477.177 675.979C477.938 676.044 478.737 676.084 479.521 676.084C488.22 676.084 497.542 671.753 515.503 659.685C527.398 651.691 543.053 640.179 560.77 626.388C595.633 599.258 634.469 566.533 662.133 540.997C662.354 540.796 662.575 540.578 662.788 540.369L664.059 539.105C674.714 528.502 684.774 518.488 692.354 507.644C702.865 492.589 707.271 477.688 705.81 462.078C705.726 461.16 705.635 460.58 705.429 459.317C703.283 445.84 701.807 433.668 701.114 424.136C724.334 411.827 734.798 393.689 739.501 379.407C756.092 329.132 722.545 269.929 707.385 246.8Z" fill="white"/>
<path d="M351.483 269.97C351.483 269.921 351.544 269.921 351.59 269.97H351.483Z" fill="#0E0E0E"/>
<path d="M317.845 369.426C317.845 369.426 338.865 361.271 312.784 347.126C286.703 332.982 245.767 297.608 271.566 201.147C271.566 201.147 262.928 149.028 323.599 163.044C339.809 166.788 349.847 168.39 356.034 168.985C358.685 169.245 361.355 168.808 363.808 167.713C366.26 166.617 368.419 164.897 370.091 162.706C379.908 149.825 396.872 138.917 431.56 141.847C453.798 143.731 471.896 124.772 474.887 122.526C481.287 117.76 496.515 113.872 504.339 113.67C523.304 113.276 552.627 118.646 581.965 147.482C585.476 151.028 589.299 154.212 593.381 156.99C594.895 157.934 596.673 158.289 598.408 157.996C600.143 157.702 601.727 156.777 602.887 155.38C605.17 152.788 618.45 158.818 625.018 165.041C636.958 176.311 646.943 206.678 673.1 235.933C697.964 263.74 736.632 369 693.778 389.947C664.858 404.076 663.336 416.401 667.902 425.417C678.61 446.558 648.115 449.086 666.38 479.951C684.645 510.817 622.065 518.771 622.065 518.771L568.031 552.969L373.584 606.835C373.584 606.835 356.917 610.675 367.244 569.61C375.296 537.601 382.663 509.505 379.421 495.344C378.599 491.745 361.285 467.481 357.785 467.368C340.608 466.781 291.254 474.292 291.254 417.158C291.277 383.201 317.845 369.426 317.845 369.426Z" fill="#F1A33A"/>
<path d="M690.536 257.42C670.544 226.965 636.023 144.648 603.191 151.612C586.981 139.013 580.291 130.407 561.935 120.239C536.295 106.006 491.363 93.1252 456.508 116.472C443.821 124.965 445.952 128.306 439.422 126.688C431.865 124.804 417.352 117.534 406.583 113.694C404.003 112.776 393.645 115.562 391.096 116.576C375.784 122.614 352.07 137.95 346.849 152.167C344.954 157.32 344.718 157.038 349.132 163.132C319.657 159.864 249.625 142.354 261.026 194.127C261.784 197.285 262.885 200.34 264.306 203.232C270.691 217.014 265.067 233.51 262.434 248.025C255.25 286.224 274.694 329.995 309.071 345.508C298.956 348.994 289.542 350.918 269.496 350.91C257.542 350.917 245.65 352.723 234.176 356.271C215.333 362.076 206.238 362.889 187.258 391.194C167.927 419.975 180.682 443.249 215.455 442.178C260.25 438.837 230.432 424.813 287.891 426.778C287.13 426.778 288.157 428.299 288.317 429.056C292.016 447.161 309.664 464.848 326.81 468.616C402.763 485.305 369.429 566.88 356.347 606.191C352.625 617.341 350.814 631.952 361.598 639.858C367.602 644.269 376.058 651.982 465.1 629.762C466.363 629.432 467.634 629.078 468.905 628.724C464.4 639.503 466.622 655.83 476.706 656.707C489.56 657.826 591.243 577.257 648.169 524.679C669.478 503.491 686.67 486.842 684.699 465.766C684.638 465.074 678.086 426.834 679.524 406.997C750.004 384.553 722.492 306.101 690.536 257.42ZM537.095 127.267C553.137 135.519 566.448 149.712 583.062 156.056C600.04 163.301 589.706 174.983 591.844 190.576C588.8 190.246 577.384 184.434 575.763 187.243C588.29 165.33 478.837 137.218 465.199 130.157C488.966 128.797 513.457 114.314 537.095 127.267ZM273.438 239.298C273.609 250.563 276.212 261.639 281.049 271.677C279.474 276.604 279.184 284.678 280.509 296.802C280.58 297.455 280.43 298.113 280.085 298.66C279.74 299.206 279.222 299.605 278.625 299.785C278.028 299.965 277.39 299.914 276.824 299.642C276.259 299.37 275.803 298.894 275.539 298.3C267.502 280.178 264.93 254.795 273.438 239.298ZM631.685 453.481C630.592 456.779 629.342 460.017 627.94 463.182C627.179 464.937 626.289 466.643 625.376 468.318C618.397 481.199 608.633 492.091 597.468 501.035C538.67 547.978 463.174 570.946 389.665 564.175C392.245 546.585 393.942 529.558 394.231 515.671C394.467 505.922 397.799 496.541 403.69 489.04C409.581 481.539 417.688 476.355 426.705 474.324C466.279 465.347 508.137 458.891 465.184 504.915C463.333 506.985 461.319 508.884 459.164 510.591C455.267 513.546 453.836 523.408 460.526 520.88C481.112 512.419 510.45 493.919 502.794 469.276C500.564 462.095 495.503 456.347 489.24 452.716C455.754 433.347 410.708 459.285 373.904 455.791C354.718 456.596 276.209 428.533 329.619 418.759C376.682 414.235 499.857 454.028 521.014 402.876C530.907 376.486 521.95 347.529 487.223 322.733C478.311 316.365 454.826 301.351 466.728 289.485C480.427 275.799 461.713 280.049 453.715 291.634C451.256 295.2 445.48 311.084 465.465 325.261C506.364 354.243 501.234 371.334 498.951 388.497C476.12 335.767 429.985 334.559 383.074 331.87C356.347 330.325 314.664 275.517 293.271 266.589C293.096 265.929 284.611 247.558 284.428 237.768C284.361 234.513 284.575 231.258 285.067 228.043C287.953 226.716 291.026 225.9 294.162 225.628C319.048 221.418 368.942 202.443 341.704 173.058C369.437 185.295 398.935 183.725 426.713 171.4C391.027 216.467 460.092 256.445 506.47 256.035C519.881 255.782 532.67 250.005 542.117 239.934C547.905 233.826 553.36 227.375 558.457 220.613C619.904 205.478 547.856 320.728 551.729 371.535C554.157 403.326 574.918 448.321 606.525 438.821C612.386 436.985 617.405 432.934 620.627 427.438L621.624 425.828C622.397 424.537 623.531 423.533 624.868 422.955C626.206 422.377 627.68 422.254 629.086 422.603C630.493 422.952 631.762 423.755 632.717 424.901C633.672 426.047 634.266 427.48 634.417 428.999V429.346C635.232 437.506 634.298 445.755 631.685 453.481ZM645.383 399.841C636.48 400.907 628.063 404.692 621.159 410.733C609.12 421.351 604.416 429.072 594.645 395.437C583.229 345.58 612.643 298.67 612.91 249.152C618.633 280.339 617.522 312.614 611.007 343.672C609.485 350.958 617.857 347.843 619.264 342.956C630.026 305.344 629.851 264.786 619.478 227.166C617.414 220.129 614.871 213.26 611.867 206.613C604.721 190.093 609.668 151.87 627.438 177.961C669.334 251.076 788.734 382.017 645.368 399.849L645.383 399.841Z" fill="#0E0E0E"/>
<path d="M542.406 206.178C540.998 202.764 537.68 203.159 535.306 205.332C513.274 225.596 484.567 225.306 460.724 208.553C456.812 205.807 451.332 215.613 454.3 218.729C477.687 243.227 516.173 241.198 538.928 216.668C541.219 214.212 543.906 209.857 542.406 206.178Z" fill="white"/>
<path d="M393.585 151.249C388.768 150.613 383.95 151.008 379.209 149.72C374.97 148.569 370.54 144.769 366.164 145.694C364.46 146.041 363.12 148.585 363.288 150.291C363.851 156.265 369.726 159.493 374.703 161.184C380.792 163.253 386.637 163.309 392.345 160.226C394.544 159.002 397.893 151.821 393.585 151.249Z" fill="white"/>
<path d="M340.357 353.695C340.357 353.695 352.534 353.872 362.199 351.811C372.854 349.541 391.515 347.576 401.127 357.044C419.498 375.133 447.513 360.723 461.432 384.174C475.352 407.625 422.253 416.585 370.244 402.175C314.627 386.75 309.604 390.993 276.529 406.289C245.706 420.562 232.594 424.909 212.959 424.241C193.324 423.573 180.652 414.581 197.121 397.675C213.59 380.769 211.688 377.677 231.323 372.163C250.958 366.648 254.542 359.056 279.999 357.044C296.308 355.756 303.203 356.955 315.723 353.952C322.686 352.222 340.357 353.695 340.357 353.695Z" fill="#FF5C9E"/>
<path d="M429.293 360.071C427.124 360.071 424.97 360.208 422.824 360.409C422.542 358.96 421.149 357.849 418.09 357.656C413.128 357.344 408.176 357.218 403.234 357.277C405.028 355.444 406.379 353.183 407.177 350.684C407.71 349.079 407.91 347.371 407.763 345.676C407.616 343.982 407.125 342.341 406.324 340.866C405.523 339.39 404.43 338.115 403.121 337.126C401.812 336.138 400.316 335.46 398.737 335.138C395.198 334.39 390.403 335.219 388.082 338.511C386.21 341.176 386.461 344.904 390.114 345.676C395.495 346.82 390.761 353.212 388.333 354.484C385.905 355.756 382.869 356.367 380.236 357.068C374.355 358.542 368.402 359.676 362.404 360.465C353.888 361.705 345.327 362.623 336.765 363.476C325.208 363.418 313.669 364.415 302.274 366.455C298.393 367.147 294.382 367.823 290.318 368.556C276.977 370.569 263.758 373.652 251.756 379.344C251.551 379.44 251.353 379.545 251.147 379.633C250.386 380.02 249.549 380.438 248.765 380.817C247.502 381.469 246.254 382.137 245.044 382.862C241.071 385.188 240.478 387.933 241.665 389.922C243.187 392.49 247.692 393.802 251.81 391.363C252.571 390.896 253.408 390.453 254.222 390.018C263.164 385.317 273.621 382.773 283.72 380.801C287.358 380.157 290.988 379.609 294.58 379.086C308.66 377.049 322.83 375.801 336.978 374.36C338.021 374.417 339.063 374.449 340.106 374.537C351.765 375.536 363.363 377.492 375.114 377.685C386.971 377.87 398.379 375.415 410 373.241C422.177 370.971 432.831 370.472 445.214 374.046C459.506 378.208 468.54 387.893 461.591 403.785C458.121 411.723 473.403 410.781 476.051 404.775C490.488 371.671 453.676 360.071 429.293 360.071Z" fill="#0E0E0E"/>
</svg>
