<svg width="215" height="82" viewBox="0 0 215 82" fill="none" xmlns="http://www.w3.org/2000/svg">
<path d="M101.027 35.2784C101.755 35.0606 102.483 34.9518 103.211 34.9518C104.485 34.9518 105.546 35.154 106.396 35.5583C107.245 35.9316 107.761 36.4914 107.943 37.2379C108.277 38.5132 108.58 39.7107 108.853 40.8305C109.156 41.9191 109.444 42.9767 109.718 44.0031C109.991 44.9984 110.248 45.9938 110.491 46.9891C110.764 47.9844 111.022 49.0264 111.265 50.1151H111.492C111.765 48.2177 112.008 46.4137 112.22 44.7029C112.432 42.9611 112.63 41.2659 112.812 39.6174C112.994 37.9378 113.176 36.2893 113.358 34.6718C113.737 31.232 113.44 28.6998 117.498 28.6998C118.621 28.6998 119.591 28.9487 120.411 29.4463C121.23 29.944 121.639 30.7838 121.639 31.9658C121.639 32.6501 121.563 33.6298 121.412 34.9051C121.29 36.1493 121.108 37.549 120.866 39.1042C120.653 40.6594 120.395 42.2924 120.092 44.0031C119.789 45.7138 119.47 47.3468 119.136 48.902C118.803 50.4572 118.454 51.8725 118.09 53.1477C117.504 55.3332 117.153 56.5034 114.905 57.1135C113.873 57.3935 112.812 57.5334 111.72 57.5334C110.294 57.5334 109.08 57.3468 108.079 56.9735C107.109 56.5692 106.517 56.0093 106.305 55.2939C105.911 54.0498 105.486 52.5723 105.031 50.8616C104.576 49.1508 104.09 47.269 103.575 45.2162C103.15 47.2379 102.71 49.2131 102.255 51.1415C101.646 53.722 101.707 56.2743 98.979 57.1135C98.069 57.3935 97.0679 57.5334 95.9759 57.5334C94.6108 57.5334 93.3671 57.3468 92.2447 56.9735C91.1527 56.5692 90.4398 56.0093 90.1061 55.2939C89.8331 54.734 89.5297 53.9098 89.1961 52.8211C88.8927 51.7014 88.5742 50.4417 88.2405 49.042C87.9068 47.6112 87.558 46.0715 87.194 44.423C86.8603 42.7745 86.5418 41.126 86.2384 39.4774C85.9654 37.8289 85.7076 36.227 85.4649 34.6718C85.0865 32.1987 84.2048 30.3358 86.6934 29.2131C87.4518 28.8709 88.2709 28.6998 89.1506 28.6998C90.3033 28.6998 91.2437 28.9642 91.9717 29.493C92.7301 29.9907 93.2002 30.846 93.3823 32.0591C93.8676 35.2317 94.262 37.8756 94.5653 39.9907C94.899 42.1057 95.1568 43.8476 95.3388 45.2162C95.5512 46.5536 95.7029 47.5956 95.7939 48.3421C95.8849 49.0886 95.9759 49.6796 96.0669 50.1151H96.2944C96.5674 48.8709 96.8252 47.7201 97.0679 46.6625C97.3106 45.605 97.5533 44.5474 97.796 43.4899C98.4002 41.0806 98.3227 36.0016 101.027 35.2784Z" fill="#0E0E0E"/>
<path d="M124.228 42.9767C124.228 40.5505 124.592 38.4044 125.32 36.5381C126.078 34.6719 127.094 33.1166 128.368 31.8725C129.673 30.5972 131.189 29.633 132.919 28.9798C134.678 28.3266 136.574 28 138.606 28C140.639 28 142.519 28.3266 144.249 28.9798C146.008 29.633 147.54 30.5972 148.844 31.8725C150.149 33.1166 151.165 34.6719 151.893 36.5381C152.651 38.4044 153.03 40.5505 153.03 42.9767C153.03 45.4028 152.666 47.5645 151.938 49.4619C151.21 51.3281 150.194 52.8989 148.89 54.1742C147.616 55.4184 146.099 56.367 144.34 57.0202C142.58 57.6734 140.669 58 138.606 58C136.544 58 134.632 57.6734 132.873 57.0202C131.114 56.3359 129.597 55.3561 128.323 54.0809C127.049 52.8056 126.048 51.2348 125.32 49.3686C124.592 47.5023 124.228 45.3717 124.228 42.9767ZM132.418 42.9767C132.418 45.8072 132.979 47.9222 134.102 49.3219C135.224 50.7216 136.726 51.4215 138.606 51.4215C140.517 51.4215 142.034 50.7216 143.156 49.3219C144.279 47.9222 144.84 45.8072 144.84 42.9767C144.84 40.1773 144.279 38.0778 143.156 36.6781C142.064 35.2784 140.563 34.5785 138.652 34.5785C136.771 34.5785 135.254 35.2784 134.102 36.6781C132.979 38.0467 132.418 40.1462 132.418 42.9767Z" fill="#0E0E0E"/>
<path d="M155.952 42.9767C155.952 40.5505 156.316 38.4044 157.044 36.5381C157.802 34.6719 158.819 33.1166 160.093 31.8725C161.397 30.5972 162.914 29.633 164.643 28.9798C166.402 28.3266 168.298 28 170.331 28C172.363 28 174.244 28.3266 175.973 28.9798C177.732 29.633 179.264 30.5972 180.569 31.8725C181.873 33.1166 182.889 34.6719 183.617 36.5381C184.376 38.4044 184.755 40.5505 184.755 42.9767C184.755 45.4028 184.391 47.5645 183.663 49.4619C182.935 51.3281 181.918 52.8989 180.614 54.1742C179.34 55.4184 177.823 56.367 176.064 57.0202C174.304 57.6734 172.393 58 170.331 58C168.268 58 166.357 57.6734 164.597 57.0202C162.838 56.3359 161.321 55.3561 160.047 54.0809C158.773 52.8056 157.772 51.2348 157.044 49.3686C156.316 47.5023 155.952 45.3717 155.952 42.9767ZM164.142 42.9767C164.142 45.8072 164.703 47.9222 165.826 49.3219C166.948 50.7216 168.45 51.4215 170.331 51.4215C172.242 51.4215 173.758 50.7216 174.881 49.3219C176.003 47.9222 176.564 45.8072 176.564 42.9767C176.564 40.1773 176.003 38.0778 174.881 36.6781C173.789 35.2784 172.287 34.5785 170.376 34.5785C168.495 34.5785 166.979 35.2784 165.826 36.6781C164.703 38.0467 164.142 40.1462 164.142 42.9767Z" fill="#0E0E0E"/>
<path d="M207.645 28.8865C210.089 29.701 208.671 33.667 207.691 34.6718C207.206 35.1695 206.538 35.4184 205.689 35.4184H196.133V40.6905C198.612 40.6905 205.895 39.1078 206.69 42.0435C206.872 42.6034 206.963 43.1944 206.963 43.8165C206.963 44.9984 206.705 45.8538 206.189 46.3826C205.704 46.8802 205.037 47.1291 204.187 47.1291H196.224C196.224 49.9169 197.879 56.8373 194.632 57.2535C193.934 57.3468 193.236 57.3935 192.539 57.3935C191.841 57.3935 191.219 57.3313 190.673 57.2068C190.157 57.1135 189.718 56.9269 189.354 56.647C188.99 56.367 188.717 55.9782 188.535 55.4806C188.353 54.9829 188.262 54.3297 188.262 53.521V33.2255C188.262 31.888 188.641 30.8305 189.399 30.0529C190.157 29.2753 191.189 28.8865 192.493 28.8865C192.493 28.8865 205.202 28.0719 207.645 28.8865Z" fill="#0E0E0E"/>
<path d="M71.9093 26.495C71.4621 25.8527 70.8821 24.8602 70.2682 23.8079C69.0942 21.7985 67.764 19.5214 66.2644 17.6949C65.3354 16.5681 64.441 15.7333 63.5397 15.156C62.5464 14.5215 61.6294 14.2597 60.8436 14.1895C60.5979 13.9953 60.3678 13.8081 60.142 13.6243C59.2016 12.858 58.2318 12.064 56.6184 11.2223C52.6755 9.16097 46.8101 8.00202 42.1655 10.9354C41.9172 11.0923 41.7036 11.2396 41.5195 11.3749C41.2685 11.2769 40.9985 11.1686 40.771 11.0749C40.1554 10.8253 39.5189 10.567 38.9206 10.3659C38.2911 10.1544 37.6303 10.1518 36.6422 10.3563C36.2154 10.4422 35.7948 10.5563 35.3832 10.6979C33.7907 11.289 30.7412 12.8953 29.3372 15.0936C26.1869 14.6957 22.402 14.4868 20.2877 16.8004C19.4524 17.7132 18.5867 19.3567 19.2023 22.0014C19.3337 22.5335 19.5257 23.0489 19.7745 23.5374C19.9343 23.8625 19.6972 24.9087 19.5401 25.6013C19.4723 25.9013 19.402 26.2125 19.3404 26.5306C18.8333 29.0799 19.2214 31.8278 20.4318 34.2705C20.6003 34.6098 20.782 34.9386 20.9771 35.257C20.0018 35.3636 19.0378 35.5553 18.0961 35.83L17.6402 35.9574C15.3227 36.6127 13.7476 37.2472 11.4145 40.5317C9.80029 42.8071 9.4686 45.2282 10.508 47.1621C11.5777 49.1558 13.8865 50.2515 16.8466 50.1648C16.8842 50.1648 16.9216 50.1631 16.9586 50.1596C19.7085 49.9654 20.7366 49.402 21.6292 48.7926C21.69 48.7501 21.7742 48.6929 21.7959 48.6808C21.8307 48.6669 22.0738 48.5767 22.943 48.5412C24.0943 50.6702 26.2773 52.403 28.6182 52.8884C29.1513 52.9993 30.7742 53.3357 31.422 54.4929C32.5447 56.4996 31.0746 60.5434 30.202 62.9584C30.0943 63.2531 29.9936 63.534 29.9007 63.7957C29.5256 64.8585 29.371 65.8675 29.4414 66.7967C29.556 68.318 30.2853 69.6183 31.4949 70.4582L31.5218 70.4773C32.9684 71.4863 34.6729 72.0792 42.4798 70.4201C42.5447 70.5628 42.6172 70.702 42.6969 70.837C43.0003 71.3632 43.4269 71.8081 43.9401 72.1337C44.4533 72.4593 45.038 72.656 45.6439 72.7068C45.7308 72.7137 45.8219 72.7181 45.9114 72.7181C46.9038 72.7181 47.9675 72.2517 50.0167 70.9523C51.3739 70.0916 53.16 68.852 55.1814 67.3671C59.1591 64.4459 63.5901 60.9222 66.7463 58.1726C66.7715 58.1509 66.7967 58.1275 66.821 58.105L66.966 57.9689C68.1817 56.8273 69.3296 55.7489 70.1944 54.5813C71.3935 52.9603 71.8963 51.3558 71.7296 49.675C71.72 49.5762 71.7096 49.5138 71.6861 49.3777C71.4413 47.9266 71.2728 46.616 71.1938 45.5896C73.843 44.2643 75.0369 42.3113 75.5735 40.7735C77.4665 35.3601 73.639 28.9855 71.9093 26.495Z" fill="white"/>
<path d="M31.3027 28.9897C31.3027 28.9845 31.3097 28.9845 31.3149 28.9897H31.3027Z" fill="#0E0E0E"/>
<path d="M27.4648 39.6987C27.4648 39.6987 29.863 38.8206 26.8873 37.2976C23.9117 35.7746 19.241 31.9657 22.1846 21.5793C22.1846 21.5793 21.1991 15.9674 28.1212 17.4766C29.9707 17.8797 31.116 18.0522 31.8219 18.1163C32.1243 18.1443 32.429 18.0972 32.7088 17.9793C32.9886 17.8613 33.2349 17.6761 33.4257 17.4402C34.5458 16.0533 36.4812 14.8787 40.439 15.1942C42.9762 15.3971 45.041 13.3557 45.3822 13.1138C46.1125 12.6007 47.8499 12.182 48.7426 12.1603C50.9064 12.1178 54.252 12.696 57.5993 15.801C57.9998 16.1828 58.436 16.5256 58.9017 16.8247C59.0745 16.9264 59.2773 16.9647 59.4753 16.933C59.6732 16.9014 59.8539 16.8018 59.9862 16.6514C60.2467 16.3723 61.7619 17.0215 62.5113 17.6916C63.8736 18.9051 65.0129 22.1748 67.9972 25.3249C70.834 28.319 75.2458 39.6528 70.3564 41.9083C67.0568 43.4296 66.8832 44.7567 67.4042 45.7276C68.6259 48.0039 65.1466 48.2761 67.2305 51.5995C69.3144 54.9229 62.1744 55.7794 62.1744 55.7794L56.0094 59.4617L33.8242 65.2617C33.8242 65.2617 31.9226 65.6751 33.1009 61.2534C34.0196 57.8069 34.8601 54.7816 34.4902 53.2569C34.3964 52.8694 32.421 50.2568 32.0216 50.2446C30.0619 50.1814 24.4309 50.9901 24.4309 44.8382C24.4335 41.1819 27.4648 39.6987 27.4648 39.6987Z" fill="#F1A33A"/>
<path d="M69.9866 27.6385C67.7056 24.3592 63.7669 15.4959 60.0211 16.2457C58.1716 14.8891 57.4083 13.9624 55.314 12.8676C52.3887 11.3351 47.2622 9.94813 43.2853 12.462C41.8379 13.3765 42.081 13.7362 41.336 13.562C40.4738 13.3591 38.8179 12.5764 37.5893 12.1629C37.2949 12.0641 36.1131 12.364 35.8223 12.4732C34.0752 13.1233 31.3696 14.7747 30.7739 16.3055C30.5577 16.8603 30.5308 16.8299 31.0344 17.4861C27.6715 17.1342 19.6813 15.2488 20.9821 20.8234C21.0685 21.1635 21.1941 21.4925 21.3563 21.8038C22.0848 23.2878 21.4431 25.064 21.1427 26.6269C20.323 30.74 22.5415 35.453 26.4637 37.1234C25.3097 37.4987 24.2356 37.7059 21.9485 37.705C20.5846 37.7059 19.2278 37.9002 17.9187 38.2823C15.7688 38.9073 14.7311 38.9949 12.5656 42.0427C10.3601 45.1416 11.8154 47.6476 15.7826 47.5323C20.8935 47.1726 17.4915 45.6626 24.0472 45.8741C23.9603 45.8741 24.0776 46.0379 24.0958 46.1194C24.5178 48.0689 26.5314 49.9733 28.4877 50.379C37.1534 52.1759 33.3502 60.9596 31.8576 65.1923C31.433 66.3929 31.2263 67.9662 32.4567 68.8174C33.1418 69.2924 34.1065 70.1229 44.2657 67.7304C44.4098 67.6949 44.5548 67.6567 44.6998 67.6186C44.1858 68.7793 44.4393 70.5372 45.5898 70.6317C47.0564 70.7522 58.6578 62.0769 65.1527 56.4156C67.584 54.1341 69.5455 52.3415 69.3206 50.0721C69.3137 49.9976 68.566 45.8801 68.7302 43.7442C76.7715 41.3275 73.6326 32.8802 69.9866 27.6385ZM52.4798 13.6244C54.3102 14.5129 55.8289 16.0411 57.7244 16.7242C59.6616 17.5043 58.4824 18.7621 58.7264 20.4412C58.3791 20.4056 57.0766 19.7798 56.8917 20.0823C58.3209 17.7228 45.8329 14.6958 44.2769 13.9356C46.9887 13.7891 49.7829 12.2296 52.4798 13.6244ZM22.3983 25.6872C22.4177 26.9003 22.7147 28.0928 23.2666 29.1736C23.0868 29.7041 23.0538 30.5736 23.2049 31.879C23.2131 31.9493 23.1959 32.0202 23.1566 32.079C23.1172 32.1378 23.0582 32.1807 22.99 32.2001C22.9219 32.2195 22.849 32.2141 22.7845 32.1848C22.72 32.1555 22.6681 32.1043 22.6379 32.0403C21.721 30.089 21.4275 27.3559 22.3983 25.6872ZM63.272 48.7493C63.1473 49.1045 63.0047 49.4531 62.8448 49.7939C62.7579 49.9829 62.6564 50.1666 62.5522 50.3469C61.7559 51.7339 60.6419 52.9067 59.3681 53.8697C52.6596 58.9242 44.046 61.3973 35.659 60.6683C35.9534 58.7743 36.147 56.9409 36.18 55.4456C36.2069 54.3959 36.587 53.3858 37.2592 52.5782C37.9313 51.7705 38.8563 51.2123 39.8851 50.9936C44.4002 50.0271 49.1759 49.3319 44.2752 54.2875C44.0641 54.5104 43.8343 54.7148 43.5884 54.8987C43.1438 55.2168 42.9806 56.2787 43.7438 56.0065C46.0926 55.0954 49.4399 53.1035 48.5664 50.4501C48.312 49.6769 47.7345 49.0579 47.0199 48.667C43.1994 46.5814 38.0599 49.3743 33.8608 48.9981C31.6718 49.0848 22.7143 46.063 28.8081 45.0107C34.1777 44.5235 48.2312 48.8083 50.6451 43.3004C51.7739 40.459 50.7519 37.3409 46.7898 34.6711C45.773 33.9854 43.0934 32.3688 44.4515 31.0911C46.0144 29.6175 43.8793 30.0751 42.9667 31.3225C42.6862 31.7065 42.0272 33.4168 44.3073 34.9433C48.9736 38.0639 48.3884 39.9042 48.1279 41.7523C45.523 36.0745 40.2593 35.9445 34.9071 35.655C31.8576 35.4885 27.1019 29.5871 24.6611 28.6258C24.6411 28.5547 23.6729 26.5766 23.6521 25.5225C23.6445 25.172 23.6689 24.8215 23.725 24.4754C24.0543 24.3325 24.4048 24.2446 24.7627 24.2154C27.602 23.762 33.2946 21.7189 30.187 18.5549C33.3511 19.8725 36.7166 19.7035 39.8859 18.3764C35.8144 23.2289 43.6943 27.5336 48.9858 27.4894C50.5159 27.4621 51.975 26.8402 53.0529 25.7557C53.7132 25.098 54.3357 24.4034 54.9172 23.6753C61.9279 22.0457 53.7076 34.4553 54.1496 39.9258C54.4266 43.349 56.7953 48.1937 60.4014 47.1708C61.0701 46.9732 61.6428 46.5369 62.0103 45.9451L62.1241 45.7718C62.2123 45.6328 62.3417 45.5247 62.4943 45.4625C62.6469 45.4003 62.815 45.387 62.9755 45.4246C63.136 45.4621 63.2808 45.5486 63.3897 45.672C63.4987 45.7954 63.5665 45.9497 63.5837 46.1133V46.1506C63.6767 47.0292 63.5701 47.9175 63.272 48.7493ZM64.8349 42.9736C63.8192 43.0884 62.8588 43.496 62.0711 44.1465C60.6975 45.2898 60.1609 46.1211 59.0459 42.4995C57.7435 37.1312 61.0995 32.0801 61.1299 26.7482C61.7828 30.1064 61.6561 33.5815 60.9128 36.9257C60.7391 37.7102 61.6943 37.3748 61.8549 36.8486C63.0827 32.7987 63.0627 28.4316 61.8792 24.3809C61.6438 23.6232 61.3536 22.8836 61.0109 22.1679C60.1956 20.3891 60.76 16.2734 62.7875 19.0828C67.5675 26.9554 81.1903 41.0545 64.8332 42.9745L64.8349 42.9736Z" fill="#0E0E0E"/>
<path d="M53.0865 22.1211C52.9259 21.7535 52.5473 21.796 52.2764 22.0301C49.7627 24.212 46.4874 24.1807 43.767 22.3768C43.3207 22.0812 42.6955 23.137 43.0342 23.4725C45.7025 26.1104 50.0935 25.8919 52.6897 23.2506C52.9511 22.9862 53.2576 22.5172 53.0865 22.1211Z" fill="white"/>
<path d="M36.1068 16.2066C35.5572 16.1382 35.0075 16.1806 34.4666 16.0419C33.9829 15.918 33.4776 15.5088 32.9783 15.6085C32.7838 15.6458 32.6309 15.9197 32.6501 16.1035C32.7143 16.7467 33.3846 17.0943 33.9525 17.2763C34.6472 17.4991 35.3141 17.5052 35.9653 17.1732C36.2162 17.0414 36.5983 16.2682 36.1068 16.2066Z" fill="white"/>
<path d="M30.034 38.0048C30.034 38.0048 31.4233 38.0239 32.526 37.802C33.7416 37.5575 35.8707 37.346 36.9674 38.3654C39.0635 40.3132 42.2597 38.7615 43.8479 41.2866C45.436 43.8117 39.3778 44.7765 33.4438 43.2249C27.0982 41.564 26.5252 42.0208 22.7515 43.6678C19.2349 45.2047 17.7388 45.6728 15.4985 45.6009C13.2583 45.5289 11.8126 44.5607 13.6916 42.7403C15.5706 40.92 15.3535 40.5871 17.5938 39.9933C19.834 39.3995 20.2429 38.5821 23.1474 38.3654C25.0082 38.2267 25.7949 38.3559 27.2233 38.0325C28.0178 37.8462 30.034 38.0048 30.034 38.0048Z" fill="#FF5C9E"/>
<path d="M40.1803 38.6914C39.9328 38.6914 39.6871 38.7061 39.4422 38.7278C39.4101 38.5717 39.2512 38.4521 38.9021 38.4313C38.336 38.3978 37.771 38.3842 37.2072 38.3906C37.4118 38.1932 37.566 37.9497 37.657 37.6806C37.7179 37.5078 37.7407 37.3239 37.7239 37.1414C37.7071 36.959 37.6511 36.7823 37.5597 36.6235C37.4683 36.4646 37.3436 36.3273 37.1943 36.2208C37.0449 36.1144 36.8743 36.0414 36.694 36.0068C36.2903 35.9262 35.7433 36.0154 35.4784 36.37C35.2648 36.6569 35.2935 37.0582 35.7103 37.1415C36.3241 37.2646 35.7841 37.9528 35.5071 38.0898C35.2301 38.2267 34.8836 38.2926 34.5832 38.368C33.9122 38.5268 33.2331 38.6489 32.5488 38.7338C31.5771 38.8673 30.6003 38.9662 29.6234 39.058C28.3049 39.0518 26.9883 39.1591 25.6883 39.3788C25.2454 39.4533 24.7878 39.5261 24.3242 39.605C22.802 39.8217 21.2938 40.1537 19.9245 40.7666C19.901 40.777 19.8784 40.7882 19.855 40.7978C19.7682 40.8394 19.6727 40.8845 19.5832 40.9252C19.4391 40.9954 19.2967 41.0674 19.1586 41.1454C18.7054 41.3959 18.6376 41.6915 18.7731 41.9056C18.9467 42.1821 19.4608 42.3234 19.9305 42.0608C20.0174 42.0105 20.1129 41.9628 20.2058 41.916C21.2261 41.4098 22.4191 41.1358 23.5713 40.9235C23.9864 40.8541 24.4006 40.7952 24.8104 40.7388C26.4168 40.5195 28.0336 40.3852 29.6477 40.23C29.7667 40.2361 29.8857 40.2395 30.0046 40.2491C31.3349 40.3566 32.6582 40.5672 33.9988 40.588C35.3516 40.6079 36.6532 40.3436 37.9791 40.1095C39.3684 39.8651 40.5841 39.8113 41.9968 40.1962C43.6275 40.6443 44.6581 41.6871 43.8654 43.3983C43.4694 44.253 45.213 44.1516 45.5152 43.5049C47.1623 39.9405 42.9623 38.6914 40.1803 38.6914Z" fill="#0E0E0E"/>
</svg>
