<svg width="141" height="141" viewBox="0 0 141 141" fill="none" xmlns="http://www.w3.org/2000/svg">
<path fill-rule="evenodd" clip-rule="evenodd" d="M103.315 35.4411C99.8702 36.7352 96.2843 38.3066 92.7587 39.9588C91.8951 41.5963 90.4915 43.0643 89.4545 44.0786C89.3309 44.1995 89.2052 44.3208 89.0775 44.4424C90.6591 43.4598 92.2486 42.4879 93.8461 41.527C95.8307 40.3333 98.6028 38.7223 101.659 36.993C102.059 36.6304 102.464 36.2556 102.871 35.8682C103.021 35.7254 103.169 35.583 103.315 35.4411ZM66.0396 77.683C61.8787 80.6651 57.6962 83.593 53.512 86.4779C52.3547 87.2759 50.8534 88.428 49.0052 89.8464L48.9569 89.8834C47.1352 91.2815 45.0489 92.8804 42.8976 94.4155C40.752 95.9466 38.4608 97.4731 36.2047 98.7201C34.0003 99.9385 31.5569 101.045 29.1462 101.512C28.803 101.579 28.2465 101.667 27.604 101.636C27.1479 101.615 25.5321 101.502 24.1853 100.118C22.4781 98.3638 22.6567 96.2147 22.9317 95.1943C23.1799 94.2733 23.6259 93.6196 23.818 93.3508C24.5431 92.3361 25.7415 91.3417 26.4434 90.7668C27.3081 90.0585 28.3157 89.2873 29.1844 88.6224L29.2503 88.572C30.1944 87.8493 30.9114 87.298 31.3409 86.9332C38.2322 81.079 44.0109 76.3874 51.3023 70.7748C54.7162 68.147 58.1587 65.5604 61.6333 63.0196C60.6044 63.585 59.5836 64.1411 58.5748 64.6889C49.4838 69.626 39.7983 74.7929 29.7079 78.5382C29.1519 78.7446 28.4965 78.9747 27.8686 79.1547L27.8522 79.1594C27.4392 79.2779 26.3178 79.5997 25.166 79.5259C25.1619 79.5257 25.1574 79.5254 25.1523 79.5251C24.8115 79.5039 22.3319 79.3499 21.0024 76.8873C19.6099 74.3082 20.9677 72.0243 21.1575 71.7051L21.16 71.7009C21.4174 71.2678 21.7372 70.8678 22.0701 70.5096C17.9138 72.7174 13.7426 74.9313 9.53403 77.1341C7.16238 78.3754 4.25084 77.4254 3.03092 75.0121C1.811 72.5989 2.74466 69.6362 5.11631 68.3949C9.45588 66.1236 13.81 63.8108 18.1791 61.49C26.9755 56.8176 35.8326 52.1128 44.7543 47.6492C45.2449 47.4038 45.7362 47.1578 46.2281 46.9116C55.2021 42.419 64.3963 37.8161 73.9277 33.9849C74.2052 33.8734 74.4966 33.7542 74.8007 33.6298C78.1454 32.2614 83.0337 30.2616 88.0645 30.8434C88.2823 30.8685 88.5481 30.9079 88.8447 30.9729C93.7614 28.6734 98.9389 26.4587 103.804 24.873C104.989 24.4869 107.304 23.7715 109.44 23.563C110.406 23.4687 112.061 23.3906 113.663 24.031C114.557 24.3882 115.643 25.0538 116.459 26.2571C116.959 26.9941 117.251 27.776 117.393 28.5396C117.831 28.324 118.252 28.1202 118.653 27.9296C119.73 27.4181 121.85 26.4877 123.68 25.9367C124.154 25.794 124.687 25.6525 125.227 25.554C125.698 25.4682 126.496 25.3516 127.381 25.4513C128.047 25.5263 130.479 25.9341 131.634 28.5038C132.688 30.8465 131.675 32.8907 131.402 33.4113C129.209 37.587 125.126 41.4583 121.485 44.5483C119.593 46.154 117.661 47.6776 115.931 49.0357L115.613 49.2848C113.982 50.5653 112.589 51.6586 111.478 52.6074C103.574 59.3573 95.5584 65.959 87.58 72.528C94.4727 68.3677 102.369 63.641 109.047 59.7983C114.659 56.5689 119.696 53.7965 122.539 52.5766C123.209 52.2889 124.089 51.9392 124.939 51.7683L124.946 51.767C125.245 51.7068 126.312 51.4922 127.536 51.8367C128.26 52.0402 129.363 52.5338 130.212 53.6929C130.97 54.7282 131.192 55.8366 131.194 56.713C131.677 56.5768 132.306 56.4329 132.986 56.4004C133.453 56.3782 135.441 56.3025 137.041 57.9466C139.007 59.9664 138.492 62.4205 138.249 63.2027C137.975 64.0833 137.53 64.7536 137.292 65.0906C136.76 65.8437 136.065 66.5754 135.477 67.1574C133.798 68.8182 131.357 70.8313 129.857 72.0365C130.717 72.3429 131.793 72.9665 132.566 74.2181C133.555 75.8173 133.418 77.4276 133.233 78.2889C132.908 79.8032 132.002 81.0854 131.418 81.8613C125.757 89.3817 116.959 95.266 109.863 100.012C108.942 100.628 108.05 101.224 107.197 101.803C106.667 102.162 105.942 102.782 104.867 103.728C104.803 103.783 104.739 103.84 104.673 103.898C103.745 104.715 102.605 105.719 101.479 106.558C100.397 107.366 98.6823 108.531 96.7099 108.916C95.6101 109.131 94.1783 109.153 92.7098 108.495C91.2094 107.824 90.19 106.675 89.5474 105.49C89.4656 105.339 89.3923 105.188 89.3267 105.038C89.177 105.139 89.0275 105.24 88.8784 105.341C87.6081 106.198 86.3608 107.04 85.1471 107.857C79.1604 111.889 73.8912 115.401 71.0083 117.029C70.3206 117.418 69.5063 117.852 68.7602 118.124L68.7394 118.132C68.4921 118.223 67.5401 118.573 66.3872 118.486C65.7319 118.438 64.2603 118.189 63.0651 116.843C61.7832 115.399 61.7264 113.737 61.8354 112.848C62.0015 111.494 62.6863 110.514 62.8374 110.298C62.8435 110.289 62.8488 110.281 62.8531 110.275C63.1251 109.881 63.4335 109.513 63.7092 109.202C64.2735 108.567 65.0343 107.803 65.9532 106.926C66.5781 106.33 67.2198 105.748 67.875 105.178C67.8718 105.179 67.8686 105.18 67.8654 105.181C67.6724 105.231 67.3473 105.305 66.9472 105.336C66.6428 105.361 65.7691 105.413 64.7578 105.015C63.4492 104.501 62.0556 103.246 61.7115 101.244C61.6237 100.733 61.623 100.263 61.6669 99.8522C58.7689 101.576 55.9643 103.198 53.6662 104.439C52.1761 105.243 50.7789 105.953 49.6648 106.423C49.1446 106.643 48.4587 106.909 47.759 107.063C47.4402 107.133 46.7881 107.258 46.0053 107.19C45.335 107.132 43.3273 106.804 42.1123 104.744C41.5291 103.755 41.159 102.567 41.1916 101.258C41.2234 99.9813 41.6297 98.916 42.0886 98.1168C42.9198 96.6695 44.1649 95.6873 44.9115 95.1409C45.5919 94.643 46.3708 94.1544 46.9556 93.7876C47.0697 93.716 47.1765 93.649 47.2737 93.5875C48.0142 93.119 48.3382 92.8841 48.4721 92.7625C50.9125 90.5458 53.3974 88.4025 55.8431 86.305C59.2243 83.4051 62.627 80.5342 66.0396 77.683ZM133.827 66.17C133.827 66.1701 133.82 66.172 133.806 66.1748C133.82 66.1712 133.827 66.1698 133.827 66.17ZM126.969 35.2216C126.969 35.222 126.956 35.2243 126.933 35.2271C126.958 35.2226 126.97 35.2211 126.969 35.2216ZM122.858 28.8281C122.866 28.8122 122.875 28.7963 122.883 28.7804L122.881 28.7834C122.878 28.7897 122.87 28.8048 122.858 28.8281ZM29.0455 77.3047C29.0449 77.3049 29.0526 77.2964 29.0701 77.2791C29.0548 77.2959 29.0461 77.3046 29.0455 77.3047Z" fill="#37DBFF"/>
<path d="M53.8704 56.3388C57.6082 54.3369 61.7911 53.2963 66.0377 53.3119C68.3118 53.3119 76.0224 53.6537 74.0825 57.6797C72.5292 60.9017 69.0852 63.73 66.3195 65.9041C63.2437 68.3067 59.8314 70.2507 56.1904 71.6746L57.1735 75.7006C62.9704 70.1124 73.437 69.4191 79.2961 75.3556C80.6757 76.7551 81.9177 78.6688 81.9177 80.6932C81.9177 82.5483 80.7216 83.9478 79.2601 84.9665C75.544 87.5702 70.4124 88.3383 65.9885 88.4262C60.2951 88.5335 54.6611 87.2611 49.5743 84.7191C47.2182 83.5507 45.0522 88.4847 47.4673 89.6532C53.0812 92.3779 59.2898 93.672 65.533 93.4188C71.0743 93.1747 77.1333 91.9737 81.5441 88.4262C85.9548 84.8786 87.2263 78.8575 84.2738 74.0081C81.4818 69.4191 76.3141 66.8773 71.0382 66.4639C68.1445 66.2405 65.2364 66.6398 62.5122 67.6345C59.7881 68.6292 57.3121 70.196 55.2533 72.2279C54.5585 72.9244 54.0899 74.057 54.3554 75.0496C54.5585 75.8014 55.3647 76.6151 56.2265 76.2538C60.8421 74.3301 65.1325 71.7132 68.9476 68.4948C70.8482 66.8714 72.6116 65.096 74.2201 63.1865C75.8848 61.2337 77.4971 59.0271 77.7855 56.3908C78.372 50.8775 72.5424 49.6407 68.2365 49.5008C62.9421 49.3554 57.7101 50.664 53.1167 53.2827C51.6322 54.1191 51.8682 57.403 53.8573 56.3453L53.8704 56.3388Z" fill="#0E0E0E"/>
<path d="M67.121 20.4138C49.2428 21.9576 33.2406 33.6261 25.4663 49.6732C17.4081 66.288 20.1149 86.0804 31.0046 100.774C36.349 107.977 43.4657 113.896 51.7731 117.368C60.0182 120.809 69.1494 121.633 77.938 120.224C95.5254 117.399 111.514 105.492 117.81 88.6142C124.106 71.7363 121.043 51.6081 109.568 37.5929C108.128 35.8412 106.559 34.1993 104.875 32.6811C103.49 31.4315 101.711 34.4118 102.916 35.5264C115.231 47.0875 120.417 65.2946 116.824 81.6982C113.199 98.2404 100.039 110.681 84.0024 115.326C76.0411 117.628 67.4533 118.064 59.3813 116.119C51.1431 114.135 43.6837 109.712 37.7232 103.723C25.7086 91.6637 19.9176 73.4531 24.8882 56.9041C29.7342 40.805 43.8464 27.4301 60.1947 23.5395C62.3355 23.0346 64.5105 22.6875 66.7022 22.5011C67.7094 22.4145 68.2287 20.3238 67.1245 20.4242L67.121 20.4138Z" fill="#0E0E0E"/>
</svg>
