<svg width="141" height="141" viewBox="0 0 141 141" fill="none" xmlns="http://www.w3.org/2000/svg">
<path fill-rule="evenodd" clip-rule="evenodd" d="M57.7003 0.510546C59.2825 0.415673 61.0852 0.953999 62.428 2.40535C63.7856 3.87261 64.1247 5.55611 64.2273 6.47891C64.3388 7.48201 64.2603 8.41971 64.1615 9.12973C63.962 10.5623 63.5321 12.0525 63.1366 13.2606C62.8459 14.1486 62.5294 15.0156 62.2402 15.7765C62.9966 14.947 63.6798 14.2264 64.2772 13.6333C64.9658 12.9497 65.8346 12.1345 66.7214 11.5474L66.7297 11.5419C67.0405 11.3361 68.1296 10.6148 69.6321 10.4244C70.52 10.3119 72.01 10.3312 73.5102 11.252C75.07 12.2094 75.8003 13.6215 76.1012 14.6641C76.5744 16.3042 76.2152 17.7405 76.1217 18.1143L76.1165 18.1351C75.9632 18.7506 75.7452 19.3351 75.545 19.8204C75.136 20.8119 74.5413 22.0066 73.8123 23.3621C71.2634 28.1012 68.1436 32.6122 64.806 36.9151C75.0233 27.8962 85.3149 18.926 95.763 10.1677C97.7911 8.46757 99.2781 7.25143 100.306 6.44845C100.808 6.05583 101.273 5.70494 101.67 5.43266C101.855 5.30554 102.137 5.11821 102.46 4.94156C102.615 4.85695 102.904 4.70561 103.275 4.56512L103.291 4.55888C103.508 4.476 104.536 4.08367 105.877 4.2013C106.68 4.27175 107.993 4.56296 109.194 5.62043C110.463 6.73751 110.967 8.14183 111.103 9.22505C111.311 10.8801 110.725 12.1358 110.623 12.3542C110.62 12.3618 110.617 12.3681 110.614 12.3732C110.31 13.0378 109.926 13.5326 109.827 13.6598L109.818 13.6716C109.522 14.0549 109.166 14.4447 108.886 14.743C108.274 15.3963 107.419 16.2525 106.479 17.174C105.401 18.2307 104.108 19.4735 102.785 20.7346C103.285 20.6948 103.872 20.7071 104.502 20.8378C105.546 21.0542 106.97 21.6589 108.027 23.0862C109.045 24.4599 109.2 25.8944 109.171 26.7656C109.123 28.2162 108.539 29.2924 108.394 29.5598L108.386 29.5753C107.967 30.3489 107.403 31.0488 107.032 31.4921C105.415 33.4242 102.171 36.6208 98.5709 40.05C93.3079 45.0633 86.6487 51.1665 81.4997 55.8856C79.4583 57.7566 77.6542 59.41 76.2687 60.6917C74.927 61.9328 73.5849 63.1826 72.242 64.4397C67.492 69.5446 62.7684 74.6537 58.2095 79.8439C65.6773 74.0083 73.0928 68.0864 80.5278 62.1388C81.1601 61.6329 81.7926 61.1269 82.4252 60.6208C91.3852 53.4522 100.382 46.2539 109.483 39.1821C111.581 37.5515 113.194 36.3575 114.378 35.5616C114.952 35.1754 115.558 34.7925 116.139 34.4934C116.418 34.3494 116.854 34.14 117.376 33.973L117.394 33.9672C117.705 33.8677 119.098 33.4204 120.786 33.8593C121.854 34.1369 123.118 34.7968 124.05 36.0848C124.938 37.3107 125.141 38.5746 125.157 39.3954C125.184 40.7995 124.691 41.8546 124.565 42.1261L124.561 42.1337C124.207 42.8916 123.731 43.5366 123.475 43.8732C122.86 44.6838 122.006 45.6535 121.137 46.6011C119.352 48.5472 116.976 50.9711 114.935 53.038C114.549 53.4283 114.18 53.8017 113.831 54.1553C113.856 54.1369 113.882 54.1185 113.908 54.1002C114.011 54.0277 114.181 53.9122 114.398 53.7882C114.558 53.6967 115.022 53.4359 115.665 53.2463C115.67 53.245 115.676 53.2432 115.683 53.2411C115.977 53.1522 118.426 52.4126 120.761 54.1583C122.355 55.3498 122.877 56.8699 123.018 58.0279C123.066 58.0174 123.115 58.0073 123.165 57.9977C123.615 57.9113 124.758 57.7377 126.115 58.1887C127.827 58.7581 129.206 60.1051 129.785 61.8687C130.243 63.2656 130.041 64.4384 129.943 64.8979C129.783 65.6409 129.501 66.2247 129.341 66.5211C129.722 66.4585 130.161 66.4185 130.638 66.4341C131.831 66.473 134.195 66.9527 135.629 69.3255C136.837 71.3238 136.476 73.2711 136.325 73.9229C135.995 75.3467 135.204 76.5671 134.764 77.2192C133.669 78.8413 131.838 81.0304 129.32 83.7871C121.121 92.7657 112.813 101.664 104.531 110.534C101.431 113.855 98.3337 117.172 95.2476 120.488C93.0852 122.811 89.4443 122.946 87.1156 120.788C84.7868 118.631 84.652 114.999 86.8144 112.675C86.9554 112.524 87.0963 112.372 87.2373 112.221C86.4653 112.386 85.6464 112.481 84.781 112.481C84.1828 112.481 82.3136 112.432 80.6477 111.141C75.9449 115.653 71.2609 120.19 66.5885 124.744C64.814 126.474 63.4191 127.79 62.3537 128.744C61.4365 129.566 60.3897 130.466 59.4585 131.009C59.2199 131.148 58.6385 131.477 57.8602 131.688L57.8593 131.688C57.4867 131.79 54.6219 132.568 52.2371 130.266C51.9964 130.033 51.7872 129.795 51.6057 129.553C50.2292 130.94 48.8298 132.337 47.5392 133.584C45.7231 135.338 43.644 137.274 42.0866 138.271C41.72 138.505 40.8966 139.014 39.8393 139.292C39.306 139.432 38.219 139.649 36.9044 139.351C35.3386 138.995 33.8874 137.996 33.0275 136.443C32.3015 135.132 32.2574 133.895 32.2792 133.274C32.303 132.594 32.4314 132.028 32.5312 131.663C32.731 130.931 33.0291 130.251 33.2852 129.72C34.6081 126.975 36.3761 124.683 38.0254 122.759C38.785 121.872 39.5682 121.009 40.2878 120.216L40.4706 120.014C41.2614 119.142 41.977 118.348 42.6445 117.553C52.0881 106.306 61.6767 95.1655 71.3676 84.1202C67.1678 87.4358 62.9492 90.736 58.7043 94.0056C57.2959 95.0905 49.8237 100.839 44.2031 104.159C42.7987 104.988 41.2828 105.804 39.8842 106.344C39.202 106.608 38.2878 106.91 37.2802 107.035C36.4528 107.138 34.3934 107.279 32.4478 105.899C31.5496 105.262 30.9379 104.503 30.5292 103.725C28.5039 105.557 26.4711 107.373 24.43 109.168C23.5622 109.932 22.7862 110.578 22.1083 111.092C21.5316 111.529 20.6794 112.141 19.733 112.548C19.3634 112.707 18.1742 113.207 16.6357 113.071C15.7428 112.992 14.5702 112.682 13.4796 111.82C12.3717 110.944 11.7737 109.835 11.4893 108.885C11.0075 107.275 11.3496 105.915 11.4469 105.537C11.5945 104.962 11.7974 104.476 11.9453 104.151C12.492 102.95 13.4361 101.503 14.3259 100.213C15.2934 98.8106 16.4818 97.1917 17.7451 95.5199C17.8721 95.3518 18.0002 95.1828 18.1292 95.013C17.6744 95.3114 16.9566 95.7378 16.1045 96.015C15.6235 96.1716 14.485 96.4921 13.0704 96.242C11.2751 95.9246 9.59395 94.771 8.72559 92.9203C8.22479 91.853 8.14027 90.856 8.15598 90.1814C8.13445 90.1671 8.11292 90.1526 8.0914 90.138C6.4016 88.987 5.79675 87.3477 5.60248 86.3256C5.29374 84.7012 5.73633 83.3001 5.86245 82.9008L5.8697 82.8779C6.0746 82.2273 6.35412 81.5694 6.64101 80.9563C7.22395 79.7104 8.09412 78.109 9.25506 76.1251C10.1298 74.6303 11.0042 73.1367 11.8781 71.644C20.8006 56.4032 29.6709 41.2516 38.2659 25.8883C38.4188 25.6151 41.8699 19.6005 45.4561 13.8067C47.24 10.9247 49.1278 7.98238 50.6885 5.81188C51.44 4.76673 52.2659 3.6878 53.0543 2.86969C53.3912 2.52012 54.0676 1.84599 54.9818 1.3277C55.4279 1.07485 56.391 0.589053 57.7003 0.510546ZM46.5273 34.6694C48.0435 32.7782 49.5321 30.93 50.9732 29.1534C52.9806 26.6785 54.9128 24.3213 56.6981 22.186C55.8347 22.3243 54.9264 22.2676 54.0366 21.9835C54.0075 21.9742 53.9785 21.9647 53.9497 21.955C52.6754 24.049 51.4706 26.0762 50.4996 27.7274C49.8525 28.8279 49.3117 29.7572 48.9265 30.4224C48.7339 30.755 48.5806 31.0209 48.4728 31.2084C48.3907 31.3514 48.3435 31.4339 48.3244 31.4673C48.316 31.482 48.313 31.4872 48.3148 31.4839C47.7202 32.5468 47.1244 33.6086 46.5273 34.6694ZM61.3932 10.785C61.393 10.786 61.3786 10.8009 61.3507 10.8265C61.3794 10.7968 61.3934 10.784 61.3932 10.785ZM52.7745 7.44866C52.7748 7.44012 52.7752 7.4357 52.7753 7.43563C52.7754 7.43556 52.7752 7.43983 52.7745 7.44866ZM105.193 31.8212C105.193 31.8214 105.187 31.8239 105.178 31.8285C105.188 31.8233 105.193 31.821 105.193 31.8212ZM108.199 14.8873C108.208 14.8817 108.212 14.8791 108.212 14.879C108.212 14.8789 108.208 14.8818 108.199 14.8873ZM41.1276 101.71C41.1269 101.71 41.1318 101.695 41.1446 101.664C41.1348 101.694 41.1283 101.709 41.1276 101.71ZM114.382 36.8302C114.382 36.8301 114.375 36.8405 114.36 36.862C114.373 36.8411 114.381 36.8302 114.382 36.8302ZM89.1718 108.585C89.1716 108.584 89.1794 108.572 89.1971 108.548C89.1811 108.573 89.1719 108.585 89.1718 108.585ZM35.8718 128.608C35.8718 128.608 35.8717 128.608 35.8717 128.608L35.8716 128.608C35.8715 128.608 35.8716 128.608 35.8718 128.608Z" fill="#37DBFF"/>
<path d="M61.4489 36.8137C59.8757 44.171 58.302 51.5296 56.7279 58.8893C55.1388 66.3265 53.7759 73.8705 51.812 81.2225C51.3444 82.9718 52.9295 83.9571 54.4098 82.9113C57.1727 80.9318 60.0544 79.3966 63.4236 78.7256C66.7929 78.0546 70.1007 78.4958 73.525 78.9155C75.0444 79.1028 76.4456 77.3946 76.2866 75.9732C75.6438 70.2289 76.4468 64.0716 77.2894 58.3659C77.6023 56.2593 74.6104 57.3491 74.3398 58.8899C73.1758 65.5284 72.6545 72.2779 72.202 79.0044C71.9767 82.354 71.8343 85.6859 71.736 89.0619C71.6376 92.3177 71.4278 95.6248 71.793 98.8658C72.0657 101.415 75.6383 99.3434 75.7869 97.6417C76.1002 94.3043 75.93 90.9261 75.9737 87.5782C76.019 84.3578 76.1013 81.139 76.2205 77.9216C76.4526 71.391 77.0267 64.8814 77.3087 58.357L74.3591 58.8809C74.2424 64.7561 73.9021 70.9785 72.3914 76.6641L75.4965 74.87C68.0858 71.756 58.0464 74.9327 52.4588 80.2244L55.6137 81.0065C56.637 73.5226 58.3043 66.1021 59.7196 58.6896C61.1348 51.277 62.5618 43.7885 63.9851 36.3429C64.3192 34.5848 61.7644 35.5018 61.4877 36.7958L61.4489 36.8137Z" fill="#0E0E0E"/>
<path d="M108.886 108.867C122.404 94.8598 126.654 73.2995 120.871 54.9474C114.987 36.2993 98.3459 23.2725 79.1436 20.3921C69.6477 18.9587 59.7563 19.9557 50.9121 23.8144C42.1421 27.6186 34.8364 34.1973 29.5065 42.0646C18.4913 58.333 16.5494 80.2482 26.0994 97.5674C36.3726 116.173 58.2154 127.791 79.4713 124.794C82.4754 124.371 81.9457 120.796 78.9277 121.195C61.922 123.437 43.6274 115.041 33.1284 101.657C22.2464 87.7515 20.6456 65.0871 28.5577 49.5333C36.7069 33.5157 52.5934 23.0524 70.598 23.0327C87.9798 23.0044 107.343 33.5561 115.489 49.1213C124.758 66.8296 120.71 91.075 106.806 105.448C105.42 106.878 107.167 110.663 108.875 108.894L108.886 108.867Z" fill="#0E0E0E"/>
</svg>
