<svg width="141" height="141" viewBox="0 0 141 141" fill="none" xmlns="http://www.w3.org/2000/svg">
<path fill-rule="evenodd" clip-rule="evenodd" d="M46.2894 55.3795C44.4338 58.1467 42.5924 60.9322 40.7561 63.7309C38.7647 66.766 36.7767 69.821 34.783 72.8849C27.3878 84.2495 19.9128 95.7367 11.886 106.789C11.6118 107.166 11.3027 107.571 10.983 107.927C10.8299 108.097 10.5772 108.366 10.2485 108.638C10.2441 108.641 10.2387 108.646 10.2325 108.651C10.0517 108.802 9.11849 109.581 7.67835 109.83C6.74302 109.993 5.34593 109.966 3.97968 109.133C2.6653 108.332 2.06383 107.2 1.80432 106.485C1.37728 105.308 1.50762 104.278 1.53604 104.053L1.53825 104.035C1.62034 103.372 1.81764 102.775 1.91128 102.499C2.34448 101.219 3.2955 99.1181 4.28495 97.0088C5.32329 94.7953 6.56309 92.2419 7.69931 89.9052L7.87776 89.5382C8.9547 87.3236 9.91202 85.3549 10.5343 84.019C11.9691 80.9385 13.3933 77.7924 14.8339 74.6102C20.8629 61.2922 27.1779 47.3424 35.7489 34.9328C37.3576 32.6037 40.5927 31.9907 42.9747 33.5636C44.7513 34.7367 45.5517 36.7945 45.1763 38.7311C50.6631 30.9403 56.4109 23.2784 62.6016 15.9054C63.5325 14.7967 64.3832 13.8666 65.16 13.1283C65.8596 12.4632 66.8002 11.6585 67.9163 11.13C68.8758 10.6755 72.0526 9.57082 74.6354 12.1335C75.6249 13.1152 76.0038 14.2176 76.1615 14.885C76.3261 15.5817 76.3458 16.2112 76.3347 16.66C76.3051 17.8456 76.0039 19.1459 75.6678 20.2761C76.0859 20.0836 76.6827 19.8742 77.4176 19.8053C78.9467 19.6619 80.7548 20.1846 81.994 21.6871C82.947 22.8427 83.0994 24.0424 83.1381 24.4584C83.187 24.9844 83.1435 25.4092 83.1149 25.6283C83.0206 26.3501 82.7768 26.9995 82.6928 27.2231L82.6869 27.2388C82.5549 27.5909 82.3944 27.9725 82.2294 28.3476C81.579 29.8267 80.4859 32.0441 79.3587 34.2711C77.08 38.7734 74.4253 43.7793 74.2201 44.1581C72.1003 48.0718 69.2508 53.2 66.0681 58.9279C61.5922 66.9831 56.4573 76.2242 51.7662 84.9411C52.3165 84.1701 52.8648 83.3963 53.4115 82.6204C59.6072 71.2428 66.493 60.2047 73.4004 49.5701C75.4884 46.3555 79.7144 39.9834 83.0663 35.2644C84.6714 33.0046 86.2927 30.8122 87.3952 29.6316C87.6389 29.3706 88.1415 28.844 88.7865 28.4092L88.79 28.4068C89.0228 28.2498 89.9305 27.6378 91.2551 27.4769C92.0333 27.3824 93.1689 27.4205 94.3443 28.0162C95.3685 28.5352 96.0528 29.2899 96.4805 30.0091C97.6609 27.8968 98.8762 25.7228 99.9667 23.7855C101.293 21.4295 102.461 19.3775 103.101 18.3205C103.251 18.0722 103.436 17.7731 103.61 17.5232L103.611 17.5207C103.637 17.4829 103.926 17.054 104.347 16.6483C104.468 16.5312 104.802 16.2168 105.303 15.9184L105.315 15.9109C105.582 15.7512 107.288 14.73 109.524 15.3903C112.382 16.2343 113.031 18.7287 113.149 19.3914C113.291 20.1831 113.201 20.8141 113.175 20.9941C113.109 21.4498 112.991 21.8035 112.96 21.8975L112.958 21.9022C112.909 22.0513 112.86 22.1775 112.827 22.2605C112.759 22.4295 112.686 22.5957 112.622 22.7347C112.492 23.0215 112.318 23.3829 112.11 23.806C109.239 29.6373 105.835 35.2819 102.348 40.7269C101.865 41.585 101.432 42.352 101.07 42.987C100.244 44.4386 99.4162 45.8865 98.5891 47.3318C99.0221 46.7246 99.4569 46.1172 99.8936 45.5096C101.862 42.7711 103.689 40.0485 105.591 37.2138C107.108 34.9527 108.672 32.6202 110.395 30.1513C114.088 24.8606 118.149 19.4952 122.811 14.9368C123.272 14.486 123.752 14.0419 124.215 13.6788C124.438 13.5035 124.777 13.2521 125.191 13.0203L125.207 13.0111C125.452 12.8738 126.544 12.2593 128.044 12.2808C128.994 12.2945 130.285 12.573 131.427 13.5385C132.531 14.4726 132.969 15.6066 133.136 16.3625C133.415 17.6222 133.134 18.6618 133.066 18.9161L133.062 18.929C132.867 19.6541 132.54 20.3117 132.354 20.6719C132.24 20.8936 132.108 21.1357 131.961 21.3956C132.248 21.3354 132.563 21.2926 132.902 21.2801C134.652 21.2155 136.47 21.9965 137.571 23.6152C138.397 24.8312 138.477 26.0369 138.492 26.4927C138.511 27.0672 138.442 27.5669 138.383 27.9022C138.262 28.5847 138.05 29.2902 137.831 29.9337C134.861 38.6434 130.274 47.0866 125.529 55.0833C123.781 58.0286 122.036 60.8765 120.327 63.6651C117.286 68.6271 114.36 73.4012 111.74 78.2017C109.135 82.9747 106.511 87.795 103.942 92.6275C104.871 92.6495 105.806 92.9152 106.643 93.4461C109.055 94.9756 109.742 98.1268 108.177 100.485C107.075 102.146 105.61 104.479 103.935 107.144C103.506 107.828 103.062 108.534 102.607 109.256C100.415 112.738 97.9972 116.54 95.7917 119.77C93.7217 122.801 91.4496 125.923 89.5893 127.561C89.1199 127.974 88.2947 128.645 87.205 129.073C86.0544 129.526 83.4386 130.068 81.1996 128.082C79.5053 126.579 79.302 124.615 79.2517 123.974C79.1808 123.069 79.2675 122.154 79.3862 121.356C79.6256 119.747 80.2735 117.841 80.9207 116.155C81.6073 114.366 82.4533 112.422 83.2857 110.6C84.6993 107.507 86.1545 104.596 86.8474 103.21C86.9698 102.965 87.0684 102.767 87.1388 102.625C88.8933 99.0785 90.7136 95.5253 92.5675 91.9853C91.1393 93.9351 89.7013 95.875 88.2516 97.8013C86.9026 99.5938 85.8119 100.969 84.9454 101.97C84.5137 102.469 84.0932 102.928 83.691 103.319C83.3566 103.644 82.7739 104.185 82.0298 104.608C81.6802 104.807 80.8857 105.221 79.7951 105.339C78.487 105.48 76.6917 105.166 75.3102 103.725C74.1693 102.535 73.9421 101.205 73.8814 100.657C73.811 100.022 73.8666 99.4893 73.9097 99.1852C73.9129 99.1622 73.9163 99.1393 73.9198 99.1163C73.6252 99.4452 73.3458 99.7452 73.0811 100.017C72.6071 100.503 72.0968 100.984 71.564 101.394C71.146 101.716 70.223 102.39 68.9559 102.696C68.2494 102.867 67.1547 102.992 65.9197 102.607C64.5936 102.193 63.6158 101.351 63.0022 100.429C62.7557 100.059 62.5734 99.6861 62.4389 99.3278C61.1221 101.087 59.7933 102.836 58.4517 104.576C56.9903 106.47 55.6075 108.104 54.3942 109.326C53.7952 109.929 53.1416 110.53 52.466 111.026C51.9962 111.371 50.7328 112.277 49.0252 112.47C47.9824 112.588 46.4783 112.465 45.0812 111.472C44.8431 111.302 44.6296 111.123 44.4381 110.937C43.3555 112.148 42.257 113.339 41.1414 114.508C39.966 115.738 38.8683 116.785 37.8715 117.554C37.3779 117.935 36.7718 118.355 36.0859 118.691C35.5073 118.974 34.2554 119.511 32.6675 119.369C30.5929 119.183 28.9577 117.947 28.1351 116.329C27.4989 115.078 27.4793 113.879 27.4979 113.292C27.5378 112.029 27.9005 110.709 28.2388 109.659C29.2856 106.41 31.5959 101.392 34.5048 95.5921C33.7577 95.665 32.8385 95.6731 32.2054 95.5572C28.776 94.5889 28.4859 91.3544 28.4655 91.1269L28.465 91.121C28.4022 90.4354 28.5015 89.8994 28.5271 89.7616L28.5278 89.7579C28.595 89.395 28.6902 89.1162 28.7128 89.0502L28.7144 89.0453C28.8071 88.7737 28.919 88.5299 28.9331 88.4991L28.9344 88.4962C29.0097 88.3298 29.1122 88.1158 29.2164 87.901C29.436 87.4484 29.7627 86.7884 30.1561 85.9997C30.9465 84.4151 32.0385 82.2463 33.1602 80.0275C35.3817 75.6329 37.7929 70.8967 38.1763 70.1812C40.8563 65.1798 43.58 60.263 46.2894 55.3795ZM29.362 87.7865C29.3601 87.7892 29.3585 87.7916 29.357 87.7938L29.3551 87.7965C29.3574 87.7931 29.3597 87.7898 29.362 87.7865ZM136.053 30.4508C136.052 30.4517 136.04 30.464 136.015 30.4851C136.041 30.4605 136.053 30.45 136.053 30.4508ZM123.119 15.9689C123.126 15.9541 123.129 15.9462 123.13 15.946C123.13 15.9458 123.127 15.9532 123.119 15.9689ZM82.57 120.042C82.5702 120.041 82.5839 120.03 82.6105 120.01C82.5831 120.033 82.5698 120.043 82.57 120.042ZM11.7689 105.773C11.7684 105.774 11.7721 105.76 11.7815 105.731C11.7741 105.758 11.7694 105.773 11.7689 105.773Z" fill="#37DBFF"/>
<path d="M90.3706 87.8291C78.7178 85.7499 66.79 85.7373 55.1328 87.7917L55.9859 91.8567C61.4356 86.8481 66.6149 81.553 71.5018 75.9939C75.8335 71.0677 80.8791 65.3666 80.8312 58.3836C80.7911 52.6508 76.883 47.1952 71.4138 45.3779C65.7858 43.5027 59.4057 45.4961 55.2992 49.6734C50.2255 54.8357 48.6855 62.7692 50.8866 69.5998C51.8876 72.6998 55.7078 69.7676 54.9239 67.3757C53.43 62.8112 53.687 57.4411 56.9859 53.6886C59.9153 50.3534 64.9866 48.6668 69.275 50.0526C73.5634 51.4384 77.1383 55.5744 76.7788 60.2029C76.3861 65.4087 71.8249 69.8303 68.594 73.5413C64.05 78.7219 59.237 83.6603 54.1748 88.3359C52.9836 89.4381 52.5524 92.8347 55.028 92.3975C66.4782 90.4231 78.1244 89.8334 89.7155 90.6411C91.0798 90.7302 91.9062 88.1236 90.3668 87.8457L90.3706 87.8291Z" fill="#0E0E0E"/>
<path d="M70.9961 15.0634C60.3508 12.5119 49.3172 15.362 40.6049 21.8224C31.3688 28.6673 25.4974 38.9821 22.4127 49.9213C16.4284 71.1436 19.2738 98.229 36.9466 113.258C52.1625 126.183 75.1873 128.64 92.7653 119.198C111.206 109.277 122.574 87.9052 122.009 67.1443C121.354 43.099 104.978 21.1483 82.784 12.5481C80.1238 11.5166 78.9112 14.8991 81.5307 16.0482C98.919 23.6622 113.978 39.3116 117.876 58.1045C121.651 76.3003 114.815 99.5912 100.222 111.064C85.8195 122.374 62.1537 125.139 46.2242 116.603C27.4358 106.532 20.7685 83.4287 22.8596 63.2967C24.0655 51.6472 29.3726 37.3715 37.6693 28.8482C45.7763 20.533 58.0926 15.5566 69.6637 18.1941C71.2851 18.5605 72.5678 15.4525 70.987 15.077L70.9961 15.0634Z" fill="#0E0E0E"/>
</svg>
