<svg width="141" height="140" viewBox="0 0 141 140" fill="none" xmlns="http://www.w3.org/2000/svg">
<path fill-rule="evenodd" clip-rule="evenodd" d="M87.9959 17.0939C87.9963 17.0936 87.9921 17.1031 87.9822 17.1232C87.9905 17.1041 87.9955 17.0941 87.9959 17.0939ZM35.0143 105.628C35.128 106.48 35.4403 107.428 36.1241 108.35C37.5695 110.298 39.6416 110.715 40.6442 110.814C42.6172 111.01 44.314 110.468 45.6535 109.602C46.1413 110.138 46.7765 110.63 47.5926 110.985C49.2543 111.708 50.7665 111.46 51.563 111.239C52.3892 111.01 53.0494 110.648 53.4813 110.381C55.5624 109.096 57.5547 107.583 59.4625 105.91C57.836 108.984 56.2933 112.1 54.8858 115.257C54.3911 116.367 53.9903 117.382 53.7156 118.29C53.4879 119.042 53.1504 120.322 53.2916 121.709C53.368 122.459 53.6289 123.702 54.5786 124.871C55.6419 126.18 57.0898 126.812 58.4178 126.963C60.445 127.192 62.0324 126.299 62.4514 126.064L62.4669 126.055C63.7079 125.358 64.924 124.278 65.7288 123.526C66.6405 122.675 67.5104 121.776 68.121 121.13C73.3651 115.581 78.4201 109.803 83.3116 103.876C84.5262 104.635 85.8875 104.83 86.9678 104.73C88.2614 104.61 89.2693 104.098 89.7887 103.806C90.403 103.461 90.9878 103.042 91.525 102.617C92.6651 101.715 93.7812 100.753 94.8735 99.7475C94.8599 100.211 94.8923 100.84 95.0861 101.536C95.4025 102.672 96.2769 104.319 98.239 105.18C99.9688 105.939 101.517 105.614 102.202 105.412C103.504 105.027 104.492 104.246 104.912 103.907C106.011 103.019 107.36 101.634 108.942 99.8665C118.209 89.5132 125.47 78.2844 131.592 66.1146C132.635 64.0405 132.206 61.6173 130.699 60.0186C131.255 59.1966 131.812 58.3751 132.37 57.5541C132.369 57.5559 132.368 57.5568 132.368 57.5569C132.368 57.557 132.417 57.4895 132.554 57.3455C132.704 57.1878 132.904 56.9955 133.181 56.7448C133.295 56.6413 133.455 56.5 133.641 56.3357C134.122 55.9119 134.775 55.3348 135.265 54.8569C135.978 54.1603 137.086 52.9959 137.791 51.4448C138.62 49.6206 138.87 47.2737 137.693 44.9343C137.288 44.1291 136.142 42.2137 133.65 41.591C131.022 40.9345 129.065 42.2293 128.323 42.8277C127.512 43.4825 126.947 44.2442 126.62 44.7199C126.252 45.255 125.925 45.8189 125.653 46.3157C125.316 46.9286 124.923 47.7073 124.589 48.3668C124.431 48.6797 124.286 48.9658 124.168 49.1946C123.948 49.619 123.763 49.9593 123.604 50.2285C123.434 50.5167 123.361 50.6067 123.38 50.5824C121.451 52.9515 119.507 55.3055 117.544 57.642C117.453 57.751 117.361 57.86 117.269 57.9689C120.447 53.3022 122.607 49.894 125.508 44.7677C126.547 42.933 127.342 41.4785 127.665 40.6009C127.72 40.4509 127.839 40.1142 127.924 39.6874C127.966 39.4778 128.035 39.0776 128.031 38.5727C128.029 38.1687 127.986 37.0542 127.283 35.8623C126.372 34.3187 124.758 33.3305 122.976 33.2054C121.6 33.1088 120.583 33.5579 120.22 33.7319C119.46 34.0965 118.956 34.5624 118.839 34.6706L118.83 34.679C118.327 35.1422 117.887 35.7302 117.73 35.9409L117.71 35.9665C116.783 37.2022 115.273 39.4921 115.099 39.7586C109.458 48.4087 103.926 57.1599 98.5085 65.9723C93.6106 72.8725 88.5939 79.7172 83.4181 86.4064C83.7136 85.9123 84.009 85.4171 84.3038 84.9207C86.9753 80.4232 89.8802 75.984 92.8959 71.3755C94.7565 68.5321 96.6594 65.6242 98.5756 62.5985C103.469 54.8717 108.226 46.6997 111.513 38.2071C111.83 37.3865 112.115 36.5673 112.299 35.8215C112.388 35.4575 112.495 34.9435 112.531 34.3644C112.555 33.9755 112.628 32.631 111.867 31.2121C111.417 30.3743 110.651 29.4716 109.474 28.8775C108.322 28.2961 107.201 28.2244 106.381 28.307C104.961 28.45 103.965 29.0963 103.654 29.3021C102.865 29.8248 102.215 30.4997 101.829 30.9172C100.156 32.726 97.5912 36.2583 94.9227 40.0601C94.579 40.5496 94.2311 41.0473 93.8798 41.5516C94.6599 40.3334 95.4283 39.1094 96.1829 37.8792C96.5717 37.2455 96.8751 36.7439 97.0938 36.3727C97.2017 36.1897 97.304 36.0128 97.3913 35.8553C97.3923 35.8533 97.394 35.8503 97.3962 35.8463C97.4353 35.7768 97.6441 35.4046 97.8042 34.9885L97.8073 34.9807C97.8464 34.8793 98.0165 34.4389 98.1058 33.8568C98.1425 33.6181 98.2647 32.7885 98.014 31.7647C97.708 30.5154 96.62 28.4284 94.0261 27.8013C93.9876 27.792 93.9494 27.7832 93.9113 27.7748C94.1253 27.4505 94.4027 27.0432 94.7466 26.5444C94.8159 26.4438 94.8875 26.3402 94.9608 26.234C95.4882 25.4701 96.105 24.5768 96.6239 23.7641C96.9226 23.2963 97.2367 22.7815 97.5097 22.2715C97.7413 21.839 98.1226 21.0863 98.3459 20.2189C98.4531 19.8022 98.6346 18.9545 98.5017 17.9173C98.3518 16.7472 97.7354 15.0557 96.0084 13.9269C94.4731 12.9234 92.9354 12.9562 92.2071 13.0352C91.4228 13.1204 90.7831 13.343 90.3922 13.4984C88.1348 14.3959 86.3311 16.3379 85.2202 17.6406C83.9118 19.1749 82.6169 20.9992 81.4692 22.7202C80.3095 24.4592 79.2186 26.2166 78.3382 27.639C77.3846 29.1796 76.8096 30.1063 76.5164 30.5102C75.8113 31.4815 75.1624 32.376 74.559 33.2081C75.1929 32.0543 75.825 30.8999 76.4553 29.7448C76.6498 29.3882 76.9077 28.9855 77.2853 28.4212C77.3411 28.3377 77.4012 28.2484 77.4644 28.1544C77.7825 27.6816 78.1819 27.0877 78.5435 26.4956C79.4081 25.0795 80.5602 22.9015 80.6551 20.1684C80.6717 19.6898 80.6625 18.9696 80.4715 18.174C80.2967 17.4452 79.7963 15.9367 78.2709 14.8121C76.5406 13.5365 74.6546 13.5809 73.4701 13.8739C72.4179 14.1343 71.6548 14.6291 71.272 14.9012C70.4714 15.4702 69.8162 16.1789 69.3936 16.664C68.9132 17.2152 68.4323 17.8322 67.9828 18.4365C67.0857 19.6425 66.1303 21.0477 65.3129 22.2531L65.2382 22.3633C64.4042 23.5934 63.7595 24.5441 63.309 25.1412C62.2089 26.5992 60.001 29.5881 57.6124 32.834C57.6099 32.832 57.6073 32.83 57.6047 32.8279C56.0519 31.599 54.3538 31.5605 53.3803 31.7053C53.3504 31.7098 53.3207 31.7145 53.2912 31.7194C53.4026 29.638 53.288 27.4891 52.9424 24.912C52.876 24.4174 52.7365 23.6896 52.3847 22.9148C52.035 22.1447 51.2885 20.9303 49.8005 20.1384C46.5046 18.3842 43.726 20.4831 43.3316 20.7856C42.5244 21.4047 41.9109 22.1524 41.5347 22.6426C41.1058 23.2014 40.6958 23.8136 40.3258 24.399C39.4271 25.8214 38.2534 27.96 37.441 29.4404C37.0864 30.0866 36.8006 30.6073 36.6365 30.8884C35.816 32.294 34.9937 33.7012 34.1705 35.1101C24.6386 51.4223 14.9704 67.9678 6.33466 84.9707C5.19783 87.209 4.346 88.9967 3.75467 90.384C3.26185 91.5402 2.66267 93.0477 2.52762 94.4181C2.48835 94.8166 2.44893 95.5387 2.63975 96.3852C2.83413 97.2475 3.39422 98.7378 4.95531 99.7969C6.54157 100.873 8.17755 100.84 9.11143 100.675C10.0044 100.517 10.6741 100.182 11.0203 99.9896C12.1987 99.3361 13.2243 98.2594 13.7536 97.6955C15.2539 96.0974 17.3487 93.4639 19.2443 91.0236C19.8377 91.4281 20.5264 91.7273 21.2942 91.8804C22.8322 92.1871 24.0589 91.7667 24.4848 91.6083C25.0426 91.4008 25.4949 91.1435 25.7902 90.9613C26.393 90.5894 26.9843 90.1266 27.5128 89.6829C28.4996 88.8546 29.4627 87.9912 30.4035 87.0984C29.2272 89.0464 28.0508 91.0016 26.8755 92.9665C26.5736 93.4711 26.1751 94.1286 25.719 94.881C24.4316 97.0049 22.6862 99.8845 21.3658 102.212C20.5408 103.666 19.6099 105.368 19.1673 106.571C19.0716 106.831 18.8131 107.542 18.7426 108.404C18.7119 108.78 18.6465 109.874 19.188 111.108C19.9149 112.766 21.5041 114.104 23.5712 114.351C25.0954 114.533 26.2457 114.032 26.6239 113.857C27.1238 113.625 27.5035 113.363 27.722 113.202C28.17 112.873 28.5584 112.506 28.8417 112.224C30.9648 110.114 33.0193 107.906 35.0143 105.628ZM50.2708 29.0375C50.2707 29.0378 50.2661 29.0431 50.2568 29.053C50.2661 29.0422 50.2708 29.0373 50.2708 29.0375ZM27.4244 87.8258C27.4122 87.8575 27.4045 87.8745 27.4037 87.875C27.4029 87.8756 27.409 87.8597 27.4244 87.8258ZM64.0472 121.591C64.0461 121.592 64.0498 121.571 64.0616 121.525C64.0541 121.567 64.0482 121.59 64.0472 121.591ZM91.3821 99.5816C91.3817 99.5819 91.3842 99.5717 91.3906 99.55C91.3857 99.5705 91.3825 99.5813 91.3821 99.5816ZM126.526 42.2488C126.538 42.234 126.543 42.2274 126.543 42.2277C126.543 42.2281 126.537 42.2355 126.526 42.2488ZM135.613 50.7438C135.614 50.7443 135.606 50.7554 135.59 50.7753C135.605 50.7533 135.613 50.7434 135.613 50.7438ZM109.995 38.0216C109.995 38.0217 109.993 38.024 109.988 38.0283C109.993 38.0237 109.995 38.0215 109.995 38.0216ZM101.764 33.2721C101.766 33.2624 101.767 33.2575 101.767 33.2579C101.767 33.2581 101.766 33.261 101.765 33.2667C101.765 33.2684 101.764 33.2702 101.764 33.2721Z" fill="#37DBFF"/>
<path d="M58.2226 72.4965C65.8247 64.6099 71.9542 55.4291 76.3218 45.3875L72.7035 45.2908C71.542 60.0823 69.669 74.8969 69.1509 89.7256C69.0515 92.6569 72.4732 91.5483 72.7635 89.2821C74.6422 74.5489 75.2097 59.6223 76.4594 44.826C76.5384 43.8952 76.1674 42.9483 75.1184 42.8805C74.0694 42.8126 73.2312 43.805 72.8441 44.7087C68.7469 53.969 63.083 62.4547 56.101 69.7934C54.3497 71.6414 56.1744 74.6027 58.2251 72.4794L58.2226 72.4965Z" fill="#0E0E0E"/>
<path d="M36.6909 22.2996C23.3214 40.5433 15.5246 65.5187 24.0813 87.4436C27.7768 96.9069 34.3279 105.403 42.8188 111.057C51.6397 116.988 62.431 119.244 72.8924 117.341C84.4922 115.296 95.1934 108.842 103.653 100.82C111.727 93.1666 118.168 83.4122 120.579 72.4515C124.962 52.5613 113.292 30.9275 94.2704 23.5336C75.8799 16.3824 52.9058 24.941 43.1519 42.0199C41.9548 44.0881 40.969 46.2714 40.2094 48.5368C39.5848 50.4225 41.5592 51.3341 42.4232 49.4727C49.998 33.1806 68.4787 22.8542 86.3833 26.1646C104.541 29.5201 118.504 47.691 117.9 65.9624C117.553 76.0149 112.72 85.5545 106.245 93.0835C99.2566 101.216 90.058 107.93 79.8738 111.455C69.9811 114.87 59.3563 114.943 49.7898 110.478C41.3128 106.523 34.3488 99.635 29.706 91.5756C18.6683 72.4272 22.617 48.7309 33.5888 30.4838C34.9976 28.144 36.5209 25.8735 38.1344 23.6688C39.0019 22.4799 37.7041 20.9373 36.6979 22.31L36.6909 22.2996Z" fill="#0E0E0E"/>
</svg>
