<svg width="190" height="47" viewBox="0 0 190 47" fill="none" xmlns="http://www.w3.org/2000/svg">
<path d="M1.58331 45.7234C13.7133 47.3079 26.3733 45.8453 38.3533 43.692C50.5878 41.3282 62.6544 38.142 74.4733 34.1545C98.4233 26.3539 121.873 16.7454 146.423 10.9661C160.03 7.58966 174.009 6.0158 188.013 6.28367C189.943 6.34461 190.823 2.43416 188.673 2.36306C173.833 1.84843 158.99 1.29657 144.143 0.707462L143.463 4.77027C157.998 4.50378 172.526 5.59517 186.863 8.03067L187.123 3.96787C179.853 6.82199 172.563 9.62533 165.393 12.7232C164.904 12.9253 164.488 13.2755 164.202 13.7262C163.916 14.1769 163.773 14.7062 163.793 15.2422C163.843 16.1157 164.563 17.1517 165.563 16.7759C172.883 14.0132 180.073 10.9457 187.293 7.9291C188.803 7.29937 189.763 4.25226 187.553 3.8663C173.198 1.56648 158.675 0.509733 144.143 0.707462C142.143 0.707462 141.223 4.68901 143.463 4.77027C158.317 5.21718 173.167 5.70133 188.013 6.22272L188.673 2.30211C163.673 1.4794 139.203 8.05099 115.673 15.9633C91.8133 23.9975 68.3533 33.5146 43.7333 38.7658C36.9332 40.2446 30.0503 41.2995 23.1233 41.9247C16.1356 42.4405 9.12677 42.5998 2.12331 42.402C0.493314 42.402 -0.266683 45.4491 1.56332 45.7234H1.58331Z" fill="#0E0E0E"/>
</svg>
