<svg width="280" height="108" viewBox="0 0 280 108" fill="none" xmlns="http://www.w3.org/2000/svg">
<path d="M1.38174 96.387C16.8979 104.659 34.5179 107.924 51.9243 107.642C71.8373 107.264 91.4369 102.052 110.225 95.5132C129.437 88.715 148.283 80.893 166.684 72.0795C185.102 63.3564 203.093 53.787 220.659 43.3714C238.225 32.9557 255.331 21.6588 271.979 9.48059C274.021 7.98902 276.018 6.45941 278.019 4.90729C279.398 3.83133 279.197 -0.268254 276.838 0.539592C270.14 2.83988 263.37 4.89689 256.633 7.04987L257.343 11.4326L277.983 4.58649L275.946 1.71272C274.256 10.0018 269.957 17.5074 263.697 23.0963C263.219 23.5118 262.881 24.0699 262.732 24.6914C262.582 25.3129 262.63 25.9663 262.867 26.559C263.241 27.5022 264.507 28.4544 265.449 27.5859C272.526 21.1133 277.353 12.4911 279.212 3.00475C279.442 1.84892 278.882 -0.447706 277.171 0.121361L256.55 7.02511C254.528 7.7359 254.976 12.125 257.26 11.4079C264.007 9.28374 270.725 7.07316 277.502 5.09959L276.324 0.74149C259.831 12.4607 243.268 23.9462 225.966 34.4123C208.665 44.8785 190.93 54.5081 172.758 63.2594C154.587 72.0107 136.017 79.9347 117.111 86.9021C98.3118 93.8426 79.0411 99.8956 59.0501 101.505C41.8995 102.879 24.3299 101.283 8.33121 94.5463C6.35482 93.7147 4.41236 92.8068 2.50383 91.8224C0.267604 90.663 -0.584811 95.3047 1.38174 96.387Z" fill="#0E0E0E"/>
</svg>
