<svg width="195" height="69" viewBox="0 0 195 69" fill="none" xmlns="http://www.w3.org/2000/svg">
<path d="M137.14 6.04516C151.138 0.399938 167.908 2.26486 180.301 10.9066C186.257 15.0498 192.333 21.5493 192.555 29.2309C192.769 36.6327 186.421 40.8036 180.081 42.7819C176.638 43.853 173.084 44.4453 169.528 44.9871C164.788 45.7079 160.038 46.3581 155.277 46.9377C145.534 48.1323 135.761 49.0748 125.983 49.9317C106.563 51.6328 87.1282 53.155 67.6982 54.7503C48.0991 56.3607 28.5025 58.0114 8.88819 59.5387L1.62149 60.0931L1.30599 63.2761C14.3729 59.0875 27.3995 54.7755 40.4462 50.5214C41.8622 50.0602 42.2787 46.91 40.4235 47.4191C27.4959 50.968 14.8652 55.5182 2.64625 61.0281C1.61897 61.4918 1.19493 63.8456 2.66139 63.9717C19.2746 65.3998 35.8853 66.8522 52.4934 68.3291C54.0457 68.4652 54.8913 65.3048 53.1396 65.141C36.5264 63.7146 19.9115 62.2865 3.29493 60.8567L3.31007 63.8003C15.3245 58.416 27.7407 53.9746 40.4462 50.5164L40.4235 47.414C27.3768 51.6479 14.3098 55.8264 1.28326 60.1258C0.927074 60.2626 0.617542 60.4983 0.391225 60.8051C0.164909 61.1119 0.031267 61.477 0.00610349 61.8572C-0.0443772 62.4167 0.213079 63.3845 0.972813 63.3189C21.4175 61.5548 41.8622 59.8763 62.3069 58.1954C82.6683 56.522 103.037 54.9191 123.389 53.155C133.384 52.2906 143.371 51.3405 153.331 50.1308C158.335 49.5259 163.333 48.8539 168.324 48.1146C172.173 47.5325 176.032 46.9453 179.765 45.8112C186.482 43.7723 192.931 39.6871 194.609 32.429C196.401 24.6769 191.757 16.8568 186.229 11.7811C174.75 1.23916 157.524 -2.41511 142.579 1.57687C140.719 2.07803 138.894 2.69844 137.114 3.43425C136.794 3.56197 136.519 3.78322 136.326 4.06915C136.134 4.35509 136.032 4.69243 136.034 5.03708C136.034 5.56884 136.483 6.29718 137.132 6.04516H137.14Z" fill="#0E0E0E"/>
</svg>
