<svg width="299" height="91" viewBox="0 0 299 91" fill="none" xmlns="http://www.w3.org/2000/svg">
<path d="M297.128 0.842746C290.346 7.20352 282.768 12.6268 274.588 16.9721C266.318 21.2405 257.595 24.5357 248.588 26.7939C227.908 32.1467 206.408 32.5834 185.188 32.817C163.188 33.0506 141.258 33.5483 119.428 36.311C98.848 38.9214 78.428 43.36 59.058 50.9067C41.1498 57.7475 24.4453 67.4776 9.58801 79.7221C7.73801 81.266 5.91801 82.8708 4.14801 84.5061C2.76801 85.7757 2.83801 89.3408 5.33801 88.8126C13.508 87.0656 21.698 85.3796 29.848 83.5411L29.628 78.5033C20.488 80.9511 11.318 83.338 2.18801 85.8874L3.66801 89.3814C8.56802 81.4522 13.478 73.506 18.398 65.5429C19.008 64.5272 19.248 62.963 18.288 62.1098C17.328 61.2567 16.008 61.9676 15.448 62.8919C10.6013 70.9092 5.76135 78.9231 0.928013 86.9336C0.138013 88.2235 0.338012 90.9253 2.40801 90.4276C11.578 88.2235 20.718 85.8468 29.868 83.5411C32.288 82.9317 32.658 77.8938 29.648 78.5236C21.468 80.2299 13.318 82.0988 5.14801 83.9068L6.34801 88.2032C20.428 74.9991 36.998 64.8421 54.688 57.4579C73.598 49.5355 93.618 44.6601 113.838 41.7552C135.628 38.6268 157.628 37.8854 179.598 37.5197C201.168 37.1642 222.988 36.9001 244.128 32.0451C261.998 27.9823 279.708 20.4559 293.288 7.66826C295.001 6.04047 296.62 4.31434 298.138 2.49834C298.878 1.61468 298.308 -0.233891 297.138 0.832595L297.128 0.842746Z" fill="#0E0E0E"/>
</svg>
