<svg width="187" height="199" viewBox="0 0 187 199" fill="none" xmlns="http://www.w3.org/2000/svg">
<path d="M108.436 17.3289C109.936 13.6135 109.386 10.0791 107.556 6.60854C104.776 1.36014 100.686 -0.407075 95.1564 0.327489C84.4564 1.73274 73.9364 10.8882 65.6264 17.6483C47.5606 32.371 32.4469 50.7956 21.1764 71.8357C10.3364 92.0628 2.05638 115.249 0.23638 138.617C-1.40362 159.653 5.23637 184.394 28.1364 187.141C40.0864 188.589 52.1364 183.404 62.3864 177.368C72.4638 171.399 81.8882 164.258 90.4864 156.076C107.586 139.841 122.586 118.816 130.936 95.9805C134.046 87.4638 136.296 75.4446 130.266 67.737C122.116 57.3147 108.976 65.5014 100.956 71.5802C81.9135 86.0226 67.3439 106.177 59.1064 129.472C54.9964 141.183 52.1064 153.638 54.1764 166.179C55.9564 177.187 62.4664 187.375 73.7264 188.205C87.0564 189.185 100.646 177.56 110.586 169.437C122.19 159.927 132.566 148.831 141.446 136.435L134.576 129.515C129.473 136.929 125.924 145.422 124.168 154.421C122.412 163.42 122.49 172.715 124.396 181.68C124.836 183.724 126.946 185.81 129.066 184.873L160.706 171.172L157.306 170.331C164.536 179.412 171.846 188.323 179.496 197.01C183.386 201.428 188.126 191.889 185.326 187.982C178.456 178.401 171.326 169.128 164.046 159.909C163.595 159.467 163.043 159.157 162.446 159.01C161.848 158.862 161.225 158.882 160.636 159.068L128.986 172.652L133.646 175.846C132.171 169.056 132.104 162.006 133.451 155.186C134.798 148.366 137.527 141.942 141.446 136.36C145.646 130.313 139.556 122.595 134.576 129.44C122.216 146.474 106.416 161.868 88.4264 171.853C80.4864 176.261 70.5164 177.613 65.7064 167.989C62.3264 161.24 62.5164 152.627 63.9664 145.335C67.8064 125.97 77.8864 107.691 90.9664 93.7448C97.3164 86.9634 105.146 79.2558 113.676 75.7959C124.236 71.5376 126.056 82.2793 123.626 90.5085C118.276 108.606 106.116 125.927 93.9164 139.405C81.0664 153.596 64.9164 167.169 47.1964 173.546C38.0464 176.846 27.3264 178.177 18.9564 171.928C12.1064 166.818 8.95638 158.205 7.95638 149.646C5.79638 131.24 11.4464 111.321 17.8964 94.4688C25.7327 74.0519 37.157 55.4147 51.5564 39.5574C58.7764 31.5682 66.7143 24.3513 75.2564 18.0102C79.9164 14.5823 84.8064 10.9733 90.0464 8.63125C93.0849 7.08084 96.5185 6.63935 99.8164 7.37504C103.696 8.30123 108.086 11.0585 106.246 16.275C105.536 18.287 107.666 19.2877 108.466 17.3396L108.436 17.3289Z" fill="#37DBFF"/>
<path d="M81.3558 49.969C54.4158 65.0222 34.7858 96.8852 34.9958 129.706C35.0858 144.483 40.6958 161.463 55.5458 165.572C71.1658 169.894 86.8558 159.44 96.5458 147.187C102.465 139.643 106.853 130.876 109.435 121.439C112.016 112.002 112.735 102.098 111.546 92.3501C111.206 89.3692 107.936 88.3259 105.746 89.7312C87.6058 101.378 73.9458 124.862 76.4358 147.975C77.6358 159.11 84.0558 168.851 95.3158 169.405C107.466 170.001 116.876 160.718 124.706 152.052L118.706 143.727C114.706 150.998 110.636 158.812 111.106 167.542C111.466 174.408 114.786 181.498 121.106 183.968C133.556 188.812 140.986 173.184 152.186 172.332L148.636 167.307C149.536 179.135 155.546 191.207 167.086 194.273C172.666 195.753 177.446 184.99 171.786 182.499C164.716 179.391 158.396 173.12 158.446 164.401C158.446 162.123 157.146 159.504 154.766 159.419C145.466 159.057 139.536 166.498 131.766 170.331C127.966 172.183 123.986 171.576 122.006 167.222C119.476 161.655 123.276 155.384 125.856 150.689C127.206 148.219 128.156 144.728 126.276 142.247C124.606 140.043 121.676 140.363 119.886 142.354C113.996 148.89 107.176 156.917 97.8858 156.502C89.6258 156.129 86.0258 148.613 85.9558 140.629C85.7958 124.256 95.5358 108.904 108.336 100.601L102.496 98.1095C103.988 111.635 100.764 125.272 93.4358 136.435C86.2958 147.368 73.9758 157.226 60.7858 155.512C47.2858 153.755 42.2158 138.947 42.0958 126.257C41.9658 112.971 45.9058 99.5041 52.0958 88.0491C59.3685 74.613 69.9443 63.5419 82.6858 56.0264C85.3958 54.4189 84.9658 48.0314 81.3458 50.0648L81.3558 49.969Z" fill="#0E0E0E"/>
</svg>
