<svg width="52" height="47" viewBox="0 0 52 47" fill="none" xmlns="http://www.w3.org/2000/svg">
<path d="M0.588089 7.84986L6.50807 44.2898C7.28807 49.1098 12.7381 46.2899 14.0081 43.4699C18.8462 32.673 21.0205 20.872 20.3481 9.05982L12.4281 12.4598C14.2481 22.1298 15.8881 31.8398 17.5981 41.5398C18.4181 46.1698 24.0881 43.9098 25.2081 40.7098C28.851 30.2847 30.9761 19.3899 31.5181 8.35987L23.3281 10.5999C24.0412 19.8659 26.562 28.9026 30.7481 37.1998C32.7481 41.1998 36.9881 37.6998 38.2481 35.1998C41.7342 28.2702 43.9333 20.7651 44.7381 13.0498L36.0381 14.0498C35.8995 21.4931 37.5021 28.8658 40.7181 35.5798C41.6581 37.5798 44.2181 37.8598 45.9381 36.7998C48.1556 35.5322 49.9033 33.581 50.9199 31.2378C51.9365 28.8946 52.1674 26.2852 51.5781 23.7998C50.0481 17.2898 42.3281 22.8899 42.6681 27.6199L43.5181 26.7399L48.7481 27.9598C46.1017 22.9407 44.7702 17.3328 44.8781 11.6598C44.9881 5.1198 36.7681 7.4598 36.1781 12.6598C35.4147 19.3619 33.5814 25.8983 30.7481 32.0199L38.2481 30.0199C34.4035 23.3838 32.1033 15.9668 31.5181 8.31983C31.0081 1.31983 23.6381 5.45982 23.3281 10.5598C22.7595 19.7567 20.967 28.8368 17.9981 37.5598L25.6081 36.7299C23.7981 27.0799 21.9081 17.4499 20.2081 7.77991C19.2081 1.89991 12.0981 7.05982 12.2881 11.1798C12.7836 21.1954 10.9417 31.189 6.9081 40.3699L14.4081 39.5498L8.27809 3.22987C7.86809 0.839866 5.27808 0.0997976 3.38808 1.1598C1.09808 2.3998 0.198089 5.3399 0.588089 7.7599V7.84986Z" fill="#37DBFF"/>
</svg>
