<svg width="56" height="36" viewBox="0 0 56 36" fill="none" xmlns="http://www.w3.org/2000/svg">
<path d="M14.3056 7.97001C12.059 9.83001 10.2457 9.46671 8.86569 6.88004C9.10569 6.14004 9.33564 5.39005 9.55564 4.64005L2.81565 4.34C0.6022 12.6924 -0.031999 21.3848 0.945651 29.97C1.35565 34.42 5.79565 35.32 8.31565 31.67C13.5006 24.0579 16.9862 15.4189 18.5356 6.34L9.94565 8.66996L13.3056 32.6C13.4107 33.1859 13.6602 33.7363 14.0315 34.2015C14.4028 34.6666 14.8842 35.032 15.4322 35.2643C15.9802 35.4966 16.5775 35.5886 17.17 35.532C17.7625 35.4754 18.3316 35.2719 18.8257 34.94C23.0994 31.8953 26.7209 28.0266 29.4773 23.5614C32.2336 19.0963 34.0691 14.125 34.8757 8.93998L25.9457 9.93998C26.3057 15.44 26.6057 20.94 26.9457 26.44C27.1957 30.76 30.7856 32.02 34.0256 29.44C40.5705 24.1687 44.8789 16.6165 46.0857 8.29996L36.4957 9.41996L35.7856 17.93C35.3456 23.15 41.9257 23.93 44.2257 19.93C46.0757 16.68 47.8356 13.39 49.6756 10.14L41.8657 9.67997L46.5757 26.5301C48.5757 33.5301 56.7956 26.69 55.3856 21.34L50.8956 4.34C49.8156 0.250001 45.0457 0.65004 43.0857 3.88004C41.1257 7.11004 39.1657 10.14 37.2457 13.3L45.6957 15.24L46.2357 6.78006C46.7057 -0.459935 37.4556 2.26006 36.6456 7.90006C36.0038 13.0277 33.371 17.6972 29.3156 20.9001L36.3956 23.9001C35.9356 18.4401 35.4556 12.97 35.0356 7.51005C34.5256 0.840045 26.9357 3.14005 26.1157 8.51005C25.6929 11.7724 24.6243 14.9179 22.9726 17.7629C21.3209 20.6078 19.1192 23.0952 16.4957 25.08L22.0156 27.43L18.5356 3.56998C17.6656 -2.43002 10.5957 2.16006 9.95566 5.90006C8.74059 13.0129 6.11954 19.8121 2.2457 25.9001L9.45566 26.32C8.59386 19.1256 8.64765 11.8509 9.61569 4.66996C10.2457 -1.05004 3.4357 -0.67997 2.8757 4.37003C2.0657 11.59 10.5556 16.37 15.7656 10.56C16.9156 9.26997 16.1857 6.40004 14.3657 8.00004L14.3056 7.97001Z" fill="#37DBFF"/>
</svg>
