<svg width="401" height="99" viewBox="0 0 401 99" fill="none" xmlns="http://www.w3.org/2000/svg">
<mask id="path-1-outside-1" maskUnits="userSpaceOnUse" x="0" y="0.668945" width="401" height="98" fill="black">
<rect fill="white" y="0.668945" width="401" height="98"/>
<path d="M53.311 25.4745C55.6419 24.7923 57.9728 24.4512 60.3036 24.4512C64.3827 24.4512 67.7819 25.0847 70.5013 26.3516C73.2206 27.5212 74.8717 29.2754 75.4544 31.6145C76.5227 35.6103 77.4939 39.3625 78.368 42.8711C79.3392 46.2822 80.2618 49.5958 81.1359 52.812C82.01 55.9307 82.8355 59.0494 83.6125 62.1681C84.4865 65.2868 85.3121 68.5518 86.089 71.9628H86.8174C87.6915 66.0178 88.4685 60.3651 89.1483 55.0048C89.8281 49.5471 90.4594 44.2355 91.0421 39.0701C91.6249 33.8073 92.2076 28.6419 92.7903 23.574C94.0062 12.796 93.053 4.86175 106.047 4.86175C109.641 4.86175 112.748 5.64143 115.371 7.20079C117.993 8.76015 119.304 11.3916 119.304 15.095C119.304 17.2392 119.061 20.3091 118.576 24.305C118.187 28.2034 117.604 32.5891 116.828 37.4621C116.148 42.3351 115.322 47.4517 114.351 52.812C113.38 58.1723 112.36 63.2889 111.292 68.1619C110.223 73.0349 109.106 77.4693 107.941 81.4652C106.064 88.3129 104.94 91.9797 97.7434 93.8913C94.4414 94.7684 91.0421 95.207 87.5458 95.207C82.9812 95.207 79.0964 94.6223 75.8914 93.4527C72.7836 92.1858 70.8897 90.4315 70.2099 88.1899C68.9473 84.2915 67.5877 79.6622 66.1309 74.3019C64.674 68.9416 63.1201 63.0453 61.4691 56.6129C60.1094 62.9478 58.7012 69.1365 57.2444 75.179C55.295 83.2646 55.49 91.2618 46.7554 93.8913C43.8418 94.7684 40.6368 95.207 37.1405 95.207C32.7701 95.207 28.7882 94.6223 25.1947 93.4527C21.6984 92.1858 19.4161 90.4315 18.3478 88.1899C17.4737 86.4356 16.5025 83.853 15.4342 80.4419C14.463 76.9333 13.4432 72.9862 12.3749 68.6005C11.3066 64.1173 10.1897 59.2931 9.02424 54.1277C7.95592 48.9623 6.93616 43.797 5.96496 38.6316C5.09087 33.4662 4.26535 28.447 3.48839 23.574C2.27706 15.8248 -0.545887 9.98787 7.42176 6.46984C9.84976 5.39778 12.472 4.86175 15.2885 4.86175C18.979 4.86175 21.9898 5.69016 24.3207 7.34697C26.7487 8.90633 28.254 11.5865 28.8367 15.3874C30.3907 25.3283 31.6532 33.6124 32.6244 40.2397C33.6927 46.8669 34.5183 52.3247 35.101 56.6129C35.7808 60.8037 36.2664 64.0686 36.5578 66.4076C36.8491 68.7467 37.1405 70.5984 37.4319 71.9628H38.1603C39.0343 68.0645 39.8599 64.4584 40.6368 61.1448C41.4138 57.8312 42.1908 54.5175 42.9677 51.2039C44.9021 43.6548 44.6541 27.7407 53.311 25.4745Z"/>
<path d="M127.592 49.5959C127.592 41.994 128.757 35.2693 131.088 29.4217C133.516 23.5741 136.77 18.7011 140.849 14.8027C145.025 10.8068 149.881 7.78558 155.417 5.73892C161.05 3.69227 167.12 2.66895 173.627 2.66895C180.134 2.66895 186.155 3.69227 191.691 5.73892C197.324 7.78558 202.228 10.8068 206.405 14.8027C210.581 18.7011 213.834 23.5741 216.165 29.4217C218.593 35.2693 219.807 41.994 219.807 49.5959C219.807 57.1977 218.642 63.9712 216.311 69.9162C213.98 75.7638 210.726 80.6855 206.55 84.6814C202.471 88.5798 197.615 91.5523 191.982 93.599C186.349 95.6456 180.231 96.6689 173.627 96.6689C167.022 96.6689 160.904 95.6456 155.271 93.599C149.638 91.4548 144.782 88.3849 140.703 84.389C136.624 80.3932 133.419 75.4714 131.088 69.6238C128.757 63.7763 127.592 57.1003 127.592 49.5959ZM153.814 49.5959C153.814 58.4647 155.611 65.092 159.204 69.4777C162.798 73.8633 167.605 76.0562 173.627 76.0562C179.745 76.0562 184.601 73.8633 188.195 69.4777C191.788 65.092 193.585 58.4647 193.585 49.5959C193.585 40.8245 191.788 34.2459 188.195 29.8602C184.698 25.4745 179.891 23.2817 173.772 23.2817C167.751 23.2817 162.895 25.4745 159.204 29.8602C155.611 34.1485 153.814 40.727 153.814 49.5959Z"/>
<path d="M229.161 49.5959C229.161 41.994 230.326 35.2693 232.657 29.4217C235.085 23.5741 238.338 18.7011 242.417 14.8027C246.594 10.8068 251.45 7.78558 256.985 5.73892C262.618 3.69227 268.688 2.66895 275.195 2.66895C281.702 2.66895 287.724 3.69227 293.26 5.73892C298.893 7.78558 303.797 10.8068 307.974 14.8027C312.15 18.7011 315.403 23.5741 317.734 29.4217C320.162 35.2693 321.376 41.994 321.376 49.5959C321.376 57.1977 320.211 63.9712 317.88 69.9162C315.549 75.7638 312.295 80.6855 308.119 84.6814C304.04 88.5798 299.184 91.5523 293.551 93.599C287.918 95.6456 281.8 96.6689 275.195 96.6689C268.591 96.6689 262.473 95.6456 256.84 93.599C251.207 91.4548 246.351 88.3849 242.272 84.389C238.193 80.3932 234.988 75.4714 232.657 69.6238C230.326 63.7763 229.161 57.1003 229.161 49.5959ZM255.383 49.5959C255.383 58.4647 257.18 65.092 260.773 69.4777C264.367 73.8633 269.174 76.0562 275.195 76.0562C281.314 76.0562 286.17 73.8633 289.763 69.4777C293.357 65.092 295.154 58.4647 295.154 49.5959C295.154 40.8245 293.357 34.2459 289.763 29.8602C286.267 25.4745 281.46 23.2817 275.341 23.2817C269.32 23.2817 264.464 25.4745 260.773 29.8602C257.18 34.1485 255.383 40.727 255.383 49.5959Z"/>
<path d="M394.663 5.44655C402.487 7.99878 397.946 20.4256 394.809 23.5741C393.255 25.1334 391.118 25.9131 388.399 25.9131H357.806V42.4326C365.742 42.4326 389.058 37.4733 391.604 46.6721C392.187 48.4263 392.478 50.2781 392.478 52.2273C392.478 55.9307 391.653 58.6109 390.002 60.2677C388.448 61.8271 386.311 62.6067 383.592 62.6067H358.098C358.098 71.342 363.394 93.026 352.999 94.3299C350.765 94.6223 348.531 94.7685 346.297 94.7685C344.064 94.7685 342.073 94.5736 340.325 94.1837C338.674 93.8913 337.265 93.3066 336.1 92.4295C334.934 91.5523 334.06 90.3341 333.478 88.7747C332.895 87.2153 332.604 85.1687 332.604 82.6347V19.0422C332.604 14.8514 333.818 11.5378 336.246 9.10129C338.674 6.6648 341.976 5.44655 346.152 5.44655C346.152 5.44655 386.84 2.89432 394.663 5.44655Z"/>
</mask>
<path d="M53.311 25.4745C55.6419 24.7923 57.9728 24.4512 60.3036 24.4512C64.3827 24.4512 67.7819 25.0847 70.5013 26.3516C73.2206 27.5212 74.8717 29.2754 75.4544 31.6145C76.5227 35.6103 77.4939 39.3625 78.368 42.8711C79.3392 46.2822 80.2618 49.5958 81.1359 52.812C82.01 55.9307 82.8355 59.0494 83.6125 62.1681C84.4865 65.2868 85.3121 68.5518 86.089 71.9628H86.8174C87.6915 66.0178 88.4685 60.3651 89.1483 55.0048C89.8281 49.5471 90.4594 44.2355 91.0421 39.0701C91.6249 33.8073 92.2076 28.6419 92.7903 23.574C94.0062 12.796 93.053 4.86175 106.047 4.86175C109.641 4.86175 112.748 5.64143 115.371 7.20079C117.993 8.76015 119.304 11.3916 119.304 15.095C119.304 17.2392 119.061 20.3091 118.576 24.305C118.187 28.2034 117.604 32.5891 116.828 37.4621C116.148 42.3351 115.322 47.4517 114.351 52.812C113.38 58.1723 112.36 63.2889 111.292 68.1619C110.223 73.0349 109.106 77.4693 107.941 81.4652C106.064 88.3129 104.94 91.9797 97.7434 93.8913C94.4414 94.7684 91.0421 95.207 87.5458 95.207C82.9812 95.207 79.0964 94.6223 75.8914 93.4527C72.7836 92.1858 70.8897 90.4315 70.2099 88.1899C68.9473 84.2915 67.5877 79.6622 66.1309 74.3019C64.674 68.9416 63.1201 63.0453 61.4691 56.6129C60.1094 62.9478 58.7012 69.1365 57.2444 75.179C55.295 83.2646 55.49 91.2618 46.7554 93.8913C43.8418 94.7684 40.6368 95.207 37.1405 95.207C32.7701 95.207 28.7882 94.6223 25.1947 93.4527C21.6984 92.1858 19.4161 90.4315 18.3478 88.1899C17.4737 86.4356 16.5025 83.853 15.4342 80.4419C14.463 76.9333 13.4432 72.9862 12.3749 68.6005C11.3066 64.1173 10.1897 59.2931 9.02424 54.1277C7.95592 48.9623 6.93616 43.797 5.96496 38.6316C5.09087 33.4662 4.26535 28.447 3.48839 23.574C2.27706 15.8248 -0.545887 9.98787 7.42176 6.46984C9.84976 5.39778 12.472 4.86175 15.2885 4.86175C18.979 4.86175 21.9898 5.69016 24.3207 7.34697C26.7487 8.90633 28.254 11.5865 28.8367 15.3874C30.3907 25.3283 31.6532 33.6124 32.6244 40.2397C33.6927 46.8669 34.5183 52.3247 35.101 56.6129C35.7808 60.8037 36.2664 64.0686 36.5578 66.4076C36.8491 68.7467 37.1405 70.5984 37.4319 71.9628H38.1603C39.0343 68.0645 39.8599 64.4584 40.6368 61.1448C41.4138 57.8312 42.1908 54.5175 42.9677 51.2039C44.9021 43.6548 44.6541 27.7407 53.311 25.4745Z" fill="#0E0E0E"/>
<path d="M127.592 49.5959C127.592 41.994 128.757 35.2693 131.088 29.4217C133.516 23.5741 136.77 18.7011 140.849 14.8027C145.025 10.8068 149.881 7.78558 155.417 5.73892C161.05 3.69227 167.12 2.66895 173.627 2.66895C180.134 2.66895 186.155 3.69227 191.691 5.73892C197.324 7.78558 202.228 10.8068 206.405 14.8027C210.581 18.7011 213.834 23.5741 216.165 29.4217C218.593 35.2693 219.807 41.994 219.807 49.5959C219.807 57.1977 218.642 63.9712 216.311 69.9162C213.98 75.7638 210.726 80.6855 206.55 84.6814C202.471 88.5798 197.615 91.5523 191.982 93.599C186.349 95.6456 180.231 96.6689 173.627 96.6689C167.022 96.6689 160.904 95.6456 155.271 93.599C149.638 91.4548 144.782 88.3849 140.703 84.389C136.624 80.3932 133.419 75.4714 131.088 69.6238C128.757 63.7763 127.592 57.1003 127.592 49.5959ZM153.814 49.5959C153.814 58.4647 155.611 65.092 159.204 69.4777C162.798 73.8633 167.605 76.0562 173.627 76.0562C179.745 76.0562 184.601 73.8633 188.195 69.4777C191.788 65.092 193.585 58.4647 193.585 49.5959C193.585 40.8245 191.788 34.2459 188.195 29.8602C184.698 25.4745 179.891 23.2817 173.772 23.2817C167.751 23.2817 162.895 25.4745 159.204 29.8602C155.611 34.1485 153.814 40.727 153.814 49.5959Z" fill="#0E0E0E"/>
<path d="M229.161 49.5959C229.161 41.994 230.326 35.2693 232.657 29.4217C235.085 23.5741 238.338 18.7011 242.417 14.8027C246.594 10.8068 251.45 7.78558 256.985 5.73892C262.618 3.69227 268.688 2.66895 275.195 2.66895C281.702 2.66895 287.724 3.69227 293.26 5.73892C298.893 7.78558 303.797 10.8068 307.974 14.8027C312.15 18.7011 315.403 23.5741 317.734 29.4217C320.162 35.2693 321.376 41.994 321.376 49.5959C321.376 57.1977 320.211 63.9712 317.88 69.9162C315.549 75.7638 312.295 80.6855 308.119 84.6814C304.04 88.5798 299.184 91.5523 293.551 93.599C287.918 95.6456 281.8 96.6689 275.195 96.6689C268.591 96.6689 262.473 95.6456 256.84 93.599C251.207 91.4548 246.351 88.3849 242.272 84.389C238.193 80.3932 234.988 75.4714 232.657 69.6238C230.326 63.7763 229.161 57.1003 229.161 49.5959ZM255.383 49.5959C255.383 58.4647 257.18 65.092 260.773 69.4777C264.367 73.8633 269.174 76.0562 275.195 76.0562C281.314 76.0562 286.17 73.8633 289.763 69.4777C293.357 65.092 295.154 58.4647 295.154 49.5959C295.154 40.8245 293.357 34.2459 289.763 29.8602C286.267 25.4745 281.46 23.2817 275.341 23.2817C269.32 23.2817 264.464 25.4745 260.773 29.8602C257.18 34.1485 255.383 40.727 255.383 49.5959Z" fill="#0E0E0E"/>
<path d="M394.663 5.44655C402.487 7.99878 397.946 20.4256 394.809 23.5741C393.255 25.1334 391.118 25.9131 388.399 25.9131H357.806V42.4326C365.742 42.4326 389.058 37.4733 391.604 46.6721C392.187 48.4263 392.478 50.2781 392.478 52.2273C392.478 55.9307 391.653 58.6109 390.002 60.2677C388.448 61.8271 386.311 62.6067 383.592 62.6067H358.098C358.098 71.342 363.394 93.026 352.999 94.3299C350.765 94.6223 348.531 94.7685 346.297 94.7685C344.064 94.7685 342.073 94.5736 340.325 94.1837C338.674 93.8913 337.265 93.3066 336.1 92.4295C334.934 91.5523 334.06 90.3341 333.478 88.7747C332.895 87.2153 332.604 85.1687 332.604 82.6347V19.0422C332.604 14.8514 333.818 11.5378 336.246 9.10129C338.674 6.6648 341.976 5.44655 346.152 5.44655C346.152 5.44655 386.84 2.89432 394.663 5.44655Z" fill="#0E0E0E"/>
<path d="M53.311 25.4745C55.6419 24.7923 57.9728 24.4512 60.3036 24.4512C64.3827 24.4512 67.7819 25.0847 70.5013 26.3516C73.2206 27.5212 74.8717 29.2754 75.4544 31.6145C76.5227 35.6103 77.4939 39.3625 78.368 42.8711C79.3392 46.2822 80.2618 49.5958 81.1359 52.812C82.01 55.9307 82.8355 59.0494 83.6125 62.1681C84.4865 65.2868 85.3121 68.5518 86.089 71.9628H86.8174C87.6915 66.0178 88.4685 60.3651 89.1483 55.0048C89.8281 49.5471 90.4594 44.2355 91.0421 39.0701C91.6249 33.8073 92.2076 28.6419 92.7903 23.574C94.0062 12.796 93.053 4.86175 106.047 4.86175C109.641 4.86175 112.748 5.64143 115.371 7.20079C117.993 8.76015 119.304 11.3916 119.304 15.095C119.304 17.2392 119.061 20.3091 118.576 24.305C118.187 28.2034 117.604 32.5891 116.828 37.4621C116.148 42.3351 115.322 47.4517 114.351 52.812C113.38 58.1723 112.36 63.2889 111.292 68.1619C110.223 73.0349 109.106 77.4693 107.941 81.4652C106.064 88.3129 104.94 91.9797 97.7434 93.8913C94.4414 94.7684 91.0421 95.207 87.5458 95.207C82.9812 95.207 79.0964 94.6223 75.8914 93.4527C72.7836 92.1858 70.8897 90.4315 70.2099 88.1899C68.9473 84.2915 67.5877 79.6622 66.1309 74.3019C64.674 68.9416 63.1201 63.0453 61.4691 56.6129C60.1094 62.9478 58.7012 69.1365 57.2444 75.179C55.295 83.2646 55.49 91.2618 46.7554 93.8913C43.8418 94.7684 40.6368 95.207 37.1405 95.207C32.7701 95.207 28.7882 94.6223 25.1947 93.4527C21.6984 92.1858 19.4161 90.4315 18.3478 88.1899C17.4737 86.4356 16.5025 83.853 15.4342 80.4419C14.463 76.9333 13.4432 72.9862 12.3749 68.6005C11.3066 64.1173 10.1897 59.2931 9.02424 54.1277C7.95592 48.9623 6.93616 43.797 5.96496 38.6316C5.09087 33.4662 4.26535 28.447 3.48839 23.574C2.27706 15.8248 -0.545887 9.98787 7.42176 6.46984C9.84976 5.39778 12.472 4.86175 15.2885 4.86175C18.979 4.86175 21.9898 5.69016 24.3207 7.34697C26.7487 8.90633 28.254 11.5865 28.8367 15.3874C30.3907 25.3283 31.6532 33.6124 32.6244 40.2397C33.6927 46.8669 34.5183 52.3247 35.101 56.6129C35.7808 60.8037 36.2664 64.0686 36.5578 66.4076C36.8491 68.7467 37.1405 70.5984 37.4319 71.9628H38.1603C39.0343 68.0645 39.8599 64.4584 40.6368 61.1448C41.4138 57.8312 42.1908 54.5175 42.9677 51.2039C44.9021 43.6548 44.6541 27.7407 53.311 25.4745Z" stroke="#0E0E0E" stroke-width="4" mask="url(#path-1-outside-1)"/>
<path d="M127.592 49.5959C127.592 41.994 128.757 35.2693 131.088 29.4217C133.516 23.5741 136.77 18.7011 140.849 14.8027C145.025 10.8068 149.881 7.78558 155.417 5.73892C161.05 3.69227 167.12 2.66895 173.627 2.66895C180.134 2.66895 186.155 3.69227 191.691 5.73892C197.324 7.78558 202.228 10.8068 206.405 14.8027C210.581 18.7011 213.834 23.5741 216.165 29.4217C218.593 35.2693 219.807 41.994 219.807 49.5959C219.807 57.1977 218.642 63.9712 216.311 69.9162C213.98 75.7638 210.726 80.6855 206.55 84.6814C202.471 88.5798 197.615 91.5523 191.982 93.599C186.349 95.6456 180.231 96.6689 173.627 96.6689C167.022 96.6689 160.904 95.6456 155.271 93.599C149.638 91.4548 144.782 88.3849 140.703 84.389C136.624 80.3932 133.419 75.4714 131.088 69.6238C128.757 63.7763 127.592 57.1003 127.592 49.5959ZM153.814 49.5959C153.814 58.4647 155.611 65.092 159.204 69.4777C162.798 73.8633 167.605 76.0562 173.627 76.0562C179.745 76.0562 184.601 73.8633 188.195 69.4777C191.788 65.092 193.585 58.4647 193.585 49.5959C193.585 40.8245 191.788 34.2459 188.195 29.8602C184.698 25.4745 179.891 23.2817 173.772 23.2817C167.751 23.2817 162.895 25.4745 159.204 29.8602C155.611 34.1485 153.814 40.727 153.814 49.5959Z" stroke="#0E0E0E" stroke-width="4" mask="url(#path-1-outside-1)"/>
<path d="M229.161 49.5959C229.161 41.994 230.326 35.2693 232.657 29.4217C235.085 23.5741 238.338 18.7011 242.417 14.8027C246.594 10.8068 251.45 7.78558 256.985 5.73892C262.618 3.69227 268.688 2.66895 275.195 2.66895C281.702 2.66895 287.724 3.69227 293.26 5.73892C298.893 7.78558 303.797 10.8068 307.974 14.8027C312.15 18.7011 315.403 23.5741 317.734 29.4217C320.162 35.2693 321.376 41.994 321.376 49.5959C321.376 57.1977 320.211 63.9712 317.88 69.9162C315.549 75.7638 312.295 80.6855 308.119 84.6814C304.04 88.5798 299.184 91.5523 293.551 93.599C287.918 95.6456 281.8 96.6689 275.195 96.6689C268.591 96.6689 262.473 95.6456 256.84 93.599C251.207 91.4548 246.351 88.3849 242.272 84.389C238.193 80.3932 234.988 75.4714 232.657 69.6238C230.326 63.7763 229.161 57.1003 229.161 49.5959ZM255.383 49.5959C255.383 58.4647 257.18 65.092 260.773 69.4777C264.367 73.8633 269.174 76.0562 275.195 76.0562C281.314 76.0562 286.17 73.8633 289.763 69.4777C293.357 65.092 295.154 58.4647 295.154 49.5959C295.154 40.8245 293.357 34.2459 289.763 29.8602C286.267 25.4745 281.46 23.2817 275.341 23.2817C269.32 23.2817 264.464 25.4745 260.773 29.8602C257.18 34.1485 255.383 40.727 255.383 49.5959Z" stroke="#0E0E0E" stroke-width="4" mask="url(#path-1-outside-1)"/>
<path d="M394.663 5.44655C402.487 7.99878 397.946 20.4256 394.809 23.5741C393.255 25.1334 391.118 25.9131 388.399 25.9131H357.806V42.4326C365.742 42.4326 389.058 37.4733 391.604 46.6721C392.187 48.4263 392.478 50.2781 392.478 52.2273C392.478 55.9307 391.653 58.6109 390.002 60.2677C388.448 61.8271 386.311 62.6067 383.592 62.6067H358.098C358.098 71.342 363.394 93.026 352.999 94.3299C350.765 94.6223 348.531 94.7685 346.297 94.7685C344.064 94.7685 342.073 94.5736 340.325 94.1837C338.674 93.8913 337.265 93.3066 336.1 92.4295C334.934 91.5523 334.06 90.3341 333.478 88.7747C332.895 87.2153 332.604 85.1687 332.604 82.6347V19.0422C332.604 14.8514 333.818 11.5378 336.246 9.10129C338.674 6.6648 341.976 5.44655 346.152 5.44655C346.152 5.44655 386.84 2.89432 394.663 5.44655Z" stroke="#0E0E0E" stroke-width="4" mask="url(#path-1-outside-1)"/>
</svg>
